<?xml version="1.0" encoding="UTF-8"?>
<svg width="261px" height="190px" viewBox="0 0 261 190" version="1.1" xmlns="http://www.w3.org/2000/svg" xmlns:xlink="http://www.w3.org/1999/xlink">
    <!-- Generator: Sketch 60 (88103) - https://sketch.com -->
    <title>拖船</title>
    <desc>Created with Sketch.</desc>
    <defs>
        <path d="M5.38302156,118.215473 C6.52911879,163.993612 12.8110495,186.580683 24.2288138,185.92494 C41.3554603,184.914942 209.212611,168.400302 245.767317,158.484731 C245.687293,158.230294 246.409167,153.243901 247.932941,143.515161 L249.797977,134.71122 L247.932941,134.67878 C249.176299,124.647988 249.797977,119.628238 249.797977,119.628238 C249.797977,119.628238 242.403308,117.933677 227.613969,114.578003 L227.613969,100.878664 L225.962222,100.875856 L225.962222,96.2521235 L209.780058,90.930244 L209.780058,43.1858325 L206.97556,39.8935175 L206.97556,17.1906982 C211.187746,14.1808645 211.187746,11.1660338 206.97556,8.1642212 C206.879325,8.21573683 206.879325,6.83803658 206.97556,4.030932 C202.020431,-0.628564216 196.801677,-0.673569911 191.319298,3.86189329 C191.153406,3.89361113 191.153406,5.23228372 191.319298,7.8782291 C185.834538,11.2236132 185.296182,14.5384233 189.704231,17.8459096 C189.775271,17.9044108 189.775271,22.3314926 189.704231,31.1267042 L128.542409,35.4509956 C125.444432,36.8043168 124.258581,39.69759 124.984855,44.1360936 C124.944375,44.1005154 124.944375,46.8048326 124.984855,52.2492072 L132.308915,57.3052325 L132.308915,65.8022192 L113.41572,66.0941196 L113.41572,79.130555 L103.779199,79.2171548 L103.660688,82.6097412 L106.669579,82.5877854 L105.467175,85.9939155 L25.7955168,70.1650711 C21.830931,69.0164723 18.4642247,72.3044638 15.6953977,80.0087316 C12.9265708,87.6908737 9.96625221,95.5924345 6.81444201,103.709926 L1.23033365,105.068743 C-0.410111216,109.957826 -0.410111216,113.17623 1.23033365,114.732278 C2.87077851,116.290983 4.25500782,117.45249 5.38302156,118.215473 Z" id="path-1"></path>
    </defs>
    <g id="页面-1" stroke="none" stroke-width="1" fill="none" fill-rule="evenodd">
        <g id="拖船">
            <path d="M193.130389,4.13611307 L193.019767,4.20162019 C192.638863,4.44405582 192.42621,4.80209721 192.285216,5.20823959 C192.219004,5.39896798 192.182787,5.58119661 192.158037,5.78558916 C192.126659,6.04471888 192.113607,6.36306427 192.113607,6.76516943 L192.1145,6.9505569 C192.118071,7.33445024 192.132348,7.79715122 192.157256,8.34040888 L192.178587,8.79038869 L192.125342,8.8272246 C186.855189,12.4591185 186.176411,16.7416009 190.525666,20.5167774 L190.662686,20.6337102 L190.675804,22.5080371 L190.673799,24.6473168 C190.669385,26.2017754 190.658979,28.1253645 190.642579,30.4177117 L190.635124,31.2790106 L130.852742,35.5322823 L130.562924,35.6589102 L130.318961,35.7694923 C126.706802,37.4673287 125.222354,40.9214737 125.833802,45.676873 L125.89053,46.0787986 L125.877599,46.7702874 C125.875645,46.9846615 125.874352,47.241239 125.873706,47.5404731 L125.88674,51.6452793 L125.910751,55.09736 L133.227491,60.1417668 L133.227491,65.8571731 L114.334448,66.1536757 L114.333852,79.164947 L104.760496,79.2525536 L104.550318,85.2414134 L28.974841,70.2587986 L29.0618151,70.2835386 C23.9463331,68.8052688 19.9042552,72.6427869 16.8624281,80.8718066 L15.9633697,83.3501663 C13.6712422,89.6520517 11.2531735,96.093779 8.71038562,102.671548 L8.20424028,103.976113 L2.56788073,105.344829 L2.24485194,106.305682 C0.396967556,111.802234 0.396967556,115.667833 2.72316604,117.870445 L3.0614214,118.189126 C4.17778643,119.233605 5.18281043,120.100263 6.08211249,120.791247 L6.32636042,120.976254 L6.37933778,122.84809 C7.74108971,167.928206 14.2035539,190.173284 27.0887721,189.444399 L27.7867617,189.401441 C39.8230981,188.62493 88.0438529,183.89779 129.396862,179.272301 L137.656487,178.340251 C192.331388,172.117139 232.469833,166.461289 248.505341,162.227328 L250.85022,161.594153 L250.369894,160.06629 L250.416633,159.640566 L250.505821,158.930105 C250.566172,158.469912 250.643654,157.907966 250.738194,157.244989 L251.267952,153.651727 C251.460138,152.377061 251.682258,150.925366 251.934383,149.296187 L252.49583,145.689117 L254.813287,134.750807 L252.76318,134.713993 L254.581554,120.045434 L232.207562,114.945724 L232.207609,100.881276 L230.555689,100.877244 L230.555861,96.7596374 L214.373216,91.4391519 L214.373698,44.3615031 L211.568339,41.069894 L211.568339,19.9602827 L211.694989,19.8575239 C215.739957,16.4872053 215.739803,12.5776217 211.692439,9.21816539 L211.496678,9.05865724 L211.503743,8.31848764 C211.513826,7.70461774 211.535265,6.91726012 211.56812,5.95916753 L211.596656,5.12702062 L210.989781,4.55694599 C205.522364,-0.578928099 199.470766,-0.790910799 193.466657,3.87083528 L193.130389,4.13611307 Z M194.075482,5.73767545 C199.557861,1.20021083 204.776615,1.24154329 209.731744,5.89619459 L209.678877,7.67858189 C209.641116,9.28417112 209.658738,10.0673663 209.731744,10.0282509 C213.871305,12.9749006 213.942677,15.9366906 209.945859,18.8962703 L209.731744,19.0520356 L209.731744,41.7480832 L212.536242,45.03834 L212.536242,92.7694609 L228.718406,98.0897446 L228.718406,102.712717 L230.370153,102.715565 L230.370153,116.412808 L252.554161,121.465693 L250.689125,136.515759 L252.554161,136.548676 L250.689125,145.352027 L249.579417,152.529267 C248.818312,157.542943 248.46634,160.138739 248.523501,160.320499 C211.968795,170.217667 44.111644,186.61429 26.9849976,187.609876 C15.5672333,188.255751 9.28530253,165.706117 8.1392053,120.013478 C7.01119156,119.251734 5.62696226,118.092196 3.98651739,116.536208 C2.38608338,115.020802 2.3470484,111.926438 3.86941247,107.245274 L3.98651739,106.891212 L9.57062576,105.535315 C12.4359078,98.169534 15.1429322,90.9815321 17.6916991,83.9739679 L18.4515815,81.8771145 C21.1742613,74.3142527 24.4750573,71.0137389 28.3539695,71.995172 L28.5517005,72.0487657 L108.223359,87.8432657 L109.083425,84.4628731 L106.416872,84.4628731 L106.535383,81.073901 L116.171904,80.9860281 L116.171904,67.9625513 L135.065099,67.6663597 L135.065099,59.1765816 L127.741039,54.1273724 L127.713212,49.3635482 C127.705676,47.1126694 127.714952,45.9987004 127.741039,46.0215972 C127.031655,41.6905501 128.146494,38.8315469 131.085557,37.4395965 L131.298593,37.3426664 L192.460415,32.9920687 L192.512215,24.2768053 C192.519121,21.2709722 192.501855,19.7509665 192.460415,19.716879 C188.052366,16.4134283 188.590722,13.0997871 194.075482,9.75236308 L194.027873,8.94726331 C193.911494,6.83586914 193.927364,5.76608309 194.075482,5.73767545 Z" id="路径-60" fill="#333333" fill-rule="nonzero"></path>
            <g id="编组-56" transform="translate(2.756184, 1.837456)">
                <mask id="mask-2" fill="white">
                    <use xlink:href="#path-1"></use>
                </mask>
                <use id="蒙版" fill="#FFFFFF" xlink:href="#path-1"></use>
                <g mask="url(#mask-2)" fill="#ACAEAC" fill-rule="nonzero" id="路径">
                    <g transform="translate(100.392226, -19.293286)">
                        <polygon points="1.17353477 67.0671378 31.9045936 220.31419 31.3989034 220.4947 0.667844523 67.2476472"></polygon>
                        <polygon points="3.93548328 69.8233216 34.6607774 219.397005 34.1493224 219.575972 3.42402827 70.0022885"></polygon>
                        <polygon points="6.68566464 70.7420495 36.4982332 219.395099 35.9927806 219.575972 6.18021201 70.9229218"></polygon>
                        <polygon points="8.53023601 72.5795053 38.335689 218.477385 37.8231209 218.657244 8.01766784 72.759364"></polygon>
                        <polygon points="12.1980556 74.4169611 41.0918728 217.558947 40.5863967 217.738516 11.6925795 74.5965298"></polygon>
                        <polygon points="14.0418725 77.1731449 42.9293286 217.55931 42.4174914 217.738516 13.5300353 77.3523503"></polygon>
                        <polygon points="17.7122278 78.0918728 45.6855124 216.639926 45.1782316 216.819788 17.204947 78.2717345"></polygon>
                        <polygon points="19.5607438 79.0106007 47.5229682 214.803065 47.0046272 214.982332 19.0424028 79.189868"></polygon>
                        <polygon points="22.3212091 80.8480565 50.2791519 214.802814 49.7565294 214.982332 21.7985866 81.0275742"></polygon>
                        <polygon points="25.9680964 80.8480565 52.1166078 213.882414 51.6220096 214.063604 25.4734982 81.0292471"></polygon>
                        <polygon points="27.8106497 83.6042403 53.9540636 212.04677 53.4543679 212.226148 27.3109541 83.7836183"></polygon>
                        <polygon points="30.5628328 84.5229682 55.7915194 212.046104 55.2958244 212.226148 30.0671378 84.7030131"></polygon>
                        <polygon points="32.3917532 82.6855124 57.6289753 211.129398 57.1418157 211.30742 31.9045936 82.8635352"></polygon>
                        <polygon points="34.2347858 79.0106007 60.385159 212.0449 59.8924226 212.226148 33.7420495 79.1918492"></polygon>
                        <polygon points="31.2791155 53.3319914 63.1413428 210.208933 62.626122 210.388693 30.7638947 53.5117511"></polygon>
                        <polygon points="33.7420495 53.840051 64.9787986 211.127919 64.4714576 211.30742 33.2347085 54.0195528"></polygon>
                        <polygon points="36.0388693 53.840051 66.8162544 207.452782 66.3176721 207.632509 35.540287 54.0197775"></polygon>
                        <polygon points="37.423635 52.9143382 68.6537102 207.452729 68.1490267 207.632509 36.9189515 53.0941181"></polygon>
                        <polygon points="39.9570518 53.5117511 71.409894 207.452822 70.900889 207.632509 39.4480468 53.6914375"></polygon>
                        <polygon points="42.2775027 52.9143382 73.2473498 207.45228 72.7452155 207.632509 41.7753684 53.094567"></polygon>
                        <polygon points="44.3493678 51.4487633 75.0848057 204.695979 74.5834944 204.876325 43.8480565 51.6291098"></polygon>
                        <polygon points="46.185189 49.6113074 76.9222615 204.695441 76.4225848 204.876325 45.6855124 49.7921912"></polygon>
                        <polygon points="48.0253968 46.8551237 79.6784452 203.777487 79.1760166 203.957597 47.5229682 47.0352337"></polygon>
                        <polygon points="48.9476659 43.180212 81.5159011 203.777485 81.0099313 203.957597 48.4416961 43.3603245"></polygon>
                        <polygon points="50.7801864 39.5053004 83.3533569 202.857869 82.8523225 203.038869 50.2791519 39.6863009"></polygon>
                        <polygon points="53.533656 37.6678445 86.1095406 202.859022 85.6112203 203.038869 53.0353357 37.8476921"></polygon>
                        <polygon points="52.6266279 26.6431095 87.9469965 200.102854 87.4369763 200.282686 52.1166078 26.822941"></polygon>
                        <polygon points="54.4640838 25.7243816 89.7844523 199.184126 89.2744321 199.363958 53.9540636 25.9042131"></polygon>
                        <polygon points="57.2202675 24.8056537 92.540636 198.265398 92.0306159 198.44523 56.7102473 24.9854852"></polygon>
                        <polygon points="59.9764512 24.8056537 95.2968198 198.265398 94.7867996 198.44523 59.4664311 24.9854852"></polygon>
                        <polygon points="61.8139071 23.8869258 97.1342756 197.34667 96.6242555 197.526502 61.3038869 24.0667573"></polygon>
                        <polygon points="63.6513629 22.9681979 98.9717314 196.427942 98.4617113 196.607774 63.1413428 23.1480294"></polygon>
                        <polygon points="65.4888187 22.9681979 100.809187 196.427942 100.299167 196.607774 64.9787986 23.1480294"></polygon>
                        <polygon points="68.2450025 22.9681979 103.565371 196.427942 103.055351 196.607774 67.7349823 23.1480294"></polygon>
                        <polygon points="70.0824583 21.130742 105.402827 194.590487 104.892807 194.770318 69.5724382 21.3105735"></polygon>
                        <polygon points="71.9199141 20.2120141 107.240283 193.671759 106.730263 193.85159 71.409894 20.3918456"></polygon>
                        <polygon points="74.6760979 20.2120141 109.996466 193.671759 109.486446 193.85159 74.1660777 20.3918456"></polygon>
                        <polygon points="76.5135537 19.2932862 111.833922 192.753031 111.323902 192.932862 76.0035336 19.4731177"></polygon>
                        <polygon points="79.2697375 19.2932862 114.590106 192.753031 114.080086 192.932862 78.7597173 19.4731177"></polygon>
                        <polygon points="81.1071933 18.3745583 116.427562 191.834303 115.917542 192.014134 80.5971731 18.5543898"></polygon>
                        <polygon points="82.9446491 17.4558304 118.265018 190.915575 117.754998 191.095406 82.434629 17.6356619"></polygon>
                        <polygon points="84.782105 16.5371025 120.102473 189.996847 119.592453 190.176678 84.2720848 16.716934"></polygon>
                        <polygon points="87.5382887 15.6183746 122.858657 189.078119 122.348637 189.257951 87.0282686 15.798206"></polygon>
                        <polygon points="89.3757445 15.6183746 124.696113 189.078119 124.186093 189.257951 88.8657244 15.798206"></polygon>
                        <polygon points="91.2132004 14.6996466 126.533569 188.159391 126.023549 188.339223 90.7031802 14.8794781"></polygon>
                        <polygon points="93.9693841 12.8621908 129.289753 186.321935 128.779733 186.501767 93.459364 13.0420223"></polygon>
                        <polygon points="95.8068399 12.8621908 131.127208 186.321935 130.617188 186.501767 95.2968198 13.0420223"></polygon>
                        <polygon points="98.5630237 12.8621908 133.883392 186.321935 133.373372 186.501767 98.0530035 13.0420223"></polygon>
                        <polygon points="100.40048 10.1060071 135.720848 183.565752 135.210828 183.745583 99.8904594 10.2858385"></polygon>
                        <polygon points="102.237935 9.18727915 137.558304 182.647024 137.048284 182.826855 101.727915 9.36711063"></polygon>
                        <polygon points="104.075391 8.26855124 139.39576 181.728296 138.88574 181.908127 103.565371 8.44838272"></polygon>
                        <polygon points="105.912847 7.34982332 141.233216 180.809568 140.723195 180.989399 105.402827 7.5296548"></polygon>
                        <polygon points="108.669031 7.34982332 143.989399 180.809568 143.479379 180.989399 108.159011 7.5296548"></polygon>
                        <polygon points="110.506487 6.43109541 145.826855 179.89084 145.316835 180.070671 109.996466 6.61092688"></polygon>
                        <polygon points="112.343942 4.59363958 147.664311 178.053384 147.154291 178.233216 111.833922 4.77347105"></polygon>
                        <polygon points="115.100126 4.59363958 150.420495 178.053384 149.910475 178.233216 114.590106 4.77347105"></polygon>
                        <polygon points="116.937582 3.67491166 152.257951 177.134656 151.74793 177.314488 116.427562 3.85474314"></polygon>
                        <polygon points="118.775038 3.67491166 154.095406 177.134656 153.585386 177.314488 118.265018 3.85474314"></polygon>
                        <polygon points="121.531222 2.75618375 156.85159 176.215928 156.34157 176.39576 121.021201 2.93601522"></polygon>
                        <polygon points="123.368677 1.83745583 158.689046 175.2972 158.179026 175.477032 122.858657 2.01728731"></polygon>
                        <polygon points="125.206133 0.918727915 160.526502 174.378472 160.016482 174.558304 124.696113 1.09855939"></polygon>
                        <polygon points="127.043589 0.918727915 162.363958 174.378472 161.853937 174.558304 126.533569 1.09855939"></polygon>
                        <polygon points="130.718501 0 166.038869 173.459744 165.528849 173.639576 130.208481 0.179831479"></polygon>
                    </g>
                </g>
                <polygon id="路径-72" fill="#FFFFFF" mask="url(#mask-2)" points="125.920753 36.2897527 128.997546 34.5467648 188.339223 30.3180212 188.339223 51.4487633 188.339223 69.3639576 188.339223 83.3808389 188.339223 86.819788 187.879859 104.275618 106.572438 85.9010601 108.415135 81.543383 113.021876 78.4541755 112.100528 65.229682 130.527494 65.229682 132.370191 61.5547703 127.763449 53.2862191 124.310116 52.5461877 124.310116 39.8169754"></polygon>
            </g>
            <g id="编组-91" transform="translate(19.061221, 77.419430)">
                <ellipse id="椭圆形" fill="#333333" cx="188.899612" cy="23.3036884" rx="1.80648747" ry="2.52908246"></ellipse>
                <ellipse id="椭圆形备份-40" fill="#333333" cx="199.377239" cy="26.5553659" rx="1.80648747" ry="2.52908246"></ellipse>
                <circle id="椭圆形备份-42" fill="#333333" cx="152.769862" cy="16.0777385" r="2.52908246"></circle>
                <path d="M5.36278249,13.7293048 C8.95448623,13.7293048 12.4317773,10.6558952 13.1295296,6.8646524 C13.8272818,3.07340957 11.4812706,8.52651283e-14 7.88956684,8.52651283e-14 C4.29786311,8.52651283e-14 0.820571993,3.07340957 0.122819762,6.8646524 C-0.57493247,10.6558952 1.77107875,13.7293048 5.36278249,13.7293048 Z" id="椭圆形备份-44" fill="#333333"></path>
                <path d="M34.817877,84.0397286 C39.8122844,80.1621952 41.1868235,72.3107993 37.8879961,66.503145 C34.5891686,60.6954906 27.8661735,59.1308184 22.8717661,63.0083518 C17.8773587,66.8858851 16.5028196,74.737281 19.801647,80.5449354 C23.1004744,86.3525897 29.8234696,87.9172619 34.817877,84.0397286 Z" id="椭圆形备份-45" fill="#333333"></path>
                <path d="M35.3855618,83.6213799 C39.7972883,80.2977799 41.0114645,73.5680119 38.0975003,68.5900225 C35.183536,63.612033 29.2448903,62.2708854 24.8331638,65.5944855 C20.4214373,68.9180855 19.207261,75.6478534 22.1212253,80.6258428 C25.0351895,85.6038323 30.9738352,86.9449799 35.3855618,83.6213799 Z" id="椭圆形备份-45" fill="#FFFFFF"></path>
                <path d="M33.1954414,79.7155527 C35.7758852,77.8321794 36.4860638,74.0186442 34.7816696,71.1977836 C33.0772754,68.3769229 29.6037279,67.6169392 27.0232841,69.5003126 C24.4428403,71.3836859 23.7326618,75.1972211 25.4370559,78.0180818 C27.1414501,80.8389424 30.6149976,81.5989261 33.1954414,79.7155527 Z" id="椭圆形备份-45" fill="#333333"></path>
                <path d="M7.50600183,13.8587201 C9.95400846,13.8587201 12.3240346,11.3514649 12.7996034,8.25860891 C13.2751721,5.16575292 12.4296844,2.01624512 9.98167778,2.01624512 C8.92031935,2.01624512 9.27941424,5.39276464 8.7716376,7.77787957 C8.10823534,10.8939949 6.11935363,13.8587201 7.50600183,13.8587201 Z" id="椭圆形备份-44" fill="#FFFFFF" transform="translate(9.975932, 7.937483) rotate(11.000000) translate(-9.975932, -7.937483) "></path>
                <ellipse id="椭圆形" stroke="#333333" cx="188.899612" cy="23.3036884" rx="2.39037996" ry="3.47427244"></ellipse>
                <ellipse id="椭圆形备份-41" stroke="#333333" cx="199.377239" cy="26.5553659" rx="2.39037996" ry="3.47427244"></ellipse>
                <circle id="椭圆形备份-43" stroke="#333333" cx="152.769862" cy="16.0777385" r="3.47427244"></circle>
            </g>
            <g id="编组-93" transform="translate(3.527407, 9.164761)">
                <polygon id="路径-61" fill="#333333" points="123.488446 45.2188829 129.011135 40.2933312 188.438333 39.4027739 209.028203 54.3819598 209.028203 58.8318532 188.07257 45.9589142 188.07257 42.8927043 134.758383 42.1526729 134.651912 56.6379019 131.318872 56.6379019 130.49484 50.5525538"></polygon>
                <rect id="矩形" fill="#333333" x="136.509497" y="44.9509811" width="6.8646524" height="11.9228173"></rect>
                <rect id="矩形备份-45" fill="#333333" x="146.987124" y="44.9509811" width="6.8646524" height="11.9228173"></rect>
                <rect id="矩形备份-47" fill="#333333" x="157.464752" y="44.9509811" width="6.8646524" height="11.9228173"></rect>
                <rect id="矩形备份-48" fill="#333333" x="166.497189" y="44.9509811" width="6.8646524" height="11.9228173"></rect>
                <polygon id="矩形备份-49" fill="#333333" points="176.252221 45.7058419 179.420333 46.5956144 179.420333 55.2291651 176.252221 56.1189377"></polygon>
                <polygon id="矩形" fill="#FFFFFF" points="137.292553 45.6735761 142.651554 45.6735761 142.651554 54.344716"></polygon>
                <polygon id="矩形备份-46" fill="#FFFFFF" points="147.770181 45.6735761 153.129182 45.6735761 153.129182 54.344716"></polygon>
                <polyline id="路径-62" stroke="#333333" points="112.871493 58.8318532 187.568 59.2616734 209.028203 70.3808008"></polyline>
                <rect id="矩形" fill="#333333" x="126.393167" y="61.9319634" width="15.5357923" height="2.16778497" rx="1.08389248"></rect>
                <path d="M130.006142,65.5449383 L135.064307,65.5449383 C135.662924,65.5449383 136.1482,66.0302135 136.1482,66.6288308 C136.1482,67.2274481 135.662924,67.7127233 135.064307,67.7127233 L130.006142,67.7127233 C129.407525,67.7127233 128.92225,67.2274481 128.92225,66.6288308 C128.92225,66.0302135 129.407525,65.5449383 130.006142,65.5449383 Z" id="矩形备份-51" fill="#333333" transform="translate(132.535225, 66.628831) rotate(-90.000000) translate(-132.535225, -66.628831) "></path>
                <path d="M157.464752,65.5449383 L162.522917,65.5449383 C163.121534,65.5449383 163.606809,66.0302135 163.606809,66.6288308 C163.606809,67.2274481 163.121534,67.7127233 162.522917,67.7127233 L157.464752,67.7127233 C156.866134,67.7127233 156.380859,67.2274481 156.380859,66.6288308 C156.380859,66.0302135 156.866134,65.5449383 157.464752,65.5449383 Z" id="矩形备份-52" fill="#333333" transform="translate(159.993834, 66.628831) rotate(-90.000000) translate(-159.993834, -66.628831) "></path>
                <rect id="矩形备份-50" fill="#333333" x="153.129182" y="61.9319634" width="15.5357923" height="2.16778497" rx="1.08389248"></rect>
                <polygon id="路径-63" fill="#333333" points="102.228603 70.3808008 187.108636 75.7869153 225.190999 88.9135793 225.190999 90.5366686 187.108636 77.6550273 102.126304 76.7362994"></polygon>
                <path d="M-2.84217094e-14,97.5511033 C58.1347649,111.071476 98.9741119,119.423984 122.518041,122.608626 C169.709104,128.991871 212.144642,130.512305 249.824656,127.169928" id="路径-64" stroke="#333333"></path>
                <path d="M1.46381452,109.810504 C90.7535704,131.122641 172.701129,138.82507 247.306489,132.917789" id="路径-65" stroke="#333333"></path>
                <line x1="187.472593" y1="75.8352393" x2="187.472593" y2="97.1851635" id="路径-66" stroke="#333333"></line>
                <line x1="198.291369" y1="80.3581356" x2="198.291369" y2="100.596545" id="路径-66备份" stroke="#333333"></line>
                <line x1="104.448853" y1="77.6550273" x2="227.532664" y2="106.460191" id="路径-67" stroke="#333333" stroke-width="2"></line>
                <polygon id="路径-68" fill="#333333" points="209.028203 70.2418057 254.358106 30.7081577 256.228906 32.0933096 209.028203 74.2160782"></polygon>
                <line x1="206.148667" y1="24.655961" x2="243.534495" y2="40.3233802" id="路径-69" stroke="#333333"></line>
                <line x1="252.66226" y1="32.4896706" x2="206.148667" y2="16.4663108" id="路径-70" stroke="#333333"></line>
                <path d="M188.933008,8.23886647 C191.40424,1.19425922 197.514982,0.0248672517 207.265233,4.73069055 C207.248849,4.74613841 202.750714,-1.81311579 194.258137,0.490487542 C188.596419,2.0262231 186.821376,4.60901607 188.933008,8.23886647 Z" id="路径-71" fill="#333333"></path>
                <circle id="椭圆形" fill="#333333" cx="252.472593" cy="33.8352393" r="5"></circle>
                <polygon id="矩形" fill="#333333" points="252 34 254 34 254 95.066009 252 95.066009"></polygon>
                <path d="M255.894324,95.7088664 C256.593013,96.2857901 256.942359,97.0770028 256.942359,98.0824937 C256.942359,98.9066702 256.715285,99.5824902 256.296071,100.109967 C256.138866,100.274802 255.632315,100.719857 254.793883,101.412161 C254.502737,101.638002 254.264763,101.918716 254.095193,102.236338 C253.920521,102.566009 253.893448,102.939039 253.893448,103.334643 L253.893448,103.565413 L251.884718,103.565413 L251.884718,103.334643 C251.884718,102.708269 251.929258,102.137437 252.1738,101.692378 C252.400874,101.247323 253.082097,100.555015 254.217469,99.5989746 L254.427076,99.3682049 C254.741486,99.0055678 254.898692,98.6099632 254.898692,98.1978744 C254.898692,97.6539181 254.724019,97.2253461 254.409609,96.9121596 C254.077731,96.5989731 253.606116,96.4506214 253.012224,96.4506214 C252.243665,96.4506214 251.70218,96.6649068 251.370307,97.1264462 C251.073363,97.5055676 250.933626,98.0495239 250.933626,98.7418354 L248.942359,98.7418354 C248.942359,97.5220507 249.309171,96.5660105 250.077731,95.8737025 C250.828822,95.1813946 251.841928,94.8352393 253.134496,94.8352393 C254.269865,94.8352393 255.195625,95.1154596 255.894324,95.7088664 Z" id="路径" fill="#333333" fill-rule="nonzero" transform="translate(252.942359, 99.200326) rotate(-180.000000) translate(-252.942359, -99.200326) "></path>
                <rect id="矩形" fill="#333333" x="250" y="80.8352393" width="6" height="8"></rect>
                <rect id="矩形" fill="#333333" transform="translate(253.000000, 88.835239) scale(1, -1) translate(-253.000000, -88.835239) " x="251" y="87.8352393" width="4" height="2"></rect>
                <rect id="矩形备份-53" fill="#333333" transform="translate(253.000000, 80.835239) scale(1, -1) translate(-253.000000, -80.835239) " x="251" y="79.8352393" width="4" height="2"></rect>
            </g>
        </g>
    </g>
</svg>