<?xml version="1.0" encoding="UTF-8"?>
<svg width="330px" height="104px" viewBox="0 0 330 104" version="1.1" xmlns="http://www.w3.org/2000/svg" xmlns:xlink="http://www.w3.org/1999/xlink">
    <!-- Generator: Sketch 60 (88103) - https://sketch.com -->
    <title>货船</title>
    <desc>Created with Sketch.</desc>
    <defs>
        <path d="M299.195736,75.9670643 L299.195736,44.370803 L307.31643,42.3312001 L307.31643,36.92889 L291.903764,36.92889 L291.903764,36.1552475 L293.741279,36.1552475 L291.853421,31.0386576 L262.884967,31.0386576 L260.241966,36.1552475 L262.520949,36.1552475 L262.520949,36.92889 L256.826395,36.92889 L255.136036,36.4409678 L253.709009,36.6761375 L253.709009,35.6123791 L241.045839,31.9551602 L239.446485,32.2210998 L239.446485,31.4694358 L226.107558,27.6122128 L224.384283,27.897933 L224.384283,27.174841 L210.367664,23.115416 L208.359757,23.4494889 L208.359757,22.392324 L193.45052,18.0691572 L191.57428,18.3812516 L191.57428,17.4669469 L175.896346,12.9239953 L173.334668,13.3437842 L173.334668,11.9965035 L156.723454,7.16123811 L154.20631,7.58102706 L154.20631,5.45131245 L136.073193,0.1764775 L109.801956,4.8205301 L109.801956,13.8031344 L87.5000606,17.1658417 L87.5000606,18.7043353 L61.9026433,21.6824192 L61.9026433,28.1353006 C4.24068507,21.9197867 0.61766839,27.1077813 0.174263809,27.9143914 L0,28.2352772 L0.0832593755,28.60012 C1.60709957,35.290369 5.02073397,41.3608249 8.63573988,47.7851343 C15.8212176,60.5568284 22.3338181,69.4156393 19.5030659,98.3759117 L19.4004439,99.2902164 L20.2098025,99.3627454 C20.3763212,99.3781303 37.2954008,100.848491 80.7258146,101.17597 C85.9963267,101.215531 91.8173834,101.236777 98.1889846,101.239708 C140.316292,101.239708 207.290939,102.516657 305.461488,98.3956923 L305.538939,98.3956923 L305.612517,98.3759117 C314.742004,95.9077285 321.086242,91.6185293 323.436867,88.011861 C326.021781,84.0557347 326.399352,80.6688511 326.414842,80.525991 L326.505847,79.6622368 L299.195736,75.9670643 Z" id="path-1"></path>
    </defs>
    <g id="页面-1" stroke="none" stroke-width="1" fill="none" fill-rule="evenodd">
        <g id="货船" transform="translate(164.998909, 51.500010) rotate(-1.000000) translate(-164.998909, -51.500010) translate(-0.001091, 0.000010)">
            <g id="编组-56" transform="translate(1.695608, 0.061265)">
                <mask id="mask-2" fill="white">
                    <use xlink:href="#path-1"></use>
                </mask>
                <use id="蒙版" fill="#FFFFFF" fill-rule="nonzero" xlink:href="#path-1"></use>
                <g mask="url(#mask-2)" fill="#ACAEAC" fill-rule="nonzero">
                    <g transform="translate(88.575094, -50.953628)">
                        <polygon id="路径" points="30.2042415 40.299548 75.4097917 178.810637 74.7570312 178.954236 29.551481 40.443147"></polygon>
                        <polygon id="路径备份-30" points="18.2923977 12.4152618 63.4979478 150.926351 62.8451873 151.06995 17.6396372 12.5588608"></polygon>
                        <polygon id="路径备份-31" points="16.4315348 14.9719807 61.637085 153.48307 60.9843245 153.626669 15.7787743 15.1155797"></polygon>
                        <polygon id="路径备份-32" points="14.5079004 20.1079288 59.7134505 158.619018 59.06069 158.762617 13.8551399 20.2515279"></polygon>
                        <polygon id="路径备份-33" points="13.5146974 23.9655175 58.7202475 162.476606 58.067487 162.620205 12.8619369 24.1091165"></polygon>
                        <polygon id="路径备份-34" points="12.4116441 32.3367573 57.6171942 170.847846 56.9644337 170.991445 11.7588836 32.4803563"></polygon>
                        <polygon id="路径备份-35" points="12.2390222 39.4296376 57.4445723 177.940727 56.7918118 178.084326 11.5862617 39.5732367"></polygon>
                        <polygon id="路径备份-36" points="10.2369233 47.7896222 55.4424734 186.300711 54.7897129 186.44431 9.58416279 47.9332213"></polygon>
                        <polygon id="路径备份-37" points="9.14956289 55.5160547 54.355113 194.027144 53.7023525 194.170743 8.49680239 55.6596538"></polygon>
                        <polygon id="路径备份-38" points="4.61746823 50.9621266 52.5258414 201.081162 51.8783563 201.225114 3.96998311 51.1060784"></polygon>
                        <polygon id="路径备份-39" points="0.930970994 50.2885429 51.5406903 208.791275 50.8970036 208.935302 0.287284289 50.4325699"></polygon>
                        <polygon id="路径" points="36.3597454 49.3837153 77.9811114 180.15508 77.3408971 180.299537 35.719531 49.5281721"></polygon>
                        <polygon id="路径" points="39.9561253 50.7129194 80.6781798 178.904654 80.0378364 179.049119 39.3157819 50.8573848"></polygon>
                        <polygon id="路径" points="43.5493403 51.397218 83.3752481 178.298453 82.7379407 178.443607 42.9120329 51.5423717"></polygon>
                        <polygon id="路径" points="46.2359362 53.3656018 86.0566921 177.687867 85.4142326 177.832368 45.5934768 53.5101033"></polygon>
                        <polygon id="路径" points="50.73712 54.0612046 89.6606525 176.449094 89.0201522 176.593254 50.0966198 54.2053651"></polygon>
                        <polygon id="路径" points="53.4258655 56.0295884 92.3420964 175.838663 91.6942946 175.982016 52.7780637 56.1729416"></polygon>
                        <polygon id="路径" points="56.1041845 57.3474391 94.1244263 175.86585 93.4798179 176.010056 55.4595761 57.4916454"></polygon>
                        <polygon id="路径" points="58.8182423 58.0261592 96.8294095 174.610338 96.1757267 174.754059 58.1645594 58.1698809"></polygon>
                        <polygon id="路径" points="63.3013326 59.3665694 100.417677 174.015928 99.7683539 174.159753 62.6520095 59.5103946"></polygon>
                        <polygon id="路径" points="65.9831015 61.3349041 103.091275 174.049489 102.43378 174.193371 65.325607 61.4787862"></polygon>
                        <polygon id="路径" points="69.5785042 62.0192026 105.788343 173.443209 105.131697 173.587859 68.9218579 62.1638521"></polygon>
                        <polygon id="路径" points="73.172707 63.3484067 108.485411 172.193748 107.830813 172.337441 72.5181088 63.4920996"></polygon>
                        <polygon id="路径" points="75.8752509 64.0270777 111.182548 171.582162 110.522543 171.7263 75.2152457 64.1712162"></polygon>
                        <polygon id="路径" points="80.344917 64.7170038 113.879548 170.981685 113.245242 171.126416 79.7106107 64.8617346"></polygon>
                        <polygon id="路径" points="83.0407448 66.6854368 116.568838 169.726418 115.927995 169.870321 82.399901 66.82934"></polygon>
                        <polygon id="路径" points="85.7225038 68.0032875 118.351168 169.754702 117.710078 169.898361 85.0814135 68.1469463"></polygon>
                        <polygon id="路径" points="89.3390329 66.113788 121.978736 169.155856 121.348685 169.298672 88.7089817 66.256604"></polygon>
                        <polygon id="路径" points="91.1781554 62.9176438 124.715174 169.182278 124.083255 169.327055 90.5462367 63.0624208"></polygon>
                        <polygon id="路径" points="93.0497739 59.7272254 128.366419 167.927144 127.715761 168.071354 92.3991161 59.8714347"></polygon>
                        <polygon id="路径" points="94.8695561 57.8207449 131.079317 168.600013 130.422592 168.744495 94.2128318 57.9652274"></polygon>
                        <polygon id="路径" points="96.7269277 53.9742641 132.948026 166.68843 132.302639 166.832731 96.081541 54.1185646"></polygon>
                        <polygon id="路径" points="98.5671011 51.4230254 135.684464 166.072215 135.036159 166.216209 97.918796 51.5670198"></polygon>
                        <polygon id="路径" points="101.304235 48.8830419 139.319947 165.467358 138.670808 165.610942 100.655097 49.0266258"></polygon>
                        <polygon id="路径" points="103.117104 46.970983 141.141577 165.489906 140.501201 165.6336 102.476727 47.1146762"></polygon>
                        <polygon id="路径" points="104.103485 41.8347402 143.917316 164.22276 143.267931 164.36679 103.4541 41.9787706"></polygon>
                        <polygon id="路径" points="106.822044 39.9339364 146.637992 164.255699 145.990725 164.400703 106.174777 40.0789402"></polygon>
                        <polygon id="路径" points="108.666165 37.3827468 149.382276 162.995151 148.735989 163.139324 108.019878 37.5269204"></polygon>
                        <polygon id="路径" points="110.503651 34.1866027 152.118713 163.023215 151.472195 163.167708 109.857133 34.331095"></polygon>
                        <polygon id="路径" points="113.233714 31.6409916 154.855082 162.411914 154.21487 162.556813 112.593502 31.7858905"></polygon>
                        <polygon id="路径" points="115.958769 29.7402369 157.583605 161.802091 156.946861 161.94587 115.322025 29.8840158"></polygon>
                        <polygon id="路径" points="115.185316 22.0133133 160.390866 160.524402 159.738106 160.668001 114.532556 22.1569123"></polygon>
                        <polygon id="路径" points="117.913839 20.7574641 163.119389 159.268553 162.466628 159.412152 117.261078 20.9010632"></polygon>
                        <polygon id="路径" points="120.626668 20.1464223 165.832218 158.657511 165.179458 158.80111 119.973908 20.2900214"></polygon>
                        <polygon id="路径" points="124.222851 20.1914429 169.428401 158.702532 168.77564 158.846131 123.57009 20.335042"></polygon>
                        <polygon id="路径" points="126.036635 19.5691459 171.242185 158.080235 170.589425 158.223834 125.383874 19.712745"></polygon>
                        <polygon id="路径" points="128.749465 18.9581041 173.955015 157.469193 173.302254 157.612792 128.096704 19.1017031"></polygon>
                        <polygon id="路径" points="131.462294 18.3470622 176.667845 156.858151 176.015084 157.00175 130.809534 18.4906613"></polygon>
                        <polygon id="路径" points="135.058477 18.3920828 180.264027 156.903172 179.611266 157.046771 134.405716 18.5356819"></polygon>
                        <polygon id="路径" points="136.887954 17.1249786 182.093504 155.636067 181.440743 155.779667 136.235193 17.2685776"></polygon>
                        <polygon id="路径" points="139.600784 16.5139367 184.806334 155.025026 184.153573 155.168625 138.948023 16.6575358"></polygon>
                        <polygon id="路径" points="143.212659 15.91415 188.418209 154.425239 187.765449 154.568838 142.559898 16.0577491"></polygon>
                        <polygon id="路径" points="145.925489 15.3031082 191.131039 153.814197 190.478278 153.957796 145.272728 15.4467072"></polygon>
                        <polygon id="路径" points="148.622626 15.3368736 193.828176 153.847963 193.175415 153.991562 147.969865 15.4804727"></polygon>
                        <polygon id="路径" points="150.43641 14.7145766 195.64196 153.225666 194.989199 153.369265 149.783649 14.8581757"></polygon>
                        <polygon id="路径" points="154.048285 14.1147899 199.253835 152.625879 198.601075 152.769478 153.395524 14.258389"></polygon>
                        <polygon id="路径" points="156.776808 12.8589408 201.982358 151.37003 201.329597 151.513629 156.124047 13.0025398"></polygon>
                        <polygon id="路径" points="159.489637 12.247899 204.695187 150.758988 204.042427 150.902587 158.836877 12.391498"></polygon>
                        <polygon id="路径" points="161.287729 12.2704093 206.493279 150.781498 205.840518 150.925097 160.634968 12.4140083"></polygon>
                        <polygon id="路径" points="164.899604 11.6706226 210.105154 150.181712 209.452394 150.325311 164.246843 11.8142216"></polygon>
                        <polygon id="路径" points="167.628127 10.4147734 212.833677 148.925862 212.180916 149.069461 166.975366 10.5583725"></polygon>
                        <polygon id="路径" points="170.340956 9.80373158 215.546506 148.314821 214.893746 148.45842 169.688196 9.94733063"></polygon>
                        <polygon id="路径" points="172.139048 9.82624189 217.344598 148.337331 216.691837 148.48093 171.486287 9.96984094"></polygon>
                        <polygon id="路径" points="175.766616 8.5816479 220.972166 147.092737 220.319405 147.236336 175.113855 8.72524694"></polygon>
                        <polygon id="路径" points="178.479445 7.97060605 223.684996 146.481695 223.032235 146.625294 177.826685 8.1142051"></polygon>
                        <polygon id="路径" points="181.192275 7.35956421 226.397825 145.870653 225.745065 146.014252 180.539515 7.50316326"></polygon>
                        <polygon id="路径" points="183.920798 6.10371506 229.126348 144.614804 228.473587 144.758403 183.268037 6.24731411"></polygon>
                        <polygon id="路径" points="186.617935 6.13748052 231.823485 144.648569 231.170724 144.792169 185.965174 6.28107957"></polygon>
                        <polygon id="路径" points="189.330764 5.52643868 234.536315 144.037528 233.883554 144.181127 188.678004 5.67003773"></polygon>
                        <polygon id="路径" points="192.059287 4.27058953 237.264837 142.781678 236.612077 142.925278 191.406527 4.41418858"></polygon>
                        <polygon id="路径" points="194.772117 3.65954769 239.977667 142.170637 239.324906 142.314236 194.119356 3.80314674"></polygon>
                        <polygon id="路径" points="197.484947 3.04850585 242.690497 141.559595 242.037736 141.703194 196.832186 3.1921049"></polygon>
                        <polygon id="路径" points="200.182083 3.08227131 245.387633 141.59336 244.734873 141.736959 199.529323 3.22587036"></polygon>
                        <polygon id="路径" points="203.793959 2.48248462 248.999509 140.993574 248.346748 141.137173 203.141198 2.62608367"></polygon>
                        <polygon id="路径" points="205.607743 1.86018762 250.813293 140.371277 250.160532 140.514876 204.954982 2.00378667"></polygon>
                        <polygon id="路径" points="208.336265 0.604338475 253.541816 139.115427 252.889055 139.259026 207.683505 0.747937522"></polygon>
                        <polygon id="路径" points="211.033402 0.638103935 256.238952 139.149193 255.586192 139.292792 210.380642 0.781702982"></polygon>
                        <polygon id="路径" points="214.645278 0.0383172455 259.850828 138.549406 259.198067 138.693005 213.992517 0.181916292"></polygon>
                    </g>
                </g>
            </g>
            <path d="M71.577614,73.1961099 C71.3687335,72.713604 70.8958857,72.2944569 70.2443071,72.0142249 C69.6423259,71.7432302 68.8794867,71.6609706 68.1708332,71.7906348 C67.4621797,71.920299 66.8844736,72.2478418 66.6005696,72.6809292 C66.2815459,73.139393 66.2308724,73.655381 66.4577153,74.1355569 C66.8538979,75.0131823 68.013875,75.5998835 69.2176607,75.5998835 C69.4353819,75.6000684 69.652076,75.5808921 69.8614575,75.5429092 L69.8614575,75.5429092 C71.2728581,75.2810763 72.0423667,74.2301077 71.577614,73.1961099 Z M69.7052701,75.1877376 C69.0610473,75.2934086 68.3764893,75.1864281 67.882449,74.9028731 C68.5929111,73.7803853 69.8005063,73.2882363 70.9109605,73.0845884 C70.9567211,73.1529649 70.9961528,73.2229877 71.0290534,73.2942972 C71.4061888,74.1355569 70.8119149,74.9840898 69.7033654,75.1889498 L69.7052701,75.1877376 Z" id="形状" fill="#444444" fill-rule="nonzero"></path>
            <path d="M303.581499,75.5170189 L302.537661,43.4587473 L310.634264,41.3762851 L310.445268,35.8878189 L294.970406,35.9261526 L294.946201,35.1421187 L296.79079,35.1373164 L294.735638,29.9569768 L265.691207,30.0568809 L263.16251,35.2248652 L265.450267,35.2189092 L265.469022,35.9992322 L259.751488,36.0133955 L258.043344,35.5260523 L256.615929,35.7665774 L256.59239,34.6951635 L243.812297,31.0534017 L242.213372,31.3259125 L242.19931,30.5705891 L228.7642,26.7480511 L227.042134,27.0413668 L227.031219,26.3165325 L212.943193,22.3137954 L210.937595,22.6573211 L210.925699,21.6003745 L195.975086,17.3610844 L194.102016,17.6827023 L194.095409,16.7710917 L178.411633,12.3419577 L175.855563,12.7756695 L175.85172,11.4363704 L159.278267,6.75178687 L156.768207,7.18627063 L156.771902,5.07582325 L138.734587,0.00260288923 L112.531379,4.79393839 L112.420139,13.6301643 L90.0923059,17.0654939 L90.0650247,18.5733153 L64.4050989,21.6194021 L64.2510606,27.9166709 C6.71234172,22.135743 1.07886489,28.263728 0.603058645,29.0442583 L0.415861837,29.3547286 L0.485033769,29.7066763 C1.75311939,36.1622311 4.94982914,42.0194084 8.34610738,48.2253745 C15.1298213,60.5855156 22.8733622,74.6367242 19.1822161,98.9649508 L18.7563159,100.974016 C54.6871512,101.772111 75.5530663,102.205085 81.3540614,102.272936 C86.7326478,102.335847 92.6680164,102.426591 99.1680009,102.48354 C142.144468,102.84107 210.336587,101.593708 310.319796,98.2252148 L310.398713,98.2258071 L310.473,98.20628 C319.684605,95.7656249 324.471976,91.6107447 326.724456,87.9533348 C329.197138,83.9384015 329.448034,80.4899542 329.458161,80.3444861 L329.516679,79.4649363 L303.581499,75.5170189 Z M309.605708,40.2663408 L309.605708,42.0437248 L301.485915,43.9352529 L301.485915,74.4463336 L281.695615,71.7252238 L281.695615,67.8993638 L283.244454,68.1031922 L283.244454,44.8850934 L282.61911,44.7179541 L282.61911,43.9026403 L281.118672,43.9026403 L281.118672,44.3102972 L272.176058,41.9234661 L270.940858,42.1130265 L270.940858,41.8765855 L294.829776,41.8765855 L294.829776,40.2663408 L309.603772,40.2663408 L309.605708,40.2663408 Z M281.874271,49.935673 L281.874271,54.9368521 L272.882445,53.1243725 L272.882445,47.8428913 L281.874271,49.935673 Z M273.000142,47.6949002 L273.000142,43.3292893 L281.991967,45.8561978 L281.991967,49.7783446 L273.000142,47.6949002 Z M281.717342,56.1381036 L281.717342,61.3849252 L272.725516,59.9076438 L272.725516,54.2909644 L281.717342,56.1381036 Z M281.583952,61.6021912 L281.583952,66.5433345 L272.592126,65.2058821 L272.592126,60.0942792 L281.583952,61.6021912 Z M268.699774,40.0608003 L268.699774,36.2872045 L294.776068,36.2872045 L294.776068,38.936708 L294.776068,38.936708 L294.776068,40.8015432 L271.430836,40.8015432 L271.430836,40.7735906 L268.699774,40.0608003 Z M271.077124,54.218739 L271.077124,49.1755228 L271.976306,49.0594948 L271.976306,54.1447211 L271.077124,54.218739 Z M271.850763,54.2179532 L271.850763,59.3317502 L270.95158,59.3771974 L270.95158,54.3048957 L271.850763,54.2179532 Z M271.226206,47.7706168 L271.226206,43.4039143 L272.125389,43.2562782 L272.125389,47.6416951 L271.226206,47.7706168 Z M270.810276,60.0775787 L272.045542,60.0268465 L272.045542,65.1243298 L272.608641,65.1860907 L272.035396,65.122124 L271.997349,65.122124 L270.810276,65.0691861 L270.810276,60.0709615 L270.810276,60.0775787 Z M284.076443,35.099181 L295.314393,35.099181 L295.752483,35.7440865 L284.063109,35.7440865 L284.076443,35.099181 Z M274.480132,34.9584915 L283.165639,34.9584915 L283.152068,35.6033971 L274.173813,35.6033971 L274.480132,34.9584915 Z M268.52195,34.8628227 L274.174977,34.8628227 L273.85836,35.5077283 L267.880699,35.5077283 L268.52195,34.8628227 Z M259.585007,39.9462016 L261.397847,40.4499148 L269.476015,42.6935373 L269.476015,47.0359648 L259.586925,44.7545638 L259.586925,39.942004 L259.585007,39.9462016 Z M259.451617,45.1004133 L269.342626,47.4082727 L269.342626,52.8392796 L259.451617,50.83503 L259.451617,45.1025364 L259.451617,45.1004133 Z M259.318228,50.9136387 L269.209236,52.7847476 L269.209236,57.9976889 L259.318228,56.4912876 L259.318228,50.9037281 L259.318228,50.9136387 Z M269.951353,59.0395716 L269.951353,64.4570171 L260.060344,63.0040372 L260.060344,57.3630563 L269.951353,59.0395716 Z M257.842526,38.7586308 L258.741708,38.5737506 L258.741708,43.5829156 L257.842526,43.7329948 L257.842526,38.7477555 L257.842526,38.7586308 Z M257.669904,45.1815045 L258.569086,45.0217254 L258.569086,51.3549987 L257.669904,51.4707807 L257.669904,45.1583482 L257.669904,45.1815045 Z M258.427713,50.9508758 L259.326896,50.8362463 L259.326896,57.2234017 L258.427713,57.2853016 L258.427713,50.9279499 L258.427713,50.9508758 Z M258.286477,57.3390663 L259.18566,57.2844176 L259.18566,62.4436618 L259.168606,62.4436618 L259.145352,62.4436618 L258.286477,62.384965 L258.286477,57.3451384 L258.286477,57.3390663 Z M245.302213,35.2745576 L256.092403,38.2296987 L256.092403,42.9927152 L245.302213,40.5076631 L245.302213,35.2538489 L245.302213,35.2745576 Z M245.160977,41.0765443 L255.951167,43.4081134 L255.951167,48.7959809 L245.160977,46.7714018 L245.160977,41.0571146 L245.160977,41.0765443 Z M245.903093,47.5362555 L256.693284,49.6007457 L256.693284,55.2553091 L245.903093,53.5771678 L245.903093,47.5164428 L245.903093,47.5362555 Z M245.738318,54.6312795 L256.528509,56.3181365 L256.528509,61.703333 L245.738318,60.2654218 L245.738318,54.6093722 L245.738318,54.6312795 Z M243.536261,35.3664742 L244.435443,35.1696317 L244.435443,40.1714018 L243.536261,40.3288759 L243.536261,35.3448216 L243.536261,35.3664742 Z M243.379332,41.144032 L244.278514,40.9727992 L244.278514,47.2977106 L243.379332,47.4218544 L243.379332,41.1204875 L243.379332,41.144032 Z M244.105755,48.1995724 L245.004938,48.0769347 L245.004938,54.4583277 L244.105755,54.5259899 L244.105755,48.178428 L244.105755,48.1995724 Z M243.948826,54.5980589 L244.848009,54.5250077 L244.848009,60.9740629 L244.822162,60.9740629 L244.801757,60.9740629 L243.948826,60.8987288 L243.948826,54.5752304 L243.948826,54.5980589 Z M230.112526,31.218647 L241.00561,33.9569556 L241.8019,34.1504756 L241.8019,38.9381613 L230.112526,36.4611048 L230.112526,31.199295 L230.112526,31.218647 Z M229.939904,37.6472698 L241.629278,40.3851772 L241.629278,46.6759472 L229.939904,44.2824172 L229.939904,37.6515478 L229.939904,37.6472698 Z M230.666328,44.7731298 L242.355701,47.2040946 L242.355701,53.7800827 L230.666328,51.7922964 L230.666328,44.7514053 L230.666328,44.7731298 Z M230.509399,51.8685867 L242.198772,53.7140552 L242.198772,59.5832502 L230.509399,58.0322499 L230.509399,51.8443839 L230.509399,51.8685867 Z M228.330881,31.3559585 L230.129246,31.1149796 L230.129246,37.3620715 L228.330881,37.5640348 L228.330881,31.3674337 L228.330881,31.3559585 Z M228.166106,37.7577831 L229.964471,37.5630035 L229.964471,44.5153064 L228.166106,44.6569643 L228.166106,37.7378624 L228.166106,37.7577831 Z M227.993484,44.796228 L229.791849,44.6558838 L229.791849,51.6730939 L227.993484,51.7498446 L227.993484,44.7984209 L227.993484,44.796228 Z M227.844401,51.1782794 L229.642766,51.104006 L229.642766,57.5530612 L229.582738,57.5530612 L229.545219,57.5530612 L227.846902,57.4766657 L227.846902,51.1591805 L227.844401,51.1782794 Z M213.124749,26.5090717 L225.713304,29.891122 L225.713304,35.5060027 L213.132716,32.6149635 L213.132716,26.4773253 L213.124749,26.5090717 Z M214.758064,32.9651184 L227.34662,35.9120663 L227.34662,42.6214424 L214.758064,40.0326156 L214.758064,32.9478596 L214.758064,32.9651184 Z M214.577596,40.7040264 L227.166152,43.1613665 L227.166152,49.7142737 L214.585568,47.6808247 L214.585568,40.6855963 L214.577596,40.7040264 Z M214.389281,48.4497352 L226.977837,50.6187338 L226.977837,57.4519613 L214.389281,55.6532795 L214.389281,48.423284 L214.389281,48.4497352 Z M211.358865,26.6578002 L213.15723,26.3874806 L213.15723,32.609124 L211.358865,32.8365358 L211.358865,26.6578002 Z M212.077442,33.7129269 L213.875807,33.4915669 L213.875807,40.4247285 L212.077442,40.5855277 L212.077442,33.706662 L212.077442,33.7129269 Z M211.90482,40.7441184 L213.703185,40.5844473 L213.703185,47.589241 L211.90482,47.678408 L211.90482,40.7378975 L211.90482,40.7441184 Z M211.716505,48.4158781 L213.514871,48.3221349 L213.514871,55.4160957 L213.42077,55.4030152 L211.716505,55.3092721 L211.716505,48.4093379 L211.716505,48.4158781 Z M196.144817,21.7554048 L209.632556,25.38326 L209.632556,31.4289876 L196.144817,28.3349484 L196.144817,21.7554048 L196.144817,21.7554048 Z M196.871241,28.8675781 L210.358979,31.837573 L210.358979,38.5331231 L196.871241,35.9208137 L196.871241,28.8595403 L196.871241,28.8675781 Z M197.566279,37.2614589 L211.054017,39.9162315 L211.054017,46.9268732 L197.566279,44.7336226 L197.566279,37.2532903 L197.566279,37.2614589 Z M197.370118,45.643983 L210.857856,47.8278147 L210.857856,54.6645118 L197.372106,52.8779256 L197.372106,45.6358344 L197.370118,45.643983 Z M194.379002,21.9114138 L196.177367,21.6599324 L196.177367,28.5352138 L194.379002,28.7538932 L194.379002,21.9114138 Z M194.198534,28.9661319 L195.996899,28.7527636 L195.996899,36.3401385 L194.198534,36.4916299 L194.198534,28.9597308 L194.198534,28.9661319 Z M194.893572,37.2966393 L196.691937,37.1465137 L196.691937,44.8008023 L194.893572,44.88538 L194.893572,37.2966393 Z M194.69741,45.6092608 L196.495776,45.5290578 L196.495776,52.6230186 L196.374202,52.608983 L194.69741,52.5327901 L194.69741,45.6072558 L194.69741,45.6092608 Z M179.164886,17.0334842 L193.551807,20.8801698 L193.551807,27.3519726 L179.164886,24.0554111 L179.164886,17.0334842 Z M178.960878,25.4180008 L193.347799,28.6041171 L193.347799,35.7344675 L178.966881,32.9284209 L178.966881,32.9284209 L178.966881,25.4159791 L178.960878,25.4180008 Z M179.671609,33.1669762 L194.05853,36.0182726 L194.05853,43.4834103 L179.671609,41.1086995 L179.671609,33.1649219 L179.671609,33.1669762 Z M179.459755,42.1922733 L193.846676,44.5518832 L193.846676,51.8658562 L179.459755,49.9622194 L179.459755,42.1922733 Z M176.50794,17.2583089 L178.306305,16.9211782 L178.306305,23.728781 L176.50794,24.015139 L176.50794,17.2583089 Z M176.296086,25.58624 L178.094451,25.303624 L178.094451,32.8420535 L176.296086,33.0424904 L176.296086,25.5842356 L176.296086,25.58624 Z M177.006817,33.2519194 L178.805182,33.0525668 L178.805182,40.6758087 L177.006817,40.7914331 L177.006817,33.2499259 L177.006817,33.2519194 Z M176.787116,42.1984254 L178.585481,42.0798691 L178.585481,49.8187354 L178.490077,49.8023828 L176.787116,49.6797383 L176.787116,42.1963813 L176.787116,42.1984254 Z M159.511357,11.63304 L174.797461,15.4594551 L174.797461,21.9515284 L159.511357,18.657856 L159.511357,11.63304 Z M159.30735,19.3706294 L174.593453,22.9761408 L174.593453,30.9789288 L159.30735,27.7863272 L159.30735,19.3706294 L159.30735,19.3706294 Z M159.087649,28.3979316 L174.373753,31.6368545 L174.373753,40.0062311 L159.087649,37.309288 L159.087649,28.3979316 L159.087649,28.3979316 Z M160.66604,38.1108588 L175.952143,40.6378769 L175.952143,48.4111381 L160.66604,46.3879051 L160.66604,38.0926497 L160.66604,38.1108588 Z M156.846633,11.8484685 L158.644999,11.5150573 L158.644999,18.9702135 L156.846633,19.2539236 L156.846633,11.8484685 L156.846633,11.8484685 Z M156.642626,19.5536759 L158.440991,19.2526467 L158.440991,28.0615948 L156.642626,28.2813241 L156.642626,19.5536759 L156.642626,19.5536759 Z M157.321971,28.509499 L159.120336,28.2912041 L159.120336,37.1954534 L157.321971,37.3198815 L157.321971,28.5073161 L157.321971,28.509499 Z M157.985623,38.1005812 L159.783988,37.9745688 L159.783988,47.0032462 L159.697339,46.987771 L159.672816,46.987771 L157.992162,46.8683908 L157.992162,38.0983705 L157.985623,38.1005812 Z M138.966629,4.93157865 L155.151916,9.43393834 L155.151916,17.1847836 L138.966629,13.2783245 L138.966629,4.93157865 Z M138.746929,13.9588809 L154.932215,17.7947375 L154.932215,26.2120859 L138.746929,22.8130456 L138.746929,13.9588809 Z M138.511535,23.6309904 L154.696821,27.0780414 L154.696821,35.8841954 L138.511535,32.9872716 L138.511535,23.6309904 Z M140.066387,33.9704667 L156.251673,36.8398421 L156.251673,45.5787662 L140.066387,43.33068 L140.066387,33.9786416 L140.066387,33.9704667 Z M280.838673,68.3189213 L280.838673,71.952172 L123.756662,49.7388866 C116.540687,48.6411002 110.674295,44.1760651 107.296439,40.9967068 L280.838673,68.3189213 Z M102.668161,20.5685961 L108.962439,19.89509 L108.962439,28.568534 L102.668161,28.9237674 L102.668161,20.5685961 Z M95.4444102,21.7606783 L101.738688,21.0946634 L101.738688,29.7764134 L95.4444102,30.1233407 L95.4444102,21.7606783 L95.4444102,21.7606783 Z M103.324925,30.7894306 L103.324925,37.8833914 L97.0306473,37.4686553 L97.0306473,31.1093698 L103.324925,30.7894306 Z M103.308274,30.5881344 L109.602552,30.2232129 L109.602552,39.8967958 L104.700883,39.6120305 C104.110794,38.9560156 103.776411,38.5467973 103.760675,38.5257036 L103.546276,38.2514851 L103.310241,38.2346102 L103.310241,30.5881344 L103.308274,30.5881344 Z M116.818456,29.0235904 L116.818456,39.3420788 L110.524178,38.9611394 L110.524178,29.4003891 L116.818456,29.0235904 Z M109.868372,29.0138577 L109.868372,20.0702769 L116.16265,19.3402748 L116.16265,28.6235387 L109.868372,29.0138577 Z M135.84688,33.1809631 L135.84688,23.7347689 L137.645245,23.5073802 L137.645245,33.0492051 L135.84688,33.1809631 Z M139.19225,33.8468074 L139.19225,43.5203902 L137.393885,43.3786295 L137.393885,33.9758731 L139.19225,33.8468074 Z M135.570116,23.4807157 L135.570116,22.5219181 L131.586703,21.5973632 L131.586703,14.650361 L137.880981,13.8071328 L137.880981,23.2517171 L135.570116,23.4807157 Z M126.372966,7.61158377 L131.768061,6.64114305 L131.768061,14.8825214 L126.372966,15.6698204 L126.372966,7.61158377 Z M126.200344,15.7912371 L131.59544,15.0238344 L131.59544,21.4728897 L126.200344,20.1432722 L126.200344,15.7912371 L126.200344,15.7912371 Z M134.113067,23.6244926 L134.113067,31.7452279 L116.129416,28.5748038 L116.129416,19.4920229 L134.113067,23.6244926 Z M135.660072,32.559704 L135.660072,42.7295606 L117.67642,40.120838 L117.67642,29.1865446 L135.660072,32.559704 Z M138.108528,13.0015473 L131.81425,13.808557 L131.81425,5.77327994 L138.108528,4.77987964 L138.108528,13.0015473 L138.108528,13.0015473 Z M120.063954,8.15049122 L125.459049,7.20716428 L125.459049,15.4677658 L120.063954,16.2358416 L120.063954,8.15049122 Z M119.930564,15.7448658 L125.32566,14.9451957 L125.32566,19.4595344 L119.930564,18.0880332 L119.930564,15.7470995 L119.930564,15.7448658 Z M113.754942,8.73580185 L119.150037,7.77318551 L119.150037,16.0251311 L113.762699,16.8018629 L113.762699,8.73580185 L113.754942,8.73580185 Z M113.621552,17.8246875 L113.621552,17.513495 L119.016647,16.801028 L119.016647,18.7357446 L116.218257,18.0887917 L113.629309,18.3692744 L113.629309,17.8246875 L113.621552,17.8246875 Z M107.31254,18.4549561 L112.707635,18.0119547 L112.707635,18.3124356 L107.31254,18.6568603 L107.31254,18.4549561 Z M101.902573,19.1200717 L107.297669,18.5892311 L107.297669,18.8246728 L101.902573,19.2341366 L101.902573,19.1244588 L101.902573,19.1200717 Z M100.988588,19.1608799 L100.988588,19.3072565 L96.4926753,19.8057854 L100.988588,19.1608799 Z M89.135398,22.3529723 L95.4296759,21.6606846 L95.4296759,30.3242971 L89.135398,30.689362 L89.135398,22.3529723 Z M88.9470832,31.020567 L95.2413611,30.6881833 L95.2413611,37.1372386 L88.9470832,36.7116252 L88.9470832,31.0185403 L88.9470832,31.020567 Z M82.8263858,23.489846 L89.1206637,22.8716114 L89.1206637,30.2844633 L82.8263858,30.6104777 L82.8263858,23.4838823 L82.8263858,23.489846 Z M82.6537639,31.5609777 L88.9480418,31.2543028 L88.9480418,36.413547 C86.2475266,36.0021538 84.0123308,34.5435781 82.6537639,33.462736 L82.6537639,31.5534978 L82.6537639,31.5609777 Z M76.5174421,24.0551022 L81.9125375,23.432005 L81.9125375,30.8406299 L76.5174421,31.1708713 L76.5174421,24.0551022 Z M82.6936809,31.1982726 L82.6936809,33.1329891 C82.256042,32.5041393 82.0096402,32.0626065 82.0004461,32.0626065 L81.8165642,31.72276 L81.5168367,31.6745928 L79.9961332,31.4284048 L79.9961332,31.4284048 L82.6936809,31.1982726 Z M75.5046342,31.0920361 C73.6998002,30.882738 71.9370142,30.6838354 70.2162764,30.4953284 L70.2162764,24.5906248 L75.6113717,23.9980754 L75.6113717,31.0857988 L75.5007529,31.0857988 L75.5007529,31.0857988 L75.5046342,31.0920361 Z M65.7289632,24.5117396 L70.2248761,23.9362211 L70.2248761,30.3852764 C68.6932945,30.1903427 67.1946569,30.0046916 65.7289632,29.8283231 L65.7289632,24.5117396 Z M0.866315655,31.4996118 C1.6491022,30.9472301 4.48866042,29.5583197 13.5220172,28.9991185 C27.7609046,28.1239458 50.2621039,29.6810712 80.4091709,33.6204848 C80.8422769,34.1828596 81.3043149,34.7142405 81.7927462,35.2117078 C19.3890024,27.1760315 4.70196975,31.347309 1.34968635,33.2931475 C1.18138724,32.6998486 1.01700207,32.1020034 0.872186554,31.4996118 L0.866315655,31.4996118 Z M309.408777,95.2429079 C195.469412,99.6640052 123.397484,100.256354 83.0011017,99.9776018 C44.4957969,99.7111472 26.6712205,98.6207329 22.82069,98.3522286 C23.4266738,93.1303367 23.4581381,87.8526429 22.9144624,82.6232065 C34.2452979,82.9798457 143.017412,86.4109616 317.75257,91.959367 C315.12336,93.4394688 312.317193,94.5437826 309.408777,95.2429079 L309.408777,95.2429079 Z M318.881283,90.9384362 C143.424865,85.2952987 34.3312157,81.8198885 23.4807549,81.4655086 C22.9881394,77.2281732 22.0680797,73.0594115 20.7364446,69.0311254 C18.070153,60.9612107 14.0482853,54.273585 10.5023321,48.3713977 C7.47130278,43.3354725 4.58265773,38.5316558 2.87794755,33.4957306 C3.99751694,32.8843734 6.9232209,31.8295233 14.2277285,31.2907 C24.1322116,30.5632886 44.1966894,30.695922 83.6897921,35.3795397 C85.1819011,36.6084712 87.284507,37.9140815 89.7713554,38.2808958 L102.449406,39.2155469 L102.759531,39.2383433 C103.013092,39.5409133 103.473402,40.0673021 104.124859,40.7470484 L104.374519,41.0060981 L104.448637,41.0807044 L104.694396,41.329392 L104.797771,41.4330119 L105.049381,41.683772 L105.158608,41.7894642 C105.304243,41.927624 105.456379,42.0733826 105.615018,42.22674 L105.810065,42.419473 L106.026567,42.6267127 L106.266474,42.8463868 L106.484927,43.0411921 L106.757993,43.2815902 L106.972544,43.468106 L107.311926,43.7582416 L107.483567,43.9033094 C107.657809,44.0483772 107.835952,44.1948266 108.017996,44.3426576 L108.150628,44.4483498 L108.589483,44.7965126 L108.78453,44.9477976 L109.192178,45.2565847 L109.402829,45.4120145 L109.845586,45.7332361 L110.040632,45.8679419 C110.244782,46.0061017 110.452832,46.1504787 110.664783,46.3010729 L110.690139,46.3197245 C110.915093,46.4730819 111.144598,46.6250577 111.378654,46.7756519 L111.538593,46.8771993 C111.716736,46.991872 111.897479,47.105163 112.080823,47.2170725 L112.303177,47.3517783 L112.818101,47.6564207 L113.048256,47.7890541 C113.238102,47.8982004 113.433149,48.005965 113.633397,48.1123481 L113.808939,48.2014612 C114.069002,48.339621 114.329064,48.4777808 114.589127,48.6159406 L114.633988,48.638737 C114.879747,48.7616992 115.128107,48.882589 115.379067,49.0014065 L115.615074,49.1112435 C115.80752,49.1996658 116.002567,49.2867065 116.200215,49.3723656 L116.479132,49.4925646 C116.671578,49.5740789 116.866625,49.6542116 117.064272,49.7329627 L117.335388,49.8407273 C117.568144,49.9319128 117.8035,50.0196443 118.041458,50.1039218 L118.197495,50.1619489 C118.488765,50.2641872 118.782636,50.3622806 119.079107,50.4562293 L119.29756,50.522546 C119.522514,50.5916259 119.748768,50.6607058 119.976323,50.7297857 L120.290349,50.814754 C120.493197,50.8686364 120.697347,50.9204463 120.902796,50.9701838 L121.236326,51.0489349 C121.450878,51.0966 121.66543,51.1421928 121.881932,51.1857131 L122.180353,51.2458126 C122.496329,51.3059122 122.812305,51.3597945 123.134133,51.409532 L327.482852,79.7578533 C326.995235,81.7183411 325.173497,86.8806825 318.881283,90.9363638 L318.881283,90.9384362 Z" id="形状" fill="#444444" fill-rule="nonzero"></path>
        </g>
    </g>
</svg>