<?xml version="1.0" encoding="UTF-8"?>
<svg width="291px" height="146px" viewBox="0 0 291 146" version="1.1" xmlns="http://www.w3.org/2000/svg" xmlns:xlink="http://www.w3.org/1999/xlink">
    <!-- Generator: Sketch 60 (88103) - https://sketch.com -->
    <title>客船</title>
    <desc>Created with Sketch.</desc>
    <defs>
        <path d="M196.673871,105.972472 C169.310032,110.360171 142.370713,114.198692 120.109048,115.461146 C92.3436566,117.035714 72.0999673,116.443709 54.9169716,113.928571 C53.9268481,112.019425 54.4995669,97.247508 41.734572,74.8772502 C25.2258013,48.2744076 11.3142773,30.934306 0,23.4471951 C14.485378,24.5414226 35.8433042,25.8431764 68.8930191,29.5327424 C68.9467347,29.5904908 69.0156081,29.6264016 69.0884382,29.6346389 C107.590346,33.6824373 146.582974,38.2187218 154.0089,39.0484842 L154.043641,39.0492102 C154.159096,39.0515929 154.265907,38.9911018 154.324386,38.8902255 C154.382866,38.7893642 154.384273,38.6631773 154.328085,38.5585284 C155.359463,36.5522947 156.829449,33.9946253 158.177841,31.5824242 C141.169864,28.5598245 104.246508,25.4476885 70.9362345,27.3628864 L72.2737698,25.3286487 C106.986719,18.7427301 143.695114,23.8399949 160.740003,27.1844721 C162.088395,24.9702746 163.493241,22.8255742 164.865518,20.9597526 C147.173574,17.3485493 108.215688,10.9790143 75.7174889,20.1107758 L76.6316161,18.7405632 C77.9344102,18.3783496 79.2849734,18.0389236 80.6442219,17.7205581 C80.6790251,17.736277 80.7157475,17.7452789 80.7527881,17.7471721 C80.7787519,17.7517699 80.8049918,17.7529119 80.8309557,17.7505742 C112.399828,10.8184693 151.616102,16.4941151 167.032499,19.1200559 C167.212377,19.1502117 167.375695,19.0283418 167.397281,18.84787 C167.418866,18.6674081 167.290544,18.4965634 167.110666,18.4662595 C151.828891,15.8499702 113.142421,10.2188455 81.6365167,16.818765 L81.6365167,16.6705764 C81.6017755,16.0859593 81.5540064,15.3257671 81.5214366,14.7630104 C88.5174409,12.9225292 96.4232297,11.6921788 105.030356,11.0846541 C105.091404,11.1287287 105.163245,11.1499774 105.23446,11.1450287 C133.112083,9.36154754 162.173077,14.0225877 173.36842,16.0387105 L173.409676,16.0408092 C173.589554,16.061363 173.744609,15.932559 173.756002,15.7531268 C173.767394,15.5736998 173.630809,15.4114698 173.450931,15.3907663 C171.240523,14.995261 168.335293,14.4982901 164.882888,13.9697946 L165.16516,0.803553926 C168.552425,1.20788282 171.779012,1.65410036 174.797151,2.11451323 L174.512708,14.3298494 C174.509063,14.5086819 174.650682,14.6645251 174.829721,14.6786994 C175.007086,14.6880838 175.151872,14.5539721 175.15542,14.377015 L175.45072,2.21369853 C180.127751,2.93181276 184.279321,3.67814646 187.699156,4.33628895 L213.996054,16.9781255 L223.680157,21.4538766 L223.680157,21.5759177 L274.338512,43.1147421 C274.917531,44.2992674 275.455296,45.5063916 275.951805,46.7362731 L191.203672,14.2798845 L191.203672,16.9523793 L276.507664,48.1847729 C277.039638,49.5910633 277.526015,51.0250091 277.966793,52.4547945 L262.694332,48.3641462 L263.189393,53.3765083 L279.230503,57.0566485 C279.394077,57.7221055 279.548964,58.386647 279.695167,59.050299 L263.434753,55.8877036 L263.869018,60.324152 L280.468158,62.95594 C280.59699,63.6754711 280.71786,64.3904489 280.830769,65.1009011 L264.120891,62.903431 L264.624638,67.9910038 L281.42354,69.3884409 C282.265392,76.4718152 282.720817,84.7771815 282.3922,91.9332031 C276.937836,92.9572272 241.722415,99.1453629 196.673871,105.972472 Z" id="path-1"></path>
    </defs>
    <g id="页面-1" stroke="none" stroke-width="1" fill="none" fill-rule="evenodd">
        <g id="客船" transform="translate(0.000000, 1.000000)">
            <g id="编组-99">
                <path d="M289.617642,99.6827126 C288.397358,82.8954585 284.640968,72.0712477 281.703168,65.9035501 L281.566374,65.6166965 L259.853139,56.41912 L259.853139,46.2290559 L257.082531,44.9430192 L257.004363,44.9114392 C256.672151,44.8026699 248.803274,42.2672658 244.671246,45.3764263 L244.571365,45.4534042 L242.690999,48.8151486 L231.617249,43.748801 L231.617249,36.4168924 L194.18146,16.8378732 L194.038153,16.8080296 C183.049676,14.8004446 171.994457,13.4970834 160.94284,12.9345249 C146.347204,12.2531441 133.505997,13.2752027 122.773144,16.0583927 L122.742746,16.0563199 C122.004496,16.2830217 122.091349,17.0841716 122.210772,18.0114862 C122.271569,18.5264565 122.37145,19.2324942 122.5039,20.1147067 C122.616809,20.8641641 122.738403,21.6139705 122.829599,22.1779815 C118.666992,22.8201333 114.553141,23.7306486 110.507338,24.9086027 L110.407457,24.93912 L110.318433,24.9944706 C109.829885,25.2979611 109.85377,25.621338 109.960165,27.1791457 C110.007934,27.8668402 110.079587,28.8195788 110.177297,30.0082927 C110.275006,31.1967482 110.370545,32.3533815 110.437856,33.1382206 C101.683079,33.8449773 93.6513537,35.2069374 86.5532972,37.2034859 L85.9236134,37.3824325 L85.9236134,38.1282915 C85.9236134,38.1680707 85.9236134,38.1904465 86.0386935,40.121886 C84.6946443,40.4535943 83.363623,40.8093586 82.0738568,41.1828737 L81.8371826,41.2510535 L81.672162,41.4519463 C81.6417635,41.4907358 81.5961657,41.546427 78.9732069,45.6062838 L75.933354,50.3487654 L74.8476922,52.0463367 L74.7608393,52.0439926 L70.785146,51.6231263 L67.9624254,51.3226203 C47.4260478,49.1004603 24.771906,47.1905324 0,45.6142624 C12.3444495,55.15329 25.5135467,70.5238682 39.5072914,91.4342928 C60.4979085,121.632079 57.9765087,140.166784 58.0242778,140.260896 L58.2153543,140.644932 L58.5931646,140.716065 C75.4643481,143.875155 97.9614309,144.369776 125.469928,142.321833 L126.043158,142.279494 C148.236255,140.627692 173.708051,137.498861 201.757208,133.103563 C249.500269,126.070865 288.683973,118.143912 289.07264,118.067097 L289.756607,117.93409 L289.802204,117.30872 C289.813061,117.239601 290.345035,109.680735 289.617642,99.6827126 Z M256.576612,46.0561227 L258.530803,46.965781 L258.530803,55.8508994 L245.937127,50.2866917 L248.573114,45.1901179 C252.062431,44.6972901 256.140176,45.9193648 256.576612,46.0561227 Z M245.594058,46.2903298 C246.240562,45.8388861 246.978039,45.5157748 247.765382,45.3387394 L245.348698,50.0051484 L243.87437,49.335788 L245.594058,46.2903298 Z M193.708112,18.5227148 L229.88019,37.4015404 L229.88019,43.9625657 L220.456646,39.5423175 L194.116321,26.751895 C194.087909,26.7379924 194.057942,26.7280959 194.027296,26.7224952 C183.750422,24.7634956 166.861868,22.0983265 148.839883,21.7523349 L148.386076,14.6490387 C165.856545,14.2165929 183.001316,16.6235339 193.708112,18.5227148 Z M170.718139,23.9044091 L170.448894,37.4103187 C167.828107,37.0237086 164.909848,36.6238419 161.7636,36.2364591 L161.655034,23.057659 C164.753513,23.2918213 167.793366,23.5806844 170.718139,23.9044091 Z M161.09049,36.157154 C158.38285,35.8268996 155.505846,35.5101786 152.49422,35.2202557 L152.059956,22.5311862 C155.084609,22.6332511 158.068008,22.7972213 160.984095,23.0094147 L161.09049,36.157154 Z M151.842823,35.1570184 C149.202494,34.906448 146.464455,34.6688385 143.652591,34.485074 L143.122788,22.4333126 C145.904254,22.3979882 148.672691,22.4254646 151.408559,22.5093124 L151.842823,35.1570184 Z M147.736851,14.6749807 L148.188486,21.7508935 C140.417319,21.6252262 132.450733,21.9755198 124.720822,23.0558193 L124.692594,22.8850517 C124.366896,20.959686 124.041197,18.7946283 123.915261,17.7520906 C131.504036,15.8299676 139.648671,14.9209378 147.736851,14.6749807 Z M134.64377,22.7609914 C137.249358,22.5889618 139.865803,22.4872021 142.471391,22.4421023 L142.999023,34.4420084 C140.510686,34.2778652 137.965895,34.1363792 135.38202,34.0303607 L134.64377,22.7609914 Z M134.730623,33.9988739 C132.463761,33.9151746 130.170844,33.8609727 127.854041,33.8389852 L126.835691,23.4875092 C129.208224,23.192212 131.596679,22.9606777 134.001058,22.7924275 L134.730623,33.9988739 Z M124.002114,23.9465539 L124.853272,23.8185115 L124.853272,23.7566123 C125.30346,23.693019 125.753648,23.6310962 126.203836,23.5708414 L127.213501,33.8412597 C125.201408,33.8296602 123.179182,33.8448838 121.146823,33.8871179 C121.152695,33.8486204 121.152695,33.8090377 121.146823,33.7699746 L120.258752,24.5856193 C121.486273,24.3563146 122.734061,24.1433075 124.002114,23.9465539 Z M119.618211,24.7061862 L120.486741,33.8218685 C120.491453,33.8510088 120.499478,33.8795318 120.510625,33.9067522 C118.918321,33.9468308 117.326018,34.0072665 115.733714,34.088167 C115.745578,34.0434756 115.749267,33.9962467 115.74457,33.949183 L114.958551,25.7266284 C116.47124,25.3530911 118.02446,25.0129784 119.618211,24.7061862 Z M115.095345,33.9951135 C115.099475,34.0380625 115.110508,34.0801687 115.127914,34.1194212 C114.175427,34.1703766 113.223664,34.229588 112.272624,34.2970809 L112.246568,33.9891867 C111.996866,31.1247792 111.74065,27.9467609 111.658139,26.6036755 C112.528116,26.3498243 113.415464,26.1087748 114.320182,25.8805084 L115.095345,33.9951135 Z" id="形状" stroke="#333333" fill="#333333" fill-rule="nonzero"></path>
                <g id="编组-101" transform="translate(6.200033, 24.857143)">
                    <mask id="mask-2" fill="white">
                        <use xlink:href="#path-1"></use>
                    </mask>
                    <use id="蒙版" fill="#FFFFFF" fill-rule="nonzero" xlink:href="#path-1"></use>
                    <g mask="url(#mask-2)" fill-rule="nonzero" id="路径">
                        <g transform="translate(82.489288, -9.321429)">
                            <polygon fill="#ACAEAC" points="71.0491284 47.4135592 70.3883495 47.3513951 82.8642818 60.8272042 83.0582524 60.3874503"></polygon>
                            <polygon fill="#ACAEAC" points="72.4735874 47.4174573 71.7961165 47.3513951 82.8556647 59.3298921 83.0582524 58.8816127"></polygon>
                            <polygon fill="#ACAEAC" points="66.8617808 47.4167924 66.1650485 47.3513951 81.4482083 63.8218285 81.6504854 63.3543588"></polygon>
                            <polygon fill="#ACAEAC" points="65.4228432 47.4070012 64.7572816 47.3513951 81.4609404 65.3191406 81.6504854 64.8557558"></polygon>
                            <polygon fill="#ACAEAC" points="139.368932 24.8917132 126.452757 10.5232476 125.291262 9.91859188 138.270752 24.3574792"></polygon>
                            <polygon fill="#ACAEAC" points="74.8267592 44.3567708 74.6116505 44.7759251 86.554486 57.704505 87.2815534 57.83258"></polygon>
                            <polygon fill="#ACAEAC" points="186.681591 64.0039467 185.825243 63.8218285 189.230406 66.6643746 190.048544 66.8164527"></polygon>
                            <polygon fill="#ACAEAC" points="186.447229 66.5983191 187.23301 66.8164527 183.834454 62.5884311 183.009709 62.3245163"></polygon>
                            <polygon fill="#ACAEAC" points="73.4351863 45.8540829 73.2038835 46.2961118 84.190769 57.83258 84.3873764 57.4196958 84.4660194 57.4318395"></polygon>
                            <polygon fill="#ACAEAC" points="83.3180752 30.8809617 83.0582524 31.2542343 97.7212938 45.6741122 98.5436893 45.8540829"></polygon>
                            <polygon fill="#ACAEAC" points="140.776699 24.2394302 130.667431 13.487133 129.514563 12.9132161 140.776699 24.8917132"></polygon>
                            <polygon fill="#ACAEAC" points="115.829572 23.0115907 116.84466 23.394401 103.363577 9.98940073 102.76699 9.91859188 102.76699 10.0203796"></polygon>
                            <polygon fill="#ACAEAC" points="76.2437791 41.3621466 76.0194175 41.7953879 90.7465122 57.6994611 91.5048544 57.83258"></polygon>
                            <polygon fill="#ACAEAC" points="159.07767 39.8648344 148.968387 29.8825376 147.815534 29.3836495 158.030457 39.472527"></polygon>
                            <polygon fill="#ACAEAC" points="154.854369 38.3675223 144.701249 28.364236 143.592233 27.8863374 153.848979 37.9917202"></polygon>
                            <polygon fill="#ACAEAC" points="180.194175 48.8487072 172.837317 40.4124798 171.747573 39.8648344 179.204288 48.4180588"></polygon>
                            <polygon fill="#ACAEAC" points="140.776699 18.1938704 140.621327 18.0286153 139.368932 17.4051525 140.776699 18.9024646"></polygon>
                            <polygon fill="#ACAEAC" points="140.776699 21.3122175 136.179711 16.4224446 135.145631 15.9078404 140.776699 21.8970889"></polygon>
                            <path d="M183.009709,80.2922619 L199.902913,98.2600074 C199.902913,98.0411695 199.902913,97.820028 199.892084,97.5965829 L183.700597,80.3751899 L183.009709,80.2922619 Z" fill="#ACAEAC"></path>
                            <path d="M191.55182,50.2533799 L191.228392,50.1028407 L191.68423,50.5891979 C191.638646,50.4780305 191.595233,50.3645472 191.55182,50.2533799 Z" fill="#ACAEAC"></path>
                            <path d="M192.864078,54.8379557 C192.806608,54.6557947 192.744542,54.4736337 192.687072,54.2914727 L186.974628,47.9158376 L185.825243,47.3513951 L192.326165,54.6070474 L192.864078,54.8379557 Z" fill="#ACAEAC"></path>
                            <polygon fill="#ACAEAC" points="188.640777 51.8433314 182.617294 44.8709898 181.601942 44.3567708 187.720298 51.4389683"></polygon>
                            <polygon fill="#ACAEAC" points="185.825243 50.3460193 178.530346 43.3430298 177.378641 42.8594587 184.781152 49.9657565"></polygon>
                            <polygon fill="#ACAEAC" points="61.2257902 47.4094597 60.5339806 47.3513951 80.050176 66.8164527 80.2427184 66.3698016"></polygon>
                            <polygon fill="#ACAEAC" points="152.572816 48.5629233 153.446602 48.8487072 141.748786 35.7710414 140.776699 35.372898"></polygon>
                            <polygon fill="#ACAEAC" points="156.767656 48.5853198 157.669903 48.8487072 146.006266 37.2371515 145 36.8702102"></polygon>
                            <polygon fill="#ACAEAC" points="148.377936 47.0777267 149.223301 47.3513951 137.493866 34.2601372 136.553398 33.8755859"></polygon>
                            <polygon fill="#ACAEAC" points="160.485437 50.3460193 150.150011 38.7484226 149.223301 38.3675223 159.654521 50.0726123"></polygon>
                            <polygon fill="#ACAEAC" points="145.379746 34.9846125 146.407767 35.372898 134.871843 23.8881746 133.737864 23.394401"></polygon>
                            <polygon fill="#ACAEAC" points="145.49821 45.5872126 146.407767 45.8540829 133.341979 32.7500674 132.330097 32.3782738"></polygon>
                            <polygon fill="#ACAEAC" points="142.207275 51.0568302 148.395337 57.6385019 149.223301 57.83258 143.817585 52.0830178 143.147003 51.9010697 143.128756 51.3503732 142.184466 50.3460193"></polygon>
                            <polygon fill="#ACAEAC" points="81.8840611 33.8755859 81.6504854 34.2593977 91.1723773 44.3567708 91.3407201 44.039903 91.5048544 44.0778378"></polygon>
                            <polygon fill="#ACAEAC" points="80.2427184 35.7620728 89.8858016 45.8540829 90.0970874 45.4516408 80.47302 35.372898"></polygon>
                            <polygon fill="#ACAEAC" points="81.8984846 30.8809617 81.6504854 31.2855691 93.5215239 44.1639872 94.3203883 44.3567708"></polygon>
                            <polygon fill="#ACAEAC" points="139.368932 24.8917132 149.683028 36.4643176 150.631068 36.8702102 140.412608 25.4049107"></polygon>
                            <polygon fill="#ACAEAC" points="142.184466 66.8164527 137.320771 61.0007294 136.553398 60.8272042 141.441279 66.6718484"></polygon>
                            <polygon fill="#ACAEAC" points="121.067961 45.8540829 127.302863 51.676276 128.106796 51.8433314 121.907232 46.054137"></polygon>
                            <polygon fill="#ACAEAC" points="163.846575 51.5589971 164.708738 51.8433314 154.408162 40.2585282 153.446602 39.8648344"></polygon>
                            <polygon fill="#ACAEAC" points="169.454402 62.1454578 170.339806 62.3245163 165.635492 58.0492186 164.708738 57.83258"></polygon>
                            <polygon fill="#ACAEAC" points="180.194175 74.3030134 176.707939 69.9842474 175.970874 69.811077 179.478289 74.1587046"></polygon>
                            <polygon fill="#ACAEAC" points="172.471549 63.6383905 173.15534 63.8218285 169.649736 59.5546035 168.932039 59.3298921"></polygon>
                            <polygon fill="#ACAEAC" points="180.109949 69.192188 178.786408 68.3137648 178.870633 68.9326539 180.194175 69.811077"></polygon>
                            <polygon fill="#ACAEAC" points="171.747573 59.3298921 175.262122 63.6289086 175.970874 63.8218285 172.487478 59.5633013"></polygon>
                            <polygon fill="#ACAEAC" points="185.212906 71.4342778 184.417476 71.3083891 187.870417 74.1981061 188.640777 74.3030134"></polygon>
                            <polygon fill="#ACAEAC" points="178.787627 65.320437 179.099651 65.3930339 179.12159 65.6756435 180.194175 66.8164527 180.128357 66.0127008 175.491867 61.0812935 174.563107 60.8272042"></polygon>
                            <polygon fill="#ACAEAC" points="189.45502 72.9354748 188.640777 72.8057012 192.073232 75.6921808 192.864078 75.8003255"></polygon>
                            <polygon fill="#ACAEAC" points="157.669903 41.3621466 168.036187 51.5842908 168.932039 51.8433314 158.669036 41.7230323"></polygon>
                            <polygon fill="#ACAEAC" points="182.377695 69.9944213 181.601942 69.811077 185.07394 74.1502264 185.825243 74.3030134"></polygon>
                            <polygon fill="#ACAEAC" points="179.543046 69.9891357 178.786408 69.811077 182.276918 74.1546311 183.009709 74.3030134"></polygon>
                            <polygon fill="#ACAEAC" points="178.786408 61.2941991 182.250182 65.1318802 183.009709 65.3191406 178.955423 60.8272042 178.997155 61.3543074"></polygon>
                            <polygon fill="#ACAEAC" points="88.0825365 51.117966 87.3825655 50.9753466 87.5788988 50.5750922 77.6405903 39.8648344 77.4271845 40.2742902 93.5990767 57.7060627 94.3203883 57.83258"></polygon>
                            <polygon fill="#ACAEAC" points="119.660194 72.8057012 158.53911 114.730441 159.07767 114.661304 120.34408 72.8909703"></polygon>
                            <polygon fill="#ACAEAC" points="122.475728 72.8057012 161.34598 114.730441 161.893204 114.657834 123.174958 72.8970456"></polygon>
                            <polygon fill="#ACAEAC" points="92.9126214 68.3137648 137.412472 116.227753 137.961165 116.165443 93.5942008 68.3945369"></polygon>
                            <polygon fill="#ACAEAC" points="116.84466 71.3083891 157.118534 114.730441 157.669903 114.659966 117.533326 71.3882609"></polygon>
                            <polygon fill="#ACAEAC" points="128.106796 72.8057012 165.573107 113.233129 166.116505 113.158376 128.799574 72.8921345"></polygon>
                            <polygon fill="#ACAEAC" points="125.291262 72.8057012 164.152318 113.233129 164.708738 113.161921 126.000035 72.8906907"></polygon>
                            <polygon fill="#ACAEAC" points="104.174757 69.811077 147.258343 114.730441 147.815534 114.6641 104.87673 69.8957183"></polygon>
                            <polygon fill="#ACAEAC" points="109.805825 71.3083891 151.485669 114.730441 152.038835 114.664384 110.496736 71.3858349"></polygon>
                            <polygon fill="#ACAEAC" points="101.359223 69.811077 144.448516 116.227753 145 116.162509 102.059933 69.9066133"></polygon>
                            <polygon fill="#ACAEAC" points="95.7281553 68.3137648 140.22277 116.227753 140.776699 116.164594 96.4232819 68.4003155"></polygon>
                            <polygon fill="#ACAEAC" points="98.5436893 69.811077 143.03064 116.227753 143.592233 116.163413 99.2484331 69.8915019"></polygon>
                            <polygon fill="#ACAEAC" points="106.990291 69.811077 148.676135 114.730441 149.223301 114.663123 107.679634 69.8992862"></polygon>
                            <polygon fill="#ACAEAC" points="130.92233 74.3030134 168.379226 113.233129 168.932039 113.159879 131.627111 74.3877087"></polygon>
                            <polygon fill="#ACAEAC" points="114.029126 71.3083891 154.31152 114.730441 154.854369 114.661054 114.715734 71.4055302"></polygon>
                            <polygon fill="#ACAEAC" points="133.737864 21.8970889 120.799254 7.51660905 119.660194 6.92396762 132.660896 21.37347"></polygon>
                            <polygon fill="#ACAEAC" points="159.07767 77.2976376 189.520752 110.238504 190.048544 110.15758 159.761448 77.3831863"></polygon>
                            <polygon fill="#ACAEAC" points="135.145631 74.3030134 171.207944 113.233129 171.747573 113.158563 135.834197 74.3892296"></polygon>
                            <polygon fill="#ACAEAC" points="167.524272 77.2976376 196.550265 108.741192 197.087379 108.653658 168.222957 77.3851714"></polygon>
                            <polygon fill="#ACAEAC" points="154.854369 75.8003255 186.690742 110.238504 187.23301 110.15572 155.554069 75.8854748"></polygon>
                            <polygon fill="#ACAEAC" points="118.617327 15.4101 119.660194 15.9078404 106.261117 1.27790996 105.588769 0.934719115 105.582524 1.18018012"></polygon>
                            <polygon fill="#ACAEAC" points="164.708738 77.2976376 193.747094 108.741192 194.271845 108.658039 165.389208 77.3831009"></polygon>
                            <polygon fill="#ACAEAC" points="140.776699 74.3030134 175.432737 111.735817 175.970874 111.659091 141.465515 74.3890391"></polygon>
                            <polygon fill="#ACAEAC" points="144.4961 75.3016529 144.4961 75.2623546 143.592233 74.3030134 143.614013 74.9803314 178.244088 111.735817 178.786408 111.659532 144.535304 75.3062763"></polygon>
                            <polygon fill="#ACAEAC" points="152.038835 75.8003255 183.886397 110.238504 184.417476 110.157457 152.724097 75.8860041"></polygon>
                            <polygon fill="#ACAEAC" points="136.553398 74.3030134 172.605926 111.735817 173.15534 111.660494 137.250055 74.3783355"></polygon>
                            <polygon fill="#ACAEAC" points="146.407767 75.8003255 179.659654 111.735817 180.194175 111.656939 147.094701 75.8884823"></polygon>
                            <polygon fill="#ACAEAC" points="149.223301 75.8003255 182.464484 110.238504 183.009709 110.16138 149.923991 75.886523"></polygon>
                            <polygon fill="#ACAEAC" points="161.893204 77.2976376 192.324523 110.238504 192.864078 110.15338 162.594406 77.3874914"></polygon>
                            <polygon fill="#ACAEAC" points="14.0776699 42.8594587 88.1087699 120.719689 88.6893204 120.680667 14.7455212 42.9122531"></polygon>
                            <polygon fill="#ACAEAC" points="12.6699029 42.8594587 86.7039428 122.217001 87.2815534 122.177432 13.3343722 42.9129937"></polygon>
                            <polygon fill="#ACAEAC" points="18.3009709 42.8594587 90.9344289 120.719689 91.5048544 120.678155 18.9639559 42.9171449"></polygon>
                            <polygon fill="#ACAEAC" points="23.9320388 42.8594587 96.56145 120.719689 97.1359223 120.675366 24.6000806 42.9154464"></polygon>
                            <polygon fill="#ACAEAC" points="21.1165049 42.8594587 93.7491085 120.719689 94.3203883 120.67793 21.7894898 42.9151378"></polygon>
                            <polygon fill="#ACAEAC" points="9.85436893 42.8594587 83.8891252 122.217001 84.4660194 122.179947 10.5155286 42.912725"></polygon>
                            <polygon fill="#ACAEAC" points="129.514563 20.3997768 116.554202 6.0073887 115.436893 5.4266555 128.462361 19.8913437"></polygon>
                            <path d="M64.4306796,115.012889 L71.2259709,122.217001 L71.7961165,122.187898 L63.3495146,113.233129 C63.715534,113.822651 64.0759223,114.415905 64.4306796,115.012889 Z" fill="#ACAEAC"></path>
                            <path d="M59.2666339,106.533542 L74.0364262,122.217001 L74.6116505,122.187483 L57.7184466,104.249256 C58.234509,105.001602 58.7505715,105.76303 59.2666339,106.533542 Z" fill="#ACAEAC"></path>
                            <polygon fill="#ACAEAC" points="26.7475728 44.3567708 99.3759266 120.719689 99.9514563 120.673672 27.4193889 44.4142921"></polygon>
                            <path d="M50.760751,94.5083264 L76.8395486,122.217001 L77.4271845,122.184504 L47.8640777,90.7734468 C48.8310918,92.0021579 49.7966495,93.2471178 50.760751,94.5083264 Z" fill="#ACAEAC"></path>
                            <polygon fill="#ACAEAC" points="2.81553398 41.3621466 78.2506563 122.217001 78.8349515 122.181949 3.48049676 41.415894"></polygon>
                            <polygon fill="#ACAEAC" points="5.63106796 42.8594587 81.0655522 122.217001 81.6504854 122.18243 6.30144092 42.9124682"></polygon>
                            <polygon fill="#ACAEAC" points="29.5631068 44.3567708 100.791554 120.719689 101.359223 120.673409 30.2257472 44.4169355"></polygon>
                            <polygon fill="#ACAEAC" points="52.0873786 45.8540829 120.502994 119.222377 121.067961 119.166235 52.7614134 45.9149035"></polygon>
                            <polygon fill="#ACAEAC" points="57.7184466 45.8540829 124.732236 117.725065 125.291262 117.666975 58.3879778 45.9261142"></polygon>
                            <polygon fill="#ACAEAC" points="56.3106796 45.8540829 123.328367 117.725065 123.883495 117.667373 56.9669353 45.8979292"></polygon>
                            <polygon fill="#ACAEAC" points="80.2427184 66.8164527 127.550615 117.725065 128.106796 117.666844 80.9287479 66.8979624"></polygon>
                            <polygon fill="#ACAEAC" points="85.8737864 68.3137648 131.776636 117.725065 132.330097 117.664793 86.5650749 68.3995363"></polygon>
                            <polygon fill="#ACAEAC" points="83.0582524 68.3137648 130.359223 117.725065 130.92233 117.665555 83.7615882 68.4007405"></polygon>
                            <polygon fill="#ACAEAC" points="40.8252427 44.3567708 110.64764 119.222377 111.213592 119.171227 41.5039511 44.4218713"></polygon>
                            <polygon fill="#ACAEAC" points="38.0097087 44.3567708 107.835675 119.222377 108.398058 119.17155 38.6712088 44.4145286"></polygon>
                            <polygon fill="#ACAEAC" points="49.2718447 45.8540829 117.691292 119.222377 118.252427 119.168939 49.9456397 45.9121679"></polygon>
                            <polygon fill="#ACAEAC" points="32.3786408 44.3567708 103.605809 120.719689 104.174757 120.670798 33.0453097 44.4033336"></polygon>
                            <polygon fill="#ACAEAC" points="35.1941748 44.3567708 106.418002 119.222377 106.990291 119.17416 35.8669425 44.4141725"></polygon>
                            <polygon fill="#ACAEAC" points="88.6893204 68.3137648 134.587178 117.725065 135.145631 117.661654 89.3873867 68.40301"></polygon>
                            <polygon fill="#ACAEAC" points="46.4563107 45.8540829 114.8773 119.222377 115.436893 119.169295 47.119213 45.9140885"></polygon>
                            <polygon fill="#ACAEAC" points="133.230992 49.0672278 132.330097 48.8487072 138.505969 54.6573417 139.368932 54.8379557"></polygon>
                            <polygon fill="#ACAEAC" points="192.864078 65.3191406 196.287227 68.1661132 197.087379 68.3137648 197.067375 68.2264216 193.816758 65.5229414"></polygon>
                            <path d="M195.679612,72.8057012 L198.495146,75.8003255 C198.464183,75.561019 198.431156,75.319517 198.400194,75.0780151 L196.400009,72.9506024 L195.679612,72.8057012 Z" fill="#ACAEAC"></path>
                            <polygon fill="#ACAEAC" points="190.048544 65.3191406 193.420637 68.1544972 194.271845 68.3137648 190.939506 65.5118347"></polygon>
                            <polygon fill="#ACAEAC" points="191.456311 72.8057012 194.868085 75.6887372 195.679612 75.8003255 192.294248 72.9396072"></polygon>
                            <path d="M197.087379,81.789574 L198.495146,83.2868861 C198.468177,83.0000447 198.438511,82.6873876 198.411543,82.3862041 L197.950378,81.8957053 L197.087379,81.789574 Z" fill="#ACAEAC"></path>
                            <path d="M194.271845,81.789574 L198.495146,86.2815104 C198.478436,86.0595768 198.461727,85.8376431 198.442929,85.6001742 L194.944398,81.8761281 L194.271845,81.789574 Z" fill="#ACAEAC"></path>
                            <path d="M191.456311,81.789574 L198.495146,89.2761346 C198.483079,89.0622329 198.470342,88.8483312 198.456935,88.6344294 L192.101872,81.8751347 L191.456311,81.789574 Z" fill="#ACAEAC"></path>
                            <polygon fill="#ACAEAC" points="175.03007 46.94368 175.970874 47.3513951 168.562044 38.8860039 167.524272 38.3675223"></polygon>
                            <polygon fill="#ACAEAC" points="178.786408 48.8487072 186.396505 57.5526564 187.23301 57.83258 179.717019 49.2362937"></polygon>
                            <path d="M190.048544,54.8379557 L194.271845,59.3298921 C194.17746,58.9895939 194.080676,58.6492957 193.981493,58.3089974 L191.116367,55.261627 L190.048544,54.8379557 Z" fill="#ACAEAC"></path>
                            <polygon fill="#ACAEAC" points="181.601942 50.3460193 189.169376 59.0371591 190.048544 59.3298921 182.580016 50.7573596"></polygon>
                            <polygon fill="#ACAEAC" points="185.825243 53.3406436 193.345428 60.5668215 194.271845 60.8272042 186.853565 53.7011735"></polygon>
                            <polygon fill="#ACAEAC" points="150.051818 63.963747 149.223301 63.8218285 154.051965 68.1954994 154.854369 68.3137648"></polygon>
                            <polygon fill="#ACAEAC" points="146.407767 53.3406436 151.273733 59.1273329 152.038835 59.3298921 147.208602 53.5832144"></polygon>
                            <polygon fill="#ACAEAC" points="152.882041 65.4643256 152.038835 65.3191406 156.85335 69.6900895 157.669903 69.811077"></polygon>
                            <polygon fill="#ACAEAC" points="159.738626 66.9686436 159.07767 66.8164527 162.662741 71.1815634 163.300971 71.3083891"></polygon>
                            <path d="M188.640777,80.2922619 L199.902913,92.2707589 C199.902913,92.0289644 199.880179,91.78717 199.868812,91.5453755 L189.365973,80.374472 L188.640777,80.2922619 Z" fill="#ACAEAC"></path>
                            <polygon fill="#ACAEAC" points="147.220186 63.9606242 146.407767 63.8218285 151.252022 68.1981017 152.038835 68.3137648"></polygon>
                            <polygon fill="#ACAEAC" points="155.717074 65.467746 154.854369 65.3191406 159.649923 69.6872391 160.485437 69.811077"></polygon>
                            <polygon fill="#ACAEAC" points="142.376279 62.3245163 142.394546 62.8653347 142.184466 62.8200568 147.043717 68.175416 147.815534 68.3137648"></polygon>
                            <polygon fill="#ACAEAC" points="161.383861 58.0396702 160.485437 57.83258 165.258168 62.1515853 166.116505 62.3245163"></polygon>
                            <path d="M185.825243,80.2922619 L199.902913,95.2653831 C199.902913,95.0309886 199.88969,94.8106578 199.880875,94.5786072 L186.530448,80.3789878 L185.825243,80.2922619 Z" fill="#ACAEAC"></path>
                            <polygon fill="#ACAEAC" points="175.970874 72.8057012 172.469381 68.4823082 171.747573 68.3137648 175.271816 72.6652484"></polygon>
                            <polygon fill="#ACAEAC" points="154.291707 55.0316081 153.446602 54.8379557 158.268148 59.1681824 159.07767 59.3298921"></polygon>
                            <polygon fill="#ACAEAC" points="158.541677 56.5374772 157.669903 56.3352678 162.468095 60.660072 163.300971 60.8272042"></polygon>
                            <polygon fill="#ACAEAC" points="151.452491 53.593311 150.631068 53.3406436 155.4753 59.1210547 156.262136 59.3298921"></polygon>
                            <polygon fill="#ACAEAC" points="169.637607 68.477922 168.932039 68.3137648 172.47201 72.6689036 173.15534 72.8057012"></polygon>
                            <path d="M199.894344,100.600697 L180.879696,80.376567 L180.194175,80.2922619 L199.902913,101.254632 C199.898628,101.037413 199.895772,100.819435 199.894344,100.600697 Z" fill="#ACAEAC"></path>
                            <polygon fill="#ACAEAC" points="166.804893 66.9764461 166.116505 66.8164527 169.673177 71.1750613 170.339806 71.3083891"></polygon>
                            <polygon fill="#ACAEAC" points="161.893204 66.8164527 165.462599 71.1784278 166.116505 71.3083891 162.56839 66.9747693"></polygon>
                            <polygon fill="#ACAEAC" points="167.524272 44.3567708 158.771402 34.4225168 157.669903 33.8755859 166.525696 43.9266842"></polygon>
                            <polygon fill="#ACAEAC" points="171.021533 78.8803719 170.339806 78.7949497 197.973198 108.741192 198.495146 108.653461"></polygon>
                            <polygon fill="#ACAEAC" points="44.3128043 45.9114019 43.6407767 45.8540829 113.46183 119.222377 114.029126 119.169644"></polygon>
                            <path d="M178.060291,78.8787788 L177.378641,78.7949497 L199.902913,102.751944 C199.902913,102.54577 199.902913,102.335064 199.902913,102.117561 L178.060291,78.8787788 Z" fill="#ACAEAC"></path>
                            <polygon fill="#ACAEAC" points="125.291262 17.4051525 111.010953 3.00097786 109.805825 2.43203124 124.154093 16.9047537"></polygon>
                            <path d="M11.2621359,53.3406436 L0.667758837,41.416359 L-9.09494702e-13,41.3621466 L7.41321777,49.7059423 C8.61518368,50.8296194 9.90253514,52.0370795 11.2621359,53.3406436 Z" fill="#ACAEAC"></path>
                            <polygon fill="#ACAEAC" points="162.345294 42.4491294 163.300971 42.8594587 154.50078 32.9000798 153.446602 32.3782738"></polygon>
                            <path d="M173.15534,78.7949497 L198.478166,105.746568 C198.478166,105.550039 198.488778,105.342215 198.495146,105.125355 L173.83452,78.8785312 L173.15534,78.7949497 Z" fill="#ACAEAC"></path>
                            <polygon fill="#ACAEAC" points="183.009709 57.83258 174.191049 49.2192465 173.15534 48.8487072 182.078734 57.56661"></polygon>
                            <polygon fill="#ACAEAC" points="170.929952 53.0704147 171.747573 53.3406436 162.802806 43.2336217 161.893204 42.8594587"></polygon>
                            <polygon fill="#ACAEAC" points="175.118604 54.5555286 175.970874 54.8379557 167.064655 44.7478238 166.116505 44.3567708"></polygon>
                            <polygon fill="#ACAEAC" points="179.166902 55.2449823 179.226042 55.26129 179.230422 55.3102131 180.194175 56.3352678 180.135035 55.6130702 171.31451 46.2338191 170.339806 45.8540829"></polygon>
                            <polygon fill="#ACAEAC" points="171.747573 45.8540829 163.046741 37.3627225 161.893204 36.8702102 170.701822 45.4667891"></polygon>
                            <polygon fill="#ACAEAC" points="142.184466 33.8755859 130.60522 20.9303396 129.514563 20.3997768 141.191773 33.4545429"></polygon>
                            <polygon fill="#ACAEAC" points="105.582524 3.05323926 114.371039 12.4189703 115.436893 12.9132161 105.599544 2.43203124"></polygon>
                            <polygon fill="#ACAEAC" points="128.512781 27.5035769 129.514563 27.8863374 116.537535 14.8900788 115.436893 14.4105283"></polygon>
                            <polygon fill="#ACAEAC" points="105.582524 6.0873227 110.085577 10.8897727 111.213592 11.415904 105.600536 5.4266555"></polygon>
                            <polygon fill="#ACAEAC" points="132.704474 28.9905104 133.737864 29.3836495 120.795563 16.4055136 119.660194 15.9078404"></polygon>
                            <path d="M104.174757,7.89184342 L104.491409,7.93320563 C104.545255,7.94036475 104.597908,7.95568021 104.647828,7.97870407 L105.582524,8.42127975 L104.201463,6.92396762 L104.174757,7.89184342 Z" fill="#ACAEAC"></path>
                            <polygon fill="#ACAEAC" points="137.000973 31.9716254 137.961165 32.3782738 126.348316 19.4148886 125.291262 18.9024646"></polygon>
                            <polygon fill="#ACAEAC" points="103.577199 54.98175 102.76699 54.8379557 109.021153 60.7073757 109.805825 60.8272042"></polygon>
                            <polygon fill="#ACAEAC" points="84.4660194 26.7588393 94.0974388 36.8702102 94.3203883 36.4535842 84.7335588 26.3890253"></polygon>
                            <polygon fill="#ACAEAC" points="98.00435 40.0797386 97.1359223 39.8648344 104.750662 47.1737702 105.582524 47.3513951"></polygon>
                            <polygon fill="#ACAEAC" points="87.2815534 26.3890253 95.5125147 35.372898 95.7281553 34.9798814 88.0139177 26.5599986"></polygon>
                            <polygon fill="#ACAEAC" points="94.3203883 21.8970889 103.317296 32.0940136 104.174757 32.3782738 95.111396 22.1084619"></polygon>
                            <polygon fill="#ACAEAC" points="100.837382 40.0844342 99.9514563 39.8648344 107.551766 47.1698891 108.398058 47.3513951"></polygon>
                            <polygon fill="#ACAEAC" points="91.5048544 25.5137346 96.9264944 32.3782738 97.1359223 31.9445935 91.5635725 24.8917132"></polygon>
                            <polygon fill="#ACAEAC" points="114.831874 44.5973226 114.029126 44.3567708 120.301125 51.644508 121.067961 51.8433314"></polygon>
                            <polygon fill="#ACAEAC" points="119.072905 44.6032212 118.252427 44.3567708 124.505331 51.6421474 125.291262 51.8433314"></polygon>
                            <polygon fill="#ACAEAC" points="104.927998 41.5865831 104.174757 41.3621466 110.492067 48.6632035 111.213592 48.8487072"></polygon>
                            <polygon fill="#ACAEAC" points="98.5436893 23.394401 107.564532 33.5997032 108.398058 33.8755859 99.3126177 23.5971866"></polygon>
                            <polygon fill="#ACAEAC" points="126.150208 47.5586501 125.291262 47.3513951 131.509578 53.1693409 132.330097 53.3406436"></polygon>
                            <polygon fill="#ACAEAC" points="109.167109 43.0867502 108.398058 42.8594587 114.700224 50.1562192 115.436893 50.3460193"></polygon>
                            <polygon fill="#ACAEAC" points="111.99913 43.0943876 111.213592 42.8594587 117.502032 50.1518434 118.252427 50.3460193"></polygon>
                            <polygon fill="#ACAEAC" points="101.359223 24.8917132 110.4027 35.1050303 111.213592 35.372898 102.107271 25.0886074"></polygon>
                            <polygon fill="#ACAEAC" points="132.907078 41.0924229 133.737864 41.3621466 120.586521 26.7624888 119.660194 26.3890253"></polygon>
                            <polygon fill="#ACAEAC" points="124.835267 28.2714216 123.883495 27.8863374 137.10564 42.5813423 137.961165 42.8594587"></polygon>
                            <polygon fill="#ACAEAC" points="111.213592 23.394401 125.837167 39.5849854 126.699029 39.8648344 112.176977 23.7818844"></polygon>
                            <polygon fill="#ACAEAC" points="128.986361 49.0592752 128.106796 48.8487072 134.305415 54.6621206 135.145631 54.8379557"></polygon>
                            <polygon fill="#ACAEAC" points="96.8920137 33.8755859 97.1359223 33.4292327 90.9231553 26.5817687 90.0970874 26.3890253"></polygon>
                            <polygon fill="#ACAEAC" points="99.1107893 30.6173927 99.9514563 30.8809617 91.5721077 21.8970889 91.5048544 22.4625232"></polygon>
                            <polygon fill="#ACAEAC" points="130.034022 39.6030118 130.92233 39.8648344 116.425136 25.2564746 115.436893 24.8917132"></polygon>
                            <polygon fill="#ACAEAC" points="102.76699 19.557624 118.782654 36.5964472 119.660194 36.8702102 102.771389 18.9024646"></polygon>
                            <polygon fill="#ACAEAC" points="142.184466 56.3352678 137.292281 50.5683527 136.553398 50.3460193 141.476694 56.149608"></polygon>
                            <polygon fill="#ACAEAC" points="102.76699 16.5795273 121.638977 38.0878519 122.475728 38.3675223 102.773282 15.9078404"></polygon>
                            <polygon fill="#ACAEAC" points="102.76699 22.5299682 114.589401 35.1084449 115.436893 35.372898 102.773362 21.8970889"></polygon>
                            <polygon fill="#ACAEAC" points="102.76699 15.1127852 108.398058 21.8970889 108.398058 21.1873078 102.771155 14.4105283"></polygon>
                            <polygon fill="#ACAEAC" points="140.150963 62.4574019 139.368932 62.3245163 144.242618 66.7057147 145 66.8164527"></polygon>
                            <polygon fill="#ACAEAC" points="102.76699 12.0888533 111.591427 21.4813024 112.621359 21.8970889 102.773766 11.415904"></polygon>
                            <polygon fill="#ACAEAC" points="110.641956 56.4841531 109.805825 56.3352678 116.037279 62.2004453 116.84466 62.3245163"></polygon>
                            <polygon fill="#ACAEAC" points="114.708906 56.4868362 114.029126 56.3352678 119.00184 62.1982093 119.660194 62.3245163"></polygon>
                            <polygon fill="#ACAEAC" points="117.535917 57.98693 116.84466 57.83258 121.80824 63.6932034 122.475728 63.8218285"></polygon>
                            <polygon fill="#ACAEAC" points="107.813257 56.4815633 106.990291 56.3352678 113.232099 62.2026034 114.029126 62.3245163"></polygon>
                            <polygon fill="#ACAEAC" points="120.361057 57.9898156 119.660194 57.83258 124.610539 63.6907988 125.291262 63.8218285"></polygon>
                            <polygon fill="#ACAEAC" points="94.1290173 38.0527225 93.9820272 38.0113116 94.0225027 37.9376921 84.7152634 27.8863374 84.4660194 28.2659377 100.583798 45.6677337 101.359223 45.8540829"></polygon>
                            <polygon fill="#ACAEAC" points="130.252925 59.4965406 129.514563 59.3298921 134.430608 65.1802668 135.145631 65.3191406"></polygon>
                            <polygon fill="#ACAEAC" points="143.559109 72.1860509 142.184466 71.3083891 142.21759 71.9280395 143.592233 72.8057012"></polygon>
                            <polygon fill="#ACAEAC" points="133.083641 60.9972216 132.330097 60.8272042 137.231372 66.6747716 137.961165 66.8164527"></polygon>
                            <polygon fill="#ACAEAC" points="142.184466 68.3137648 142.21759 68.9334152 143.592233 69.811077 143.559109 69.1914266"></polygon>
                            <polygon fill="#ACAEAC" points="127.426358 59.4933027 126.699029 59.3298921 131.625693 65.182965 132.330097 65.3191406"></polygon>
                            <polygon fill="#ACAEAC" points="124.598389 59.4877595 123.883495 59.3298921 128.82425 65.1855604 129.514563 65.3191406"></polygon>
                            <polygon fill="#ACAEAC" points="100.749039 54.9792823 99.9514563 54.8379557 106.217848 60.7094321 106.990291 60.8272042"></polygon>
                            <polygon fill="#ACAEAC" points="142.184466 47.3513951 142.21759 47.9719219 143.592233 48.8487072 143.559109 48.2281804"></polygon>
                            <polygon fill="#ACAEAC" points="97.9195162 53.4796346 97.1359223 53.3406436 103.41368 59.2140662 104.174757 59.3298921"></polygon>
                            <polygon fill="#ACAEAC" points="141.302683 44.0984697 142.184466 44.3567708 129.08778 31.240817 128.106796 30.8809617"></polygon>
                            <polygon fill="#ACAEAC" points="143.559109 60.205439 142.184466 59.3298921 142.220902 59.9495424 143.592233 60.8272042"></polygon>
                            <polygon fill="#ACAEAC" points="111.213592 11.415904 124.319212 25.9792246 125.291262 26.3890253 112.281568 11.9323002"></polygon>
                            <polygon fill="#ACAEAC" points="142.184466 56.3352678 142.21759 56.9549182 143.592233 57.83258 143.559109 57.2129296"></polygon>
                            <polygon fill="#ACAEAC" points="140.126922 50.5770096 139.368932 50.3460193 144.273925 56.1443473 145 56.3352678"></polygon>
                            <polygon fill="#ACAEAC" points="142.184466 44.3567708 142.21759 44.9764212 143.592233 45.8540829 143.559109 45.2344326"></polygon>
                            <polygon fill="#ACAEAC" points="90.8597553 52.0115115 90.0970874 51.8433314 96.3972926 59.189742 97.1359223 59.3298921"></polygon>
                            <polygon fill="#ACAEAC" points="120.124068 24.4942983 121.067961 24.8917132 108.027332 10.4216777 106.990291 9.91859188"></polygon>
                            <polygon fill="#ACAEAC" points="93.6865827 53.4773749 92.9126214 53.3406436 99.2018891 59.2159493 99.9514563 59.3298921"></polygon>
                            <polygon fill="#ACAEAC" points="88.6893204 46.9475128 79.0614405 36.8702102 78.8349515 37.2543374 88.4817055 47.3513951"></polygon>
                            <polygon fill="#ACAEAC" points="77.4271845 38.7533729 87.0732598 48.8487072 87.2815534 48.447597 77.6500586 38.3675223"></polygon>
                            <polygon fill="#333333" points="143.592233 66.8164527 143.852021 74.4403457 180.194175 78.7949497 179.687588 72.8590774"></polygon>
                            <path d="M141.78072,43.9108668 L97.0176999,30.5038967 C97.0176999,30.5038967 95.2488724,33.6385998 92.6996013,38.4712803 L142.139081,51.2591584 L141.78072,43.9108668 Z" fill="#333333"></path>
                            <polygon fill="#333333" points="179.749705 64.5943446 143.592233 56.3352678 143.811183 62.7437537 180.194175 69.811077"></polygon>
                            <path d="M143.411214,56.397447 L91.0904602,44.3299353 C89.863687,46.8289137 88.562725,49.5421062 87.2519016,52.3657331 L143.74169,63.2290302 L143.411214,56.397447 Z" fill="#333333"></path>
                            <polygon fill="#333333" points="178.280716 54.9972184 142.184466 44.3567708 142.429583 51.415528 178.786408 60.8272042"></polygon>
                            <path d="M84.7974934,56.5470051 C83.2255325,59.9766757 81.7125225,63.4616675 80.3953032,66.8101652 L143.912417,73.6946508 L143.522644,65.8119388 L84.7974934,56.5470051 Z" fill="#333333"></path>
                        </g>
                    </g>
                </g>
                <path d="M153.715531,14.5980541 L156.811767,1.33094411 C163.552379,-0.665472057 168.095825,-0.415920035 170.442103,2.07960018 C171.94119,4.6860324 173.77423,8.22951593 175.941222,12.7100508" id="路径-106" stroke="#333333" stroke-width="2" transform="translate(164.828376, 7.299027) scale(-1, 1) translate(-164.828376, -7.299027) "></path>
            </g>
            <g id="编组-100备份" transform="translate(226.643262, 96.435115) rotate(-17.000000) translate(-226.643262, -96.435115) translate(172.920240, 71.577972)" fill="#333333">
                <path d="M1.62140377,6.21428571 C2.88137016,6.21428571 4.25882604,4.82317047 4.69803761,3.10714286 C5.13724918,1.39111524 4.47189594,0 3.21192956,0 C1.95196318,0 0.574507289,1.39111524 0.13529572,3.10714286 C-0.303915848,4.82317047 0.361437392,6.21428571 1.62140377,6.21428571 Z" id="椭圆形"></path>
                <path d="M9.35473711,10.3571429 C10.6147035,10.3571429 11.9921594,8.96602762 12.4313709,7.25 C12.8705825,5.53397238 12.2052293,4.14285714 10.9452629,4.14285714 C9.68529651,4.14285714 8.30784062,5.53397238 7.86862905,7.25 C7.42941749,8.96602762 8.09477073,10.3571429 9.35473711,10.3571429 Z" id="椭圆形备份-21"></path>
                <path d="M17.0880704,13.4642857 C18.3480368,13.4642857 19.7254927,12.0731705 20.1647043,10.3571429 C20.6039158,8.64111524 19.9385626,7.25 18.6785962,7.25 C17.4186298,7.25 16.041174,8.64111524 15.6019624,10.3571429 C15.1627508,12.0731705 15.8281041,13.4642857 17.0880704,13.4642857 Z" id="椭圆形备份-22"></path>
                <path d="M25.7880704,16.5714286 C27.0480368,16.5714286 28.4254927,15.1803133 28.8647043,13.4642857 C29.3039158,11.7482581 28.6385626,10.3571429 27.3785962,10.3571429 C26.1186298,10.3571429 24.741174,11.7482581 24.3019624,13.4642857 C23.8627508,15.1803133 24.5281041,16.5714286 25.7880704,16.5714286 Z" id="椭圆形备份-23"></path>
                <path d="M33.5214038,19.6785714 C34.7813702,19.6785714 36.158826,18.2874562 36.5980376,16.5714286 C37.0372492,14.855401 36.3718959,13.4642857 35.1119296,13.4642857 C33.8519632,13.4642857 32.4745073,14.855401 32.0352957,16.5714286 C31.5960842,18.2874562 32.2614374,19.6785714 33.5214038,19.6785714 Z" id="椭圆形备份-24"></path>
                <path d="M42.2214038,23.8214286 C43.4813702,23.8214286 44.858826,22.4303133 45.2980376,20.7142857 C45.7372492,18.9982581 45.0718959,17.6071429 43.8119296,17.6071429 C42.5519632,17.6071429 41.1745073,18.9982581 40.7352957,20.7142857 C40.2960842,22.4303133 40.9614374,23.8214286 42.2214038,23.8214286 Z" id="椭圆形备份-25"></path>
                <path d="M49.6304564,26.9285714 C50.6384295,26.9285714 51.7403942,25.7693087 52.0917634,24.3392857 C52.4431327,22.9092627 51.9108501,21.75 50.902877,21.75 C49.8949039,21.75 48.7929392,22.9092627 48.4415699,24.3392857 C48.0902007,25.7693087 48.6224832,26.9285714 49.6304564,26.9285714 Z" id="椭圆形备份-26"></path>
                <path d="M57.3637897,30.0357143 C58.3717628,30.0357143 59.4737275,28.8764516 59.8250968,27.4464286 C60.176466,26.0164056 59.6441834,24.8571429 58.6362103,24.8571429 C57.6282372,24.8571429 56.5262725,26.0164056 56.1749032,27.4464286 C55.823534,28.8764516 56.3558166,30.0357143 57.3637897,30.0357143 Z" id="椭圆形备份-27"></path>
                <path d="M66.0637897,33.1428571 C67.0717628,33.1428571 68.1737275,31.9835944 68.5250968,30.5535714 C68.876466,29.1235484 68.3441834,27.9642857 67.3362103,27.9642857 C66.3282372,27.9642857 65.2262725,29.1235484 64.8749032,30.5535714 C64.523534,31.9835944 65.0558166,33.1428571 66.0637897,33.1428571 Z" id="椭圆形备份-28"></path>
                <path d="M73.797123,37.2857143 C74.8050961,37.2857143 75.9070608,36.1264516 76.2584301,34.6964286 C76.6097993,33.2664056 76.0775168,32.1071429 75.0695436,32.1071429 C74.0615705,32.1071429 72.9596058,33.2664056 72.6082366,34.6964286 C72.2568673,36.1264516 72.7891499,37.2857143 73.797123,37.2857143 Z" id="椭圆形备份-29"></path>
                <path d="M81.8485615,39.3571429 C82.3525481,39.3571429 82.9035304,38.4297327 83.079215,37.2857143 C83.2548997,36.1416959 82.9887584,35.2142857 82.4847718,35.2142857 C81.9807853,35.2142857 81.4298029,36.1416959 81.2541183,37.2857143 C81.0784337,38.4297327 81.344575,39.3571429 81.8485615,39.3571429 Z" id="椭圆形备份-30"></path>
                <path d="M89.5818948,43.5 C90.0858814,43.5 90.6368638,42.5725898 90.8125484,41.4285714 C90.988233,40.284553 90.7220917,39.3571429 90.2181052,39.3571429 C89.7141186,39.3571429 89.1631362,40.284553 88.9874516,41.4285714 C88.811767,42.5725898 89.0779083,43.5 89.5818948,43.5 Z" id="椭圆形备份-31"></path>
                <path d="M97.3152282,46.6071429 C97.8192147,46.6071429 98.3701971,45.6797327 98.5458817,44.5357143 C98.7215663,43.3916959 98.455425,42.4642857 97.9514385,42.4642857 C97.4474519,42.4642857 96.8964696,43.3916959 96.720785,44.5357143 C96.5451003,45.6797327 96.8112416,46.6071429 97.3152282,46.6071429 Z" id="椭圆形备份-32"></path>
                <path d="M106.015228,49.7142857 C106.519215,49.7142857 107.070197,48.7868756 107.245882,47.6428571 C107.421566,46.4988387 107.155425,45.5714286 106.651438,45.5714286 C106.147452,45.5714286 105.59647,46.4988387 105.420785,47.6428571 C105.2451,48.7868756 105.511242,49.7142857 106.015228,49.7142857 Z" id="椭圆形备份-33"></path>
            </g>
            <line x1="168.992806" y1="1.03571429" x2="167.94964" y2="13.4642857" id="路径-107" stroke="#333333"></line>
            <path d="M87.285311,95.065917 C86.7602674,93.7744145 85.5717138,92.6525019 83.9339009,91.9024169 C82.4207566,91.1770574 80.5032786,90.9568766 78.722002,91.3039432 C76.9407254,91.6510097 75.488599,92.5277293 74.7749758,93.6869554 C73.9730756,94.9141053 73.8457022,96.2952278 74.4158961,97.5804939 C75.4117437,99.9295955 78.3274705,101.499993 81.3533151,101.499993 C81.9005807,101.500488 82.4452647,101.449159 82.9715674,101.347492 L82.9715674,101.347492 C86.5192744,100.646656 88.4535169,97.8335739 87.285311,95.065917 Z M82.2723073,100.348426 C80.7409548,100.654836 79.1137233,100.344628 77.9393628,99.5224137 C79.6281698,96.2675757 82.4986889,94.8405085 85.1382987,94.2499979 C85.247074,94.4482669 85.3408054,94.6513093 85.419012,94.8580832 C86.3154832,97.2974542 84.9028618,99.757915 82.2677796,100.35194 L82.2723073,100.348426 Z" id="形状备份-12" fill="#444444" fill-rule="nonzero"></path>
        </g>
    </g>
</svg>