<?xml version="1.0" encoding="UTF-8"?>
<svg width="355px" height="139px" viewBox="0 0 355 139" version="1.1" xmlns="http://www.w3.org/2000/svg" xmlns:xlink="http://www.w3.org/1999/xlink">
    <!-- Generator: Sketch 60 (88103) - https://sketch.com -->
    <title>油船</title>
    <desc>Created with Sketch.</desc>
    <defs>
        <path d="M4.54747351e-13,34.4283664 C6.51380501,48.654219 11.5238614,56.5857919 15.0301691,58.2230852 C20.2896306,60.679025 263.345356,87.972429 300.874129,87.972429 C325.893312,87.972429 339.259966,86.4854497 340.974093,83.511491 C344.616385,76.4006989 342.926954,69.9975713 335.905802,64.302108 C328.884649,58.6066447 325.694214,51.5101828 326.334497,43.0127224 C338.52913,22.9450563 345.900303,10.9604966 348.448017,7.05904323 C350.995731,3.1575899 348.081532,0.832755445 339.70542,0.0845398719 L261.836119,2.38406793 L254.243286,11.782497 L4.54747351e-13,34.4283664 Z" id="path-1"></path>
    </defs>
    <g id="迭代5" stroke="none" stroke-width="1" fill="none" fill-rule="evenodd">
        <g id="船型图片" transform="translate(-50.000000, -472.000000)">
            <g id="油船" transform="translate(53.000000, 472.000000)">
                <g id="编组-82" transform="translate(0.000000, 48.687664)">
                    <mask id="mask-2" fill="white">
                        <use xlink:href="#path-1"></use>
                    </mask>
                    <path stroke="#333333" stroke-width="2" d="M253.732012,10.824078 L261.347124,1.39807231 L339.675902,-0.915024385 L339.794393,-0.911494162 C348.792424,-0.107724171 352.42827,2.79281155 349.285305,7.60580592 C346.755018,11.4805722 339.426877,23.3943435 327.314795,43.3251639 C326.775987,51.3839224 329.830612,58.0863541 336.53578,63.525495 C343.908904,69.5064728 345.731998,76.416199 341.840483,84.0108597 C339.830832,87.4975434 326.572889,88.972429 300.874129,88.972429 C283.956435,88.972429 223.168242,83.3633154 145.743927,75.0129688 C77.3918905,67.6410831 17.3488402,60.4094561 14.6070679,59.1291676 C10.7882313,57.3459369 5.71944997,49.3213948 -0.909219146,34.8446843 L-1.49842985,33.557875 L253.732012,10.824078 Z"></path>
                    <g mask="url(#mask-2)" fill="#ACAEAC" fill-rule="nonzero" id="路径">
                        <g transform="translate(303.599771, 63.845144) rotate(1.000000) translate(-303.599771, -63.845144) translate(184.177199, -8.267717)">
                            <polygon points="18.6428861 74.9862663 18.3994079 75.3923215 74.5652092 131.111438 75.3334249 131.225966"></polygon>
                            <polygon points="47.880971 36.7988158 47.5607337 37.132602 151.682109 140.88133 152.402643 140.946408"></polygon>
                            <polygon points="78.4884512 10.4147592 78.110694 10.6895403 203.572257 136.086187 203.782122 135.643601"></polygon>
                            <polygon points="32.5678006 54.8510651 32.2857535 55.2200411 113.479781 136.69455 114.215193 136.780504"></polygon>
                            <polygon points="65.2731781 20.1352011 64.9186657 20.4322541 187.810703 142.985429 188.507142 143.02936"></polygon>
                            <polygon points="118.27352 4.86022096 117.686779 4.92533277 189.663175 77.0692181 189.895776 76.6491419"></polygon>
                            <polygon points="24.9129772 64.571507 24.6482634 64.9599421 94.0221854 133.905082 94.7743087 134.003235"></polygon>
                            <polygon points="56.9231712 27.7726912 56.5868583 28.0869544 169.750933 141.586253 170.454892 141.640725"></polygon>
                            <polygon points="184.143752 88.1782946 184.341238 87.7217049 102.991652 6.24885552 102.411799 6.32249901"></polygon>
                            <polygon points="12.3742424 85.4010255 12.1505524 85.8185055 54.4047572 127.618699 55.1982238 127.75438"></polygon>
                            <polygon points="39.5310805 45.1306232 39.2289263 45.4795751 132.233652 138.093916 132.961759 138.169139"></polygon>
                            <polygon points="75.0106283 12.497711 74.6391076 12.7788499 201.474578 139.557773 201.69917 139.138163"></polygon>
                            <polygon points="133.5553 3.4715864 132.961759 3.52820188 195.87921 66.6544589 196.144632 66.2686349"></polygon>
                            <polygon points="22.1232505 69.431728 21.8709943 69.8294205 84.2991831 132.507851 85.0538668 132.614601"></polygon>
                            <polygon points="52.048326 31.9385949 51.7266374 32.2696327 160.713904 140.887743 161.428768 140.946408"></polygon>
                            <path d="M92.5742652,7.63749008 L91.9970396,7.71309933 L207.803194,123.588476 C207.852171,123.419055 207.900448,123.249634 207.948025,123.080214 L92.5742652,7.63749008 Z"></path>
                            <polygon points="9.58363246 90.9555637 9.37328328 91.3999367 43.9799307 126.217621 44.7834646 126.365745"></polygon>
                            <polygon points="36.0513516 49.9908442 35.7573399 50.3504046 123.202705 137.395384 123.935634 137.474821"></polygon>
                            <polygon points="70.1413491 15.9692974 69.7788867 16.2592329 196.846054 143.68796 197.533266 143.723677"></polygon>
                            <polygon points="125.918146 4.16590368 125.324269 4.226518 193.116755 71.5146799 193.367363 71.1133713"></polygon>
                            <polygon points="28.3930151 59.7112861 28.1198498 60.0790327 103.748799 135.299933 104.494751 135.39187"></polygon>
                            <polygon points="61.0979205 23.6067875 60.752762 23.913091 178.780241 142.284691 179.481017 142.335042"></polygon>
                            <polygon points="109.939052 5.55453824 109.354972 5.62336701 186.214089 81.9294391 186.42419 81.4956093"></polygon>
                            <polygon points="15.1628257 79.8464872 14.9278215 80.2622636 64.1423126 129.02036 64.9186657 129.143014"></polygon>
                            <polygon points="44.4001097 40.9647195 44.0891473 41.305814 142.653741 139.488717 143.376518 139.557773"></polygon>
                            <polygon points="87.7112983 8.33180736 87.1368187 8.41154271 206.38537 127.75438 206.559391 127.273869"></polygon>
                            <polygon points="141.199415 2.77726912 140.599249 2.8276446 199.336001 61.7942379 199.616218 61.4227188"></polygon>
                            <polygon points="20.0350104 72.9033144 19.7880425 73.308951 78.041085 131.806789 78.8050113 131.920283"></polygon>
                            <polygon points="49.2728256 35.4101813 48.9493682 35.740865 154.463685 140.88362 155.179912 140.946408"></polygon>
                            <polygon points="82.8494379 9.02612464 82.2765977 9.10593423 204.977711 131.920283 205.170756 131.460328"></polygon>
                            <polygon points="6.80771239 97.2044192 6.59601416 97.6535422 33.5451992 124.122689 34.3687054 124.282793"></polygon>
                            <polygon points="33.2669905 52.7681133 32.9800708 53.1355297 116.946273 136.696523 117.686779 136.780504"></polygon>
                            <polygon points="67.3601026 18.7465666 67.0016175 19.0409074 191.284818 143.681628 191.978728 143.723677"></polygon>
                            <polygon points="121.053973 4.16590368 120.464048 4.23114487 191.045082 74.9862663 191.284411 74.5653554"></polygon>
                            <polygon points="26.3036464 63.1828725 26.036898 63.567113 97.4960591 134.601492 98.2458951 134.697552"></polygon>
                            <polygon points="58.315359 26.3840566 57.9754929 26.6956912 173.221571 141.588437 173.926479 141.640725"></polygon>
                            <polygon points="184.826631 86.0953427 185.035555 85.6474724 105.767787 6.24885552 105.189068 6.32001249"></polygon>
                            <polygon points="13.7653007 84.0123909 13.539187 84.4332481 57.8867867 129.012548 58.6698102 129.143014"></polygon>
                            <polygon points="41.6169168 43.7419886 41.3118782 44.0897819 136.399778 138.790126 137.127663 138.863456"></polygon>
                            <polygon points="76.3970854 11.1090765 76.0277422 11.390127 202.183633 137.474821 202.393487 137.040661"></polygon>
                            <polygon points="136.334953 2.77726912 135.739028 2.83181875 197.263532 64.571507 197.533266 64.1875616"></polygon>
                            <polygon points="22.8157745 68.0430935 22.5653116 68.440291 87.7656456 133.204392 88.5254532 133.308918"></polygon>
                            <polygon points="54.1409968 30.5499603 53.8095892 30.8718223 164.189296 141.581822 164.900354 141.640725"></polygon>
                            <polygon points="182.075284 91.649881 182.258286 91.1818997 97.4378193 6.9431728 96.8572606 7.01838408"></polygon>
                            <polygon points="10.9736939 89.5669291 10.7619178 90.0017291 48.1467372 126.917916 48.9493682 127.060062"></polygon>
                            <polygon points="6.09797943 98.5930538 5.90169688 99.0547106 30.071888 123.420407 30.897119 123.588476"></polygon>
                            <polygon points="37.4404102 47.9078923 37.1459745 48.2640482 125.984123 137.39521 126.712904 137.474821"></polygon>
                            <polygon points="71.5438214 14.5806629 71.1675212 14.8664687 199.374461 143.02936 199.616218 142.609057"></polygon>
                            <polygon points="128.69207 3.4715864 128.101538 3.53228078 193.807104 69.431728 194.06168 69.0361681"></polygon>
                            <polygon points="29.7755195 58.3226515 29.5084844 58.6970174 107.222003 135.996255 107.966337 136.086187"></polygon>
                            <polygon points="63.1825705 22.9124702 62.8357138 23.2163249 182.254711 142.981162 182.952603 143.02936"></polygon>
                            <polygon points="112.719859 5.55453824 112.132241 5.62145666 187.591678 80.5408045 187.812824 80.1100172"></polygon>
                            <polygon points="16.5524148 78.4578527 16.3164561 78.8773797 67.619732 130.409986 68.3902521 130.531649"></polygon>
                            <polygon points="45.0995685 38.8817677 44.7834646 39.2197828 145.430963 139.49059 146.153787 139.557773"></polygon>
                            <path d="M90.4870576,8.33180736 L89.9140878,8.40923025 L207.094782,125.671428 C207.149152,125.508212 207.202127,125.344299 207.253708,125.179688 L90.4870576,8.33180736 Z"></path>
                            <polygon points="143.976509 2.08295184 143.376518 2.13332993 200.720537 59.7112861 201.004853 59.3439459"></polygon>
                            <polygon points="20.735762 70.8203626 20.4823598 71.2208047 81.510056 131.811262 82.2765977 131.920283"></polygon>
                            <polygon points="50.6626427 33.3272294 50.3380028 33.6549524 157.245068 140.885485 157.957181 140.946408"></polygon>
                            <polygon points="85.628008 9.02612464 85.0538668 9.10565389 206.37432 129.837331 206.559391 129.37062"></polygon>
                            <polygon points="8.88801733 93.0385155 8.678966 93.4845043 40.5112116 125.51996 41.3118782 125.671428"></polygon>
                            <polygon points="34.6579676 51.3794787 34.3687054 51.7403663 119.730412 136.699148 120.464048 136.780504"></polygon>
                            <polygon points="68.7506744 18.0522493 68.3902521 18.342749 194.064489 143.683968 194.755997 143.723677"></polygon>
                            <polygon points="123.137935 4.86022096 122.547 4.92284235 191.734783 73.5976317 191.978728 73.1905927"></polygon>
                            <polygon points="27.6965101 61.0999206 27.4255326 61.4836405 100.969668 135.296994 101.717482 135.39187"></polygon>
                            <polygon points="59.7076545 24.9954221 59.3641274 25.3042493 175.999936 142.284622 176.703748 142.335042"></polygon>
                            <polygon points="185.520344 84.7067082 185.729872 84.2637637 107.854508 6.24885552 107.27202 6.3181312"></polygon>
                            <polygon points="14.4657184 81.9294391 14.2335042 82.3474988 61.3560905 129.015506 62.1413966 129.143014"></polygon>
                            <polygon points="42.3141093 42.3533541 42.0061954 42.6955071 138.48796 138.792522 139.210615 138.863456"></polygon>
                            <polygon points="80.0721447 9.72044192 79.4993286 9.80220278 204.265845 134.003235 204.476439 133.552502"></polygon>
                            <polygon points="138.420076 2.77726912 137.82198 2.82974463 197.951539 63.1828725 198.227583 62.8071479"></polygon>
                            <polygon points="24.2146235 65.9601416 23.9539462 66.350757 91.2402344 133.206564 91.9970396 133.308918"></polygon>
                            <polygon points="54.8366796 29.1613258 54.5039065 29.4803924 166.275901 141.584049 166.983306 141.640725"></polygon>
                            <polygon points="182.762054 90.2612464 182.952603 89.7998944 100.220834 6.9431728 99.6345297 7.00818149"></polygon>
                            <polygon points="11.6657804 87.4839773 11.4562351 87.9123974 50.9366519 126.923465 51.7266374 127.060062"></polygon>
                            <polygon points="8.1923257 95.1214674 7.98464872 95.5689152 37.0386586 124.820295 37.8402918 124.97711"></polygon>
                            <polygon points="38.8318406 46.5192578 38.534609 46.8741561 129.456063 138.091439 130.18449 138.169139"></polygon>
                            <polygon points="72.9257948 13.8863456 72.5561558 14.1697684 200.077411 141.640725 200.310535 141.22084"></polygon>
                            <polygon points="130.775567 3.4715864 130.18449 3.53024777 194.499098 68.0430935 194.755997 67.6492242"></polygon>
                            <polygon points="31.1746028 56.2396997 30.897119 56.6123739 110.007127 135.998253 110.743606 136.086187"></polygon>
                            <polygon points="63.8890349 21.5238357 63.5300311 21.8190366 185.03076 142.9833 185.729872 143.02936"></polygon>
                            <polygon points="115.493004 5.55453824 114.90951 5.62160713 188.281273 79.1521699 188.507142 78.7329893"></polygon>
                            <polygon points="17.947375 76.3749008 17.7050906 76.7927286 71.7829527 130.414657 72.5561558 130.531649"></polygon>
                            <polygon points="46.4891333 38.1874504 46.1720991 38.5221434 148.210906 140.185152 148.931057 140.252091"></polygon>
                            <polygon points="181.392141 94.4271501 181.563969 93.9467568 95.3505596 7.63749008 94.7743087 7.71301043"></polygon>
                            <polygon points="146.757617 2.08295184 146.153787 2.12911876 202.103064 58.3226515 202.393487 57.9617102"></polygon>
                            <polygon points="159.269604 1.38863456 158.651499 1.42408019 208.322778 50.6851614 208.642343 50.3515555"></polygon>
                            <polygon points="148.840026 2.08295184 148.236739 2.1290857 202.793467 56.934017 203.087804 56.577528"></polygon>
                            <polygon points="157.185724 1.38863456 156.568547 1.42623793 207.634171 52.073796 207.948025 51.7353657"></polygon>
                            <polygon points="164.833682 0.69431728 164.206037 0.725899675 211.089052 47.9078923 211.419612 47.5857519"></polygon>
                            <polygon points="151.620683 2.08295184 151.014008 2.1269435 204.176229 55.5453824 204.476439 55.195544"></polygon>
                            <polygon points="162.043454 0.69431728 161.428768 0.736525017 209.705802 49.2965269 210.030977 48.9673065"></polygon>
                            <polygon points="153.712972 1.38863456 153.09696 1.42839354 205.554958 53.4624306 205.865074 53.1192478"></polygon>
                            <polygon points="167.609045 0.69431728 166.983306 0.721615279 212.474519 46.5192578 212.808246 46.202181"></polygon>
                        </g>
                    </g>
                </g>
                <g id="编组-3" transform="translate(7.799247, 0.000000)">
                    <g id="编组-2">
                        <path d="M1,61.6299213 L1,81.3903003 L29.2923964,78.5592696 L28.8749127,61.6299213 L1,61.6299213 Z" id="矩形" stroke="#333333" stroke-width="2" fill="#FFFFFF"></path>
                        <rect id="矩形" fill="#333333" x="0.918635171" y="41.3385827" width="4.59317585" height="20.2099738"></rect>
                        <rect id="矩形备份-2" fill="#333333" x="15.6167979" y="37.664042" width="4.59317585" height="20.2099738"></rect>
                        <rect id="矩形备份" fill="#333333" x="2.29658793" y="21.1286089" width="1.83727034" height="20.2099738"></rect>
                        <rect id="矩形备份-3" fill="#333333" x="16.9947507" y="17.4540682" width="1.83727034" height="20.2099738"></rect>
                        <rect id="矩形备份-4" fill="#333333" x="53.2808399" y="19.2913386" width="1.83727034" height="22.9658793"></rect>
                        <rect id="矩形备份-8" fill="#333333" x="60.6299213" y="29.3963255" width="1.83727034" height="12.8608924"></rect>
                        <rect id="矩形备份-9" fill="#333333" x="72.5721785" y="25.7217848" width="1.83727034" height="16.5354331"></rect>
                        <rect id="矩形备份-10" fill="#333333" x="121.259843" y="54.1994751" width="1.83727034" height="16.5354331"></rect>
                        <rect id="矩形备份-11" fill="#333333" x="132.283465" y="27.5590551" width="2.75590551" height="35.8267717"></rect>
                        <rect id="矩形备份-12" fill="#333333" x="170.866142" y="27.5590551" width="2.75590551" height="35.8267717"></rect>
                        <polygon id="矩形备份-15" fill="#333333" points="268.24147 23.8845144 274.671916 23.8845144 274.671916 49.4531354 268.24147 49.4531354"></polygon>
                        <rect id="矩形备份-16" fill="#333333" x="268.24147" y="8.70414851e-14" width="1.83727034" height="31.2335958"></rect>
                    </g>
                    <path d="M154.249334,57.0367454 L142.469744,57.0367454 L142.469217,64.3857395 L128.690289,64.3858209 L128.690289,69.6497484 L177.215223,65.6795265 L177.215223,62.5485211 L154.249279,62.5477101 L154.249334,57.0367454 Z" id="路径" stroke="#333333" stroke-width="2" fill="#FFFFFF"></path>
                    <g id="编组" transform="translate(12.860892, 10.779528)">
                        <rect id="矩形" fill="#333333" x="41.3385827" y="11.2677165" width="3.67454068" height="1.83727034"></rect>
                        <rect id="矩形备份-6" fill="#333333" transform="translate(43.172563, 5.898976) rotate(-90.000000) translate(-43.172563, -5.898976) " x="41.3352924" y="4.9803408" width="3.67454068" height="1.83727034"></rect>
                        <polygon id="矩形备份-7" fill="#333333" transform="translate(39.501312, 3.918635) rotate(-90.000000) translate(-39.501312, -3.918635) " points="35.8267717 3 43.175853 3 43.175853 4.83727034 35.8267717 4.83727034"></polygon>
                        <rect id="矩形备份-5" fill="#333333" x="36.7454068" y="7.59317585" width="11.023622" height="1.83727034"></rect>
                        <rect id="矩形" stroke="#333333" stroke-width="2" fill="#FFFFFF" x="1" y="44.4199475" width="14.5354331" height="6.26771654"></rect>
                        <path d="M21.1286089,37.9926764 L21.1286089,15.3085347 C32.152231,10.1649621 37.664042,9.12331541 37.664042,12.1835945 C37.5138543,12.2605326 37.5138543,18.6918979 37.664042,31.4776903 L24.8031496,40.664042 L20.2989971,42.0419948 L21.1286089,37.9926764 Z" id="路径-29" stroke="#333333" stroke-width="2" fill="#FFFFFF"></path>
                        <path d="M21.1286089,20.4540682 C30.3149606,15.5546807 35.5205599,14.7147238 36.7454068,17.9341978" id="路径-30" stroke="#333333"></path>
                    </g>
                    <g id="编组-79" transform="translate(16.535433, 42.257218)" fill-rule="nonzero">
                        <path d="M61.7356858,8.32361266 L61.7356858,4.92074728 L64.0556649,4.92074728 L61.7356858,0.918635171 L22.340697,0.918635171 L20.6820502,4.92074728 L22.6702999,4.92074728 L22.6702999,8.32361266 L0.918635171,8.32361266 L0.918635171,12.9249715 L12.3803101,15.4931718 L11.023622,47.7690289 L23.841985,47.7690289 L23.841985,46.3565187 L64.232162,46.3565187 L64.232162,21.8730093 C64.232162,19.047989 66.5712793,16.4583871 68.9103966,15.752132 L77.1653543,12.9249715 L77.1653543,8.32361266 L61.7356858,8.32361266 Z" id="路径" fill="#FFFFFF"></path>
                        <polygon id="路径" fill="#ACAEAC" points="38.3228145 11.9422572 37.664042 11.9422572 63.3858268 37.664042 63.3858268 37.0052152"></polygon>
                        <polygon id="路径" fill="#ACAEAC" points="69.5225642 8.26771654 68.8976378 8.26771654 73.9432658 13.7795276 74.4094488 13.6061173"></polygon>
                        <path d="M55.7916028,11.9422572 L55.1181102,11.9422572 L64.1398786,21.1286089 C64.1875211,20.9536728 64.2423822,20.7809417 64.3044619,20.6104158 L55.7916028,11.9422572 Z" id="路径" fill="#ACAEAC"></path>
                        <polygon id="路径" fill="#ACAEAC" points="18.1177048 8.26771654 17.4540682 8.26771654 55.370975 45.9317585 56.0367454 45.9317585"></polygon>
                        <polygon id="路径" fill="#ACAEAC" points="47.5199651 11.9422572 46.8503937 11.9422572 64.3044619 29.3963255 64.3044619 28.7246011"></polygon>
                        <polygon id="路径" fill="#ACAEAC" points="9.84998826 8.26771654 9.18635171 8.26771654 47.1053923 45.9317585 47.7690289 45.9317585"></polygon>
                        <path d="M61.9847214,8.26771654 L61.5485564,8.38788759 L61.5485564,8.45833269 L68.4375734,15.6167979 C68.5630455,15.565 68.6885176,15.5194179 68.8139897,15.4800515 L68.8976378,15.4510447 L61.9847214,8.26771654 Z" id="路径" fill="#ACAEAC"></path>
                        <polygon id="路径" fill="#ACAEAC" points="30.0496869 11.9422572 29.3963255 11.9422572 63.3858268 45.9317585 63.3858268 45.2783567"></polygon>
                        <polygon id="路径" fill="#ACAEAC" points="42.0000374 11.023622 41.3385827 11.023622 64.3044619 33.9895013 64.3044619 33.3279853"></polygon>
                        <polygon id="路径" fill="#ACAEAC" points="18.3727034 24.8031496 18.3727034 25.4642823 37.9502894 45.9317585 38.5826772 45.9317585"></polygon>
                        <polygon id="路径" fill="#ACAEAC" points="6.53535834 14.4974931 7.34908136 14.6981627 1.54723621 8.26771654 0.918635171 8.26771654 0.918635171 8.27222596"></polygon>
                        <polygon id="路径" fill="#ACAEAC" points="73.2130388 8.26771654 72.5721785 8.26771654 77.0437763 12.8608924 77.1653543 12.818559 77.1653543 12.3274913"></polygon>
                        <path d="M59.3834541,11.9422572 L58.7926509,11.9422572 L64.9723382,18.3727034 C65.0521251,18.2514613 65.1357114,18.1335137 65.2230971,18.0188608 L59.3834541,11.9422572 Z" id="路径" fill="#ACAEAC"></path>
                        <polygon id="路径" fill="#ACAEAC" points="22.9658793 10.1049869 22.9658793 9.58077488 21.6528209 8.26771654 21.1286089 8.26771654"></polygon>
                        <polygon id="路径" fill="#ACAEAC" points="24.538871 11.9422572 23.8845144 11.9422572 58.1382943 45.9317585 58.7926509 45.9317585"></polygon>
                        <polygon id="路径" fill="#ACAEAC" points="50.2823017 11.9422572 49.6062992 11.9422572 64.3044619 26.6404199 64.3044619 25.9643175"></polygon>
                        <polygon id="路径" fill="#ACAEAC" points="12.6058938 8.26771654 11.9422572 8.26771654 49.8612978 45.9317585 50.5249344 45.9317585"></polygon>
                        <polygon id="路径" fill="#ACAEAC" points="17.4540682 28.4776903 17.4540682 29.1093188 35.1618996 45.9317585 35.8267717 45.9317585"></polygon>
                        <polygon id="路径" fill="#ACAEAC" points="2.64813267 13.5511518 3.67454068 13.7795276 0 10.1049869 0 10.9030191"></polygon>
                        <polygon id="路径" fill="#ACAEAC" points="64.8881948 8.26771654 64.3044619 8.26771654 70.2975777 14.6981627 70.7349081 14.5390631"></polygon>
                        <polygon id="路径" fill="#ACAEAC" points="32.8070984 11.9422572 32.152231 11.9422572 63.3858268 43.175853 63.3858268 42.5209856"></polygon>
                        <polygon id="路径" fill="#ACAEAC" points="44.7594588 11.9422572 44.0944882 11.9422572 64.3044619 32.152231 64.3044619 31.4872604"></polygon>
                        <path d="M17.4540682,18.3727034 C17.6302864,18.7228842 17.773025,19.0889237 17.880382,19.4659446 L44.3502054,45.9317585 L45.0131234,45.9317585 L17.4540682,18.3727034 Z" id="路径" fill="#ACAEAC"></path>
                        <path d="M7.05508798,8.26771654 L6.43044619,8.26771654 L12.7913483,15.2194909 L12.9600618,15.2611972 C13.2418696,15.3543706 13.5159942,15.4733248 13.7795276,15.6167979 L7.05508798,8.26771654 Z" id="路径" fill="#ACAEAC"></path>
                        <polygon id="路径" fill="#ACAEAC" points="75.974454 8.26771654 75.328084 8.26771654 77.1653543 10.1049869 77.1653543 9.45653852"></polygon>
                        <path d="M60.6299213,10.1049869 L60.6299213,10.7875359 L66.6576015,16.5354331 C66.7895553,16.431551 66.9238106,16.3320583 67.0603675,16.236955 L60.6299213,10.1049869 Z" id="路径" fill="#ACAEAC"></path>
                        <polygon id="路径" fill="#ACAEAC" points="27.2947766 11.9422572 26.6404199 11.9422572 60.8941998 45.9317585 61.5485564 45.9317585"></polygon>
                        <polygon id="路径" fill="#ACAEAC" points="53.0500364 11.023622 52.3622047 11.023622 64.3044619 22.9658793 64.3044619 22.2801256"></polygon>
                        <polygon id="路径" fill="#ACAEAC" points="15.361836 8.26771654 14.6981627 8.26771654 52.6171666 45.9317585 53.2808399 45.9317585"></polygon>
                        <polygon id="路径" fill="#ACAEAC" points="10.4490674 14.6981627 11.023622 14.6772711 5.184853 8.26771654 4.59317585 8.26771654"></polygon>
                        <polygon id="路径" fill="#ACAEAC" points="17.4540682 22.7055287 40.680298 45.9317585 41.3385827 45.9317585 17.4540682 22.0472441"></polygon>
                        <polygon id="路径" fill="#ACAEAC" points="67.7086231 8.26771654 67.0603675 8.26771654 73.0072274 14.6981627 73.4908136 14.5200403"></polygon>
                        <polygon id="路径" fill="#ACAEAC" points="36.4833969 11.9422572 35.8267717 11.9422572 64.3044619 40.4199475 64.3044619 39.7612109"></polygon>
                        <path d="M11.4560592,37.664042 L11.4560592,16.2506037 L0,13.6847189 L0,7.39830117 L21.7431328,7.39830117 L21.7431328,5.88015266 L19.288263,5.88015266 L21.7240039,0 L62.2665512,0 L65.6672366,5.88015266 L62.65763,5.88015266 L62.65763,7.39830117 L78.0839895,7.39830117 L78.0839895,13.5991894 L69.1571901,16.6483159 C67.2209248,17.2320547 65.1486321,19.4665127 65.1486321,21.8634767 L65.1486321,32.9004787 L11.4560592,37.664042 Z M63.2825059,30.8789752 L63.2825059,21.8763061 C63.2825059,18.5000294 65.9860509,15.6647267 68.6088296,14.8650259 L76.2157379,12.2542381 L76.2157379,9.27995002 L60.7787513,9.27995002 L60.7787513,3.99850381 L62.404704,3.99850381 L61.1762064,1.88164885 L22.9716304,1.88164885 L22.0959539,3.99850381 L23.6156352,3.99850381 L23.6156352,9.27995002 L1.87037701,9.27995002 L1.87037701,12.1815381 L13.3264362,14.7474229 L13.7795276,35.3674541 L63.2825059,30.8789752 Z" id="形状" fill="#333333"></path>
                        <rect id="矩形" fill="#333333" x="20.2099738" y="3.67454068" width="43.175853" height="1"></rect>
                        <polygon id="矩形" fill="#444444" transform="translate(53.072909, 2.807236) rotate(-19.670000) translate(-53.072909, -2.807236) " points="52.7235483 1.31948257 53.4233542 1.31922724 53.4222694 4.29498856 52.7224636 4.29524389"></polygon>
                        <polygon id="矩形" fill="#444444" transform="translate(39.916818, 2.801796) rotate(-4.760000) translate(-39.916818, -2.801796) " points="39.5670915 1.39549318 40.2668117 1.39542656 40.2665442 4.20809868 39.5668241 4.2081653"></polygon>
                        <path d="M31.5989327,6.43044619 L26.6404199,6.43044619 L26.6404199,9.18635171 L31.5989327,9.18635171 L31.5989327,6.43044619 Z M32.9962932,9.18635171 L38.0521977,9.18635171 L38.0521977,6.43044619 L32.9962932,6.43044619 L32.9962932,9.18635171 Z M39.9153451,9.18635171 L50.5606918,9.18635171 L50.5606918,6.43044619 L39.9153451,6.43044619 L39.9153451,9.18635171 L39.9153451,9.18635171 Z M52.4238391,9.18635171 L55.5192045,9.18635171 L55.5192045,6.43044619 L52.4238391,6.43044619 L52.4238391,9.18635171 Z M59.7112861,6.43044619 L56.4507782,6.43044619 L56.4507782,9.18635171 L59.7112861,9.18635171 L59.7112861,6.43044619 Z" id="形状" fill="#333333"></path>
                        <rect id="矩形" fill="#333333" x="22.0472441" y="14.6981627" width="1.83727034" height="2.75590551"></rect>
                        <rect id="矩形" fill="#333333" x="22.0472441" y="22.9658793" width="1.83727034" height="2.75590551"></rect>
                        <rect id="矩形" fill="#333333" x="27.5590551" y="14.6981627" width="1.83727034" height="2.75590551"></rect>
                        <rect id="矩形" fill="#333333" x="27.5590551" y="22.9658793" width="1.83727034" height="2.75590551"></rect>
                        <rect id="矩形" fill="#333333" x="35.8267717" y="14.6981627" width="1.83727034" height="2.75590551"></rect>
                        <rect id="矩形" fill="#333333" x="39.5013123" y="14.6981627" width="1.83727034" height="2.75590551"></rect>
                        <rect id="矩形" fill="#333333" x="44.0944882" y="14.6981627" width="1.83727034" height="2.75590551"></rect>
                        <rect id="矩形" fill="#333333" x="44.0944882" y="22.9658793" width="1.83727034" height="2.75590551"></rect>
                        <rect id="矩形" fill="#333333" x="47.7690289" y="14.6981627" width="1.83727034" height="2.75590551"></rect>
                        <rect id="矩形" fill="#333333" x="47.7690289" y="22.9658793" width="1.83727034" height="2.75590551"></rect>
                        <rect id="矩形" fill="#333333" x="56.9553806" y="14.6981627" width="1.83727034" height="2.75590551"></rect>
                        <polygon id="路径" fill="#333333" points="60.6299213 11.9422572 22.0472441 11.9422572 22.0472441 8.26771654 22.7487473 8.26771654 22.7487473 11.1909571 59.928418 11.1909571 59.928418 8.2699932 60.6299213 8.2699932"></polygon>
                    </g>
                </g>
                <path d="M5.53873078,95.682964 C147.695333,87.0124316 231.922127,83.5958005 258.219112,85.4330709 C297.664591,88.1889764 313.289552,88.1614115 329.738327,88.1614115" id="路径-28" stroke="#333333" stroke-width="2"></path>
                <ellipse id="椭圆形" fill="#333333" transform="translate(308.802397, 85.727029) rotate(4.000000) translate(-308.802397, -85.727029) " cx="308.802397" cy="85.7270286" rx="8.26771654" ry="10.1049869"></ellipse>
                <ellipse id="椭圆形备份" fill="#FFFFFF" transform="translate(309.700180, 88.161412) rotate(4.000000) translate(-309.700180, -88.161412) " cx="309.70018" cy="88.1614115" rx="5.97112861" ry="6.43044619"></ellipse>
                <path d="M40.959136,79.4619423 L89.5805552,75.1340876 L93.8612207,83.3673628 L92.5586237,87.5781326 L84.9646008,90.0262467 C62.3049333,90.0262467 50.9750995,90.0262467 50.9750995,90.0262467 C50.9750995,90.0262467 47.636445,86.5048119 40.959136,79.4619423 Z" id="路径-27" fill="#FFFFFF"></path>
            </g>
        </g>
    </g>
</svg>