<?xml version="1.0" encoding="UTF-8"?>
<svg width="367px" height="122px" viewBox="0 0 367 122" version="1.1" xmlns="http://www.w3.org/2000/svg" xmlns:xlink="http://www.w3.org/1999/xlink">
    <!-- Generator: Sketch 60 (88103) - https://sketch.com -->
    <title>公务船</title>
    <desc>Created with Sketch.</desc>
    <defs>
        <path d="M0,71.131533 C23.7094806,98.5705525 42.5297272,114.16917 56.4607397,117.927384 C71.3504845,116.845611 170.211681,107.109324 353.04433,88.7185256 L358.013668,74.7941465 L353.04433,74.7941465 L351.386919,60.7491055 L317.840025,62.2713755 L311.211344,56.3087488 L311.211344,49.6018798 L286.86178,49.6018798 L282.708116,41.1574798 L273.680678,41.1574798 L255.086202,17.3658561 L270.159282,17.3658561 C269.905088,14.9635588 266.909456,13.212192 261.172387,12.1117558 C260.718698,11.9418639 268.58199,3.23667538 264.650344,1.33995037 C262.029247,0.0754670309 253.270804,0.0754670309 238.375017,1.33995037 C228.539305,3.41860509 221.886171,6.10118616 218.415614,9.38769358 C218.368636,9.30789587 197.698207,8.88799258 156.404327,8.12798372 C146.158205,9.87194986 141.035143,11.1998739 141.035143,12.1117558 C141.035143,13.0236378 145.22031,13.4496546 153.590644,13.3898063 L129.436954,34.3000248 C125.045374,37.667617 122.849584,41.580279 122.849584,46.0380109 C122.913872,45.9704403 117.583949,45.9704403 106.859814,46.0380109 C92.5403175,50.984678 83.7571573,54.4082573 80.5103334,56.3087488 C80.5968015,56.6684821 80.8032146,58.1486009 81.1295727,60.7491055 L66.6839681,74.0779067 C60.051487,72.3271213 50.6072678,71.6816695 38.3513105,72.1415513 C26.0953531,72.6014331 13.311583,72.2647603 0,71.131533 Z" id="path-1"></path>
    </defs>
    <g id="页面-1" stroke="none" stroke-width="1" fill="none" fill-rule="evenodd">
        <g id="公务船" transform="translate(4.000000, 2.000000)">
            <path d="M67.7784995,72.9740078 L81.4458091,60.3633309 C81.163863,58.1378045 80.9789166,56.8257733 80.9108173,56.5424593 L80.7373323,55.8207094 L81.3779618,55.4457241 C84.7051388,53.4981988 93.5148673,50.0642634 107.906088,45.0928193 L108.061686,45.039068 L108.226303,45.0380308 C113.590297,45.0042333 117.605644,44.987333 120.273147,44.987333 C121.601417,44.987333 122.596442,44.9915205 123.259854,44.9999298 C123.577423,40.6397567 125.910322,36.7970373 130.155224,33.5439798 L152.27288,14.396388 C144.460429,14.3706221 141.407934,13.8869872 141.407934,12.1117558 C141.407934,10.2964357 145.865093,9.14111687 157.609323,7.14216168 L157.795519,7.12815304 C178.443042,7.50816821 193.934676,7.80315685 204.270659,8.0131241 C209.439428,8.11812352 213.31918,8.20186671 215.910386,8.26436626 C217.207531,8.29565321 218.182334,8.32162918 218.835726,8.34232841 C219.074669,8.34989804 219.271207,8.35677831 219.426027,8.36300834 C223.135405,5.05917294 229.830926,2.41367129 239.541036,0.361560876 L239.663222,0.343534057 C254.803284,-0.941685385 263.595089,-0.941685385 266.45764,0.43928118 C268.731505,1.53625115 268.553018,3.91662676 266.932767,7.00994192 C266.578271,7.68673039 266.156971,8.39390738 265.666007,9.15119033 C265.382493,9.58849301 265.086213,10.0268414 264.744407,10.5188627 C264.612853,10.708232 264.299063,11.1550148 264.114012,11.4184209 C269.368744,12.6164248 272.233703,14.4933232 272.526521,17.2606305 L272.643468,18.3658561 L258.509732,18.3658561 L275.541097,40.1574798 L284.70345,40.1574798 L288.857114,48.6018798 L313.584134,48.6018798 L313.584134,55.8632273 L319.576888,61.2538258 L353.643785,59.7079594 L355.306052,73.7941465 L360.805113,73.7941465 L355.146392,89.6502158 L354.517203,89.7135047 C171.657174,108.107058 72.8106699,117.841897 57.9059911,118.924756 L57.7368253,118.937046 L57.573068,118.892869 C43.3924541,115.067318 24.4496451,99.413957 0.617233074,71.9262222 L-0.979782186,70.0842629 L1.45069181,70.2741782 C14.7246664,71.311396 27.4699777,71.6006605 39.6866038,71.1422545 C51.7105709,70.6910777 61.0680076,71.2973946 67.7784995,72.9740078 Z" id="路径-73" stroke="#333333" stroke-width="2"></path>
            <g id="编组-56" transform="translate(1.372790, 0.000000)">
                <mask id="mask-2" fill="white">
                    <use xlink:href="#path-1"></use>
                </mask>
                <use id="蒙版" fill="#FFFFFF" xlink:href="#path-1"></use>
                <g mask="url(#mask-2)" fill="#ACAEAC" fill-rule="nonzero">
                    <g transform="translate(171.590431, -59.851117)">
                        <polygon id="路径" points="16.6402553 42.5886132 50.90388 188.967307 50.409119 189.119063 16.1454943 42.7403689"></polygon>
                        <polygon id="路径备份-30" points="7.61165264 13.1204643 41.8752774 159.499158 41.3805164 159.650914 7.11689169 13.27222"></polygon>
                        <polygon id="路径备份-31" points="6.20120845 15.8224081 40.4648332 162.201102 39.9700722 162.352858 5.7064475 15.9741638"></polygon>
                        <polygon id="路径备份-32" points="4.74318642 21.2500846 39.0068112 167.628778 38.5120502 167.780534 4.24842547 21.4018402"></polygon>
                        <polygon id="路径备份-33" points="3.99038649 25.3267892 38.2540112 171.705483 37.7592503 171.857239 3.49562554 25.4785448"></polygon>
                        <polygon id="路径备份-34" points="3.15432533 34.1735259 37.4179501 180.55222 36.9231891 180.703975 2.65956438 34.3252816"></polygon>
                        <polygon id="路径备份-35" points="11.1788447 80.8910658 37.287111 188.047985 36.7923501 188.19974 10.6840838 81.0428215"></polygon>
                        <polygon id="路径备份-36" points="8.53446318 79.5037221 42.7980879 225.882416 42.303327 226.034172 8.03970223 79.6554777"></polygon>
                        <polygon id="路径备份-37" points="5.85456244 79.5037221 40.1181872 225.882416 39.6234262 226.034172 5.35980149 79.6554777"></polygon>
                        <polygon id="路径备份-38" points="3.17066321 78.6104218 39.4828973 237.256408 38.9921349 237.408537 2.67990074 78.7625503"></polygon>
                        <polygon id="路径备份-39" points="0.487883449 78.6104218 38.8476075 246.11631 38.3597241 246.268517 2.84217094e-14 78.7626297"></polygon>
                        <polygon id="路径" points="21.30583 52.1887727 52.8528162 190.388116 52.3675647 190.540778 20.8205784 52.3414348"></polygon>
                        <polygon id="路径" points="24.0317124 53.5934773 54.8970638 189.066664 54.4117145 189.219335 23.546363 53.7461485"></polygon>
                        <polygon id="路径" points="26.7551959 54.3166449 56.9413115 188.42603 56.4582632 188.579429 26.2721476 54.4700435"></polygon>
                        <polygon id="路径" points="28.7915059 56.3968354 58.9737165 187.780762 58.4867633 187.933471 28.3045527 56.5495448"></polygon>
                        <polygon id="路径" points="32.2031859 57.1319493 61.7053445 186.471625 61.2198763 186.623974 31.7177177 57.2842983"></polygon>
                        <polygon id="路径" points="34.2411252 59.2121398 63.7377496 185.826521 63.2467471 185.978017 33.7501227 59.3636357"></polygon>
                        <polygon id="路径" points="36.2711617 60.6048461 65.0886696 185.855252 64.6000876 186.007649 35.7825797 60.7572435"></polygon>
                        <polygon id="路径" points="38.3282865 61.3221184 67.1389163 184.528425 66.6434563 184.680311 37.8328264 61.4740036"></polygon>
                        <polygon id="路径" points="41.7262526 62.7386655 69.8586499 183.900252 69.3664943 184.052247 41.234097 62.8906602"></polygon>
                        <polygon id="路径" points="43.7589039 64.8188041 71.8851077 183.93572 71.3867586 184.087775 43.2605548 64.9708589"></polygon>
                        <polygon id="路径" points="46.4840456 65.5419717 73.9293553 183.295002 73.4316491 183.447868 45.9863394 65.6948375"></polygon>
                        <polygon id="路径" points="49.2082778 66.9466763 75.9736029 181.97457 75.4774491 182.126425 48.712124 67.0985311"></polygon>
                        <polygon id="路径" points="51.2566756 67.6638966 78.0179025 181.328246 77.5176504 181.480571 50.7564235 67.8162223"></polygon>
                        <polygon id="路径" points="53.1854882 64.3176179 78.6031197 176.618267 78.1223461 176.771219 52.7047146 64.4705695"></polygon>
                        <polygon id="路径" points="54.9770438 64.3176179 80.3897202 173.211457 79.9039915 173.363534 54.4913151 64.469695"></polygon>
                        <polygon id="路径" points="57.6571314 62.5310174 82.3880839 170.06204 81.9021684 170.213859 57.1712159 62.6828362"></polygon>
                        <polygon id="路径" points="59.4353648 62.5310174 84.1746844 171.426005 83.697136 171.576933 58.9578164 62.6819455"></polygon>
                        <polygon id="路径" points="61.2233807 61.6377171 86.6428219 173.938317 86.163858 174.091318 60.7444169 61.7907177"></polygon>
                        <polygon id="路径" points="62.1308843 58.9578164 88.8991961 173.303627 88.4060289 173.456028 61.6377171 59.110217"></polygon>
                        <polygon id="路径" points="65.653442 61.1050363 93.0986926 178.176707 92.6009273 178.329396 65.1556767 61.2577256"></polygon>
                        <polygon id="路径" points="67.06124 57.0400705 94.515084 176.156544 94.0259121 176.309041 66.5720681 57.1925675"></polygon>
                        <polygon id="路径" points="68.4560026 54.3439182 96.5891716 175.505326 96.0977877 175.6575 67.9646187 54.4960917"></polygon>
                        <polygon id="路径" points="70.5306183 51.6596604 99.3446923 174.866113 98.8526765 175.017853 70.0386025 51.8114001"></polygon>
                        <polygon id="路径" points="71.904685 49.6389941 100.7254 174.889942 100.240026 175.041797 71.4193105 49.7908493"></polygon>
                        <polygon id="路径" points="72.6523144 44.2110063 102.829276 173.55082 102.337074 173.703031 72.1601122 44.3632178"></polygon>
                        <polygon id="路径" points="74.7128507 42.2022344 104.891417 173.58563 104.40082 173.73887 74.2222534 42.3554747"></polygon>
                        <polygon id="路径" points="76.1106052 39.5061341 106.971452 172.253481 106.481598 172.405844 75.6207512 39.6584969"></polygon>
                        <polygon id="路径" points="77.5033315 36.1284449 109.04554 172.28314 108.55551 172.43584 77.0133018 36.2811446"></polygon>
                        <polygon id="路径" points="79.5725874 33.4382399 111.119575 171.637116 110.634325 171.790246 79.0873375 33.5913692"></polygon>
                        <polygon id="路径" points="81.6380472 31.4295199 113.187664 170.992654 112.705042 171.1446 81.1554259 31.5814656"></polygon>
                        <polygon id="路径" points="81.0518073 23.2636973 115.315432 169.642391 114.820671 169.794147 80.5570464 23.415453"></polygon>
                        <polygon id="路径" points="83.1198957 21.9365143 117.38352 168.315208 116.88876 168.466964 82.6251348 22.08827"></polygon>
                        <polygon id="路径" points="85.1760897 21.2907645 119.439714 167.669458 118.944953 167.821214 84.6813288 21.4425202"></polygon>
                        <polygon id="路径" points="87.9018224 21.3383424 122.165447 167.717036 121.670686 167.868792 87.4070615 21.490098"></polygon>
                        <polygon id="路径" points="89.2765832 20.6806981 123.540208 167.059392 123.045447 167.211148 88.7818223 20.8324538"></polygon>
                        <polygon id="路径" points="91.3327772 20.0349483 125.596402 166.413642 125.101641 166.565398 90.8380162 20.186704"></polygon>
                        <polygon id="路径" points="93.3889712 19.3891985 127.652596 165.767892 127.157835 165.919648 92.8942102 19.5409542"></polygon>
                        <polygon id="路径" points="96.1147039 19.4367764 130.378329 165.81547 129.883568 165.967226 95.6199429 19.588532"></polygon>
                        <polygon id="路径" points="97.5013591 18.097699 131.764984 164.476393 131.270223 164.628148 97.0065982 18.2494546"></polygon>
                        <polygon id="路径" points="99.5575531 17.4519492 133.821178 163.830643 133.326417 163.982399 99.0627922 17.6037048"></polygon>
                        <polygon id="路径" points="102.29518 16.8180938 136.558805 163.196788 136.064044 163.348543 101.800419 16.9698495"></polygon>
                        <polygon id="路径" points="104.351374 16.172344 138.614999 162.551038 138.120238 162.702793 103.856613 16.3240997"></polygon>
                        <polygon id="路径" points="106.395674 16.2080274 140.659298 162.586721 140.164538 162.738477 105.900913 16.3597831"></polygon>
                        <polygon id="路径" points="107.770435 15.5503832 142.034059 161.929077 141.539298 162.080833 107.275674 15.7021388"></polygon>
                        <polygon id="路径" points="110.508062 14.9165278 144.771686 161.295222 144.276925 161.446977 110.013301 15.0682835"></polygon>
                        <polygon id="路径" points="112.57615 13.5893449 146.839775 159.968039 146.345014 160.119794 112.081389 13.7411005"></polygon>
                        <polygon id="路径" points="114.632344 12.9435951 148.895969 159.322289 148.401208 159.474045 114.137583 13.0953507"></polygon>
                        <polygon id="路径" points="115.99521 12.967384 150.258835 159.346078 149.764074 159.497833 115.50045 13.1191397"></polygon>
                        <polygon id="路径" points="118.732838 12.3335287 152.996462 158.712222 152.501701 158.863978 118.238077 12.4852843"></polygon>
                        <polygon id="路径" points="120.800926 11.0063457 155.064551 157.385039 154.56979 157.536795 120.306165 11.1581014"></polygon>
                        <polygon id="路径" points="122.85712 10.3605959 157.120745 156.73929 156.625984 156.891045 122.362359 10.5123516"></polygon>
                        <polygon id="路径" points="124.219986 10.3843848 158.483611 156.763079 157.98885 156.914834 123.725225 10.5361405"></polygon>
                        <polygon id="路径" points="126.969508 9.06909634 161.233133 155.44779 160.738372 155.599546 126.474747 9.22085199"></polygon>
                        <polygon id="路径" points="129.025702 8.42334655 163.289327 154.80204 162.794566 154.953796 128.530941 8.5751022"></polygon>
                        <polygon id="路径" points="131.081896 7.77759676 165.345521 154.156291 164.85076 154.308046 130.587135 7.92935241"></polygon>
                        <polygon id="路径" points="133.149984 6.45041379 167.413609 152.829108 166.918848 152.980863 132.655223 6.60216944"></polygon>
                        <polygon id="路径" points="135.194284 6.48609717 169.457909 152.864791 168.963148 153.016547 134.699523 6.63785283"></polygon>
                        <polygon id="路径" points="137.250478 5.84034738 171.514103 152.219041 171.019342 152.370797 136.755717 5.99210303"></polygon>
                        <polygon id="路径" points="139.318566 4.51316442 173.582191 150.891858 173.08743 151.043614 138.823805 4.66492007"></polygon>
                        <polygon id="路径" points="141.37476 3.86741462 175.638385 150.246108 175.143624 150.397864 140.879999 4.01917028"></polygon>
                        <polygon id="路径" points="143.430954 3.22166483 177.694579 149.600359 177.199818 149.752114 142.936193 3.37342049"></polygon>
                        <polygon id="路径" points="145.475254 3.25734821 179.738879 149.636042 179.244118 149.787798 144.980493 3.40910387"></polygon>
                        <polygon id="路径" points="148.212881 2.62349288 182.476506 149.002187 181.981745 149.153942 147.71812 2.77524853"></polygon>
                        <polygon id="路径" points="149.587642 1.96584863 183.851266 148.344542 183.356506 148.496298 149.092881 2.11760428"></polygon>
                        <polygon id="路径" points="151.65573 0.638665664 185.919355 147.017359 185.424594 147.169115 151.160969 0.790421318"></polygon>
                        <polygon id="路径" points="153.70003 0.674349045 187.963654 147.053043 187.468893 147.204798 153.205269 0.826104699"></polygon>
                        <polygon id="路径" points="156.437657 0.0404937135 190.701282 146.419187 190.206521 146.570943 155.942896 0.192249367"></polygon>
                    </g>
                </g>
            </g>
            <g id="编组-83" transform="translate(0.000000, 1.339950)">
                <circle id="椭圆形" stroke="#333333" stroke-width="2" cx="127.404909" cy="87.0967742" r="4.35980149"></circle>
                <circle id="椭圆形备份-46" stroke="#333333" stroke-width="2" cx="177.876373" cy="86.2034739" r="3.91315136"></circle>
                <path d="M238.460411,85.7405072 C240.216563,85.4551641 241.640641,83.9460112 241.640641,82.467565 C241.640641,80.9891188 240.216563,79.4799659 238.460411,79.1946228 C236.905373,78.941957 235.600939,80.3243185 235.600939,82.467565 C235.600939,84.6108114 236.905373,85.9931729 238.460411,85.7405072 Z" id="椭圆形备份-47" stroke="#333333" stroke-width="2"></path>
                <path d="M301.001763,82.4939878 C302.763249,82.2266606 304.171658,80.8325837 304.171658,79.5037221 C304.171658,78.1748605 302.763249,76.7807836 301.001763,76.5134564 C299.4219,76.2736928 298.131956,77.5505105 298.131956,79.5037221 C298.131956,81.4569337 299.4219,82.7337514 301.001763,82.4939878 Z" id="椭圆形备份-48" stroke="#333333" stroke-width="2"></path>
                <path d="M352.348274,79.8170301 C353.853645,79.5600141 355.089772,78.1835224 355.089772,76.8238213 C355.089772,75.4641203 353.853645,74.0876285 352.348274,73.8306126 C351.058946,73.6104823 349.94337,74.8527338 349.94337,76.8238213 C349.94337,78.7949089 351.058946,80.0371604 352.348274,79.8170301 Z" id="椭圆形备份-49" stroke="#333333" stroke-width="2"></path>
                <polygon id="矩形" fill="#333333" points="147.548259 64.9166292 161.598074 64.3229325 162.288373 76.3535054 148.238559 77.2802693"></polygon>
                <polygon id="矩形备份-54" fill="#333333" points="166.866754 64.1099231 180.916569 63.5675696 181.606868 75.1401751 167.557054 76.0155957"></polygon>
                <polygon id="矩形备份-55" fill="#333333" points="185.307136 63.4057418 199.35695 62.9123978 200.04725 74.0478526 185.997435 74.8742638"></polygon>
                <polygon id="矩形备份-56" fill="#333333" points="204.625631 62.7370207 218.675445 62.29502 219.365745 72.9725073 205.31593 73.7475753"></polygon>
                <polygon id="矩形备份-57" fill="#333333" points="223.066012 62.1645525 237.115827 61.7715612 237.806126 72.0118979 223.756312 72.7379563"></polygon>
                <polygon id="矩形备份-58" fill="#333333" points="241.506394 61.6564092 255.556208 61.3124275 256.246508 71.1156134 242.196693 71.7926624"></polygon>
                <polygon id="矩形备份-59" fill="#333333" points="260.824888 61.1930612 274.874703 60.9004227 275.565003 70.2456412 261.515188 70.8713469"></polygon>
                <polygon id="矩形" fill="#333333" points="137.347712 65.3710657 143.157692 65.1098172 143.835951 77.3603421 129.110611 78.3778831 127.915305 76.1340275"></polygon>
                <polygon id="矩形备份-60" fill="#333333" points="289.457346 60.8166309 279.26527 60.8166309 279.943528 69.89685 294.668868 69.2994558 295.614573 67.6569344"></polygon>
                <circle id="椭圆形" fill="#333333" cx="311.42476" cy="65.6575682" r="4.46650124"></circle>
                <path d="M310.08481,68.9998399 C311.3182,68.9998399 312.31806,66.9039483 312.31806,65.4472355 C312.31806,63.9905227 311.215095,61.8534379 309.981705,61.8534379 C308.748315,61.8534379 307.179892,64.067107 307.179892,65.5238198 C307.179892,66.9805326 308.851419,68.9998399 310.08481,68.9998399 Z" id="椭圆形" fill="#FFFFFF"></path>
                <path d="M68.0177317,71.7906846 C72.7264715,73.2168863 77.3482688,74.0119623 81.8831235,74.1759124 C86.4179782,74.3398625 90.9256025,73.5291751 95.4059964,71.7438502 C108.348648,78.8518705 119.211554,82.4058806 127.994715,82.4058806 C136.777875,82.4058806 212.439764,79.1148663 354.980382,72.5328378" id="路径-74" stroke="#333333" stroke-width="2"></path>
                <path d="M81.8831235,54.9687985 C92.5487172,58.2023534 110.190077,58.9703453 134.807202,57.2727742 C159.482,56.4388184 218.950053,55.2746271 313.211361,53.7802002" id="路径-75" stroke="#333333"></path>
                <polygon id="路径-76" fill="#333333" points="81.8831235 57.8195358 93.7390477 59.4091551 77.8277993 74.1759124 68.7778838 71.7438502 82.5023628 59.4091551"></polygon>
                <polygon id="路径-77" fill="#333333" points="108.692398 60.1118622 129.795421 61.0118934 115.061265 79.8272629 105.832419 77.0748654 98.2864699 73.6984296"></polygon>
                <polygon id="路径-78" stroke="#333333" points="137.949515 62.3910966 290.866132 57.8195358 298.617092 67.2556428 295.296734 72.2457327 126.921864 80.6860916 125.187177 76.0016733"></polygon>
                <polyline id="路径-79" stroke="#333333" points="124.222374 44.6980606 154.918316 49.0923527 288.800013 47.7722945"></polyline>
                <polygon id="路径-80" stroke="#333333" points="149.491226 16.9379957 191.594373 17.893096 192.677193 37.0719603 156.497854 37.0719603 129.795421 34.2503003 144.9266 20.3523935"></polygon>
                <polygon id="矩形" fill="#333333" points="149.666766 16.7072672 168.729927 16.9379957 147.548259 36.1036863 129.666825 34.3920596"></polygon>
                <polygon id="矩形备份-63" fill="#333333" points="172.417257 17.4193548 191.89217 17.4193548 170.992928 37.0719603 156.497854 37.0719603 151.859249 36.1036863"></polygon>
                <polygon id="路径-81" stroke="#333333" points="207.342265 18.152922 243.039017 19.7574243 251.534958 28.9571963 248.876451 36.1036863 207.342265 35.192732"></polygon>
                <polygon id="矩形" fill="#333333" points="209.834124 20.7430495 220.535184 21.174367 220.091717 33.2492529 209.366631 32.9860886"></polygon>
                <polygon id="矩形备份-61" fill="#333333" points="223.342443 21.174446 233.151749 21.6363497 232.519936 33.2492529 223.050742 33.0100234 222.688608 33.0008744"></polygon>
                <polygon id="矩形备份-62" fill="#333333" points="234.803265 21.6363497 241.730988 22.0011074 248.417867 29.8682404 246.274909 34.1425532 234.490872 33.836996"></polygon>
                <path d="M238.6074,1.71014172 L231.034759,8.70124824 L247.133836,9.88524641 L260.610615,1.71014172 C256.454748,0.570047241 252.992171,0 250.222885,0 C247.4536,0 243.581771,0.570047241 238.6074,1.71014172 Z" id="路径-82" fill="#333333"></path>
                <polyline id="路径-83" stroke="#333333" points="129.666825 34.3920596 156.497854 37.0719603 275.565003 39.3798493"></polyline>
                <path d="M0,68.9139218 C21.1962733,62.8575762 43.8818594,63.6581736 68.0567582,71.3157142" id="路径-84" stroke="#333333" stroke-width="2"></path>
                <polygon id="矩形" fill="#333333" points="95.6618906 62.9776675 100.241808 63.2657722 96.2555956 67.1627077 91.672899 66.8330714"></polygon>
                <path d="M9.85609126,81.2996355 C33.4558582,85.0959579 71.8995534,85.6541687 125.187177,82.974268" id="路径-85" stroke="#333333"></path>
                <polygon id="路径-103" fill="#FFFFFF" points="152.856798 17.9628407 145.30697 34.6032397 164.408224 18.3126551"></polygon>
                <polygon id="路径-103备份" fill="#FFFFFF" points="176.549828 18.6600496 169 35.3004487 188.101254 19.0098641"></polygon>
                <polygon id="路径-104" fill="#FFFFFF" points="113.718234 61.7462233 126.407024 62.308933 115.025047 76.6765504"></polygon>
            </g>
        </g>
    </g>
</svg>