<?xml version="1.0" encoding="UTF-8"?>
<svg width="369px" height="136px" viewBox="0 0 369 136" version="1.1" xmlns="http://www.w3.org/2000/svg" xmlns:xlink="http://www.w3.org/1999/xlink">
    <!-- Generator: Sketch 60 (88103) - https://sketch.com -->
    <title>作业船</title>
    <desc>Created with Sketch.</desc>
    <defs>
        <path d="M0,0.613583138 L78.5365854,0.613583138 C95.9398417,17.7403911 114.80163,27.247467 135.121951,29.1348106 C155.442272,31.0221543 198.332406,32.0323607 263.792354,32.16543 L356.777173,30.7299805 C356.242714,31.6900924 355.859849,33.6914107 355.62858,36.7339355 C355.397311,39.7764603 354.644044,41.5029784 353.368779,41.9134899 L5.42312233,41.7142857 L5.42312233,38.8176059 C5.63223241,36.1264646 6.90872586,34.7808939 9.25260267,34.7808939 C10.6729421,34.7808939 13.7119229,34.6992295 15.8217421,33.4137847 C16.8974378,32.7583981 17.7272586,33.2012526 17.8847416,29.0121486 C18.0422246,24.8230445 18.1998682,26.2310047 16.236177,22.141134 C14.9270496,19.4145535 9.87226079,12.6440824 1.07181073,1.82972053 L0,0.613583138 Z" id="path-1"></path>
        <path d="M86.7928727,0 L90.7317073,2.02695417 L84.2142013,55.5214177 C85.2750865,57.3889584 85.8995077,59.6772436 85.8995077,62.1493582 C85.8995077,65.5536051 84.7154237,68.609258 82.8380686,70.6976597 L89.2902778,93.4918776 L89.2902778,106.313817 L64.4246308,106.313817 L64.4246308,93.4918776 L70.7066511,70.697318 C68.7791509,67.268176 67.8154008,64.4188561 67.8154008,62.1493582 C67.8154008,59.0941118 68.7691473,56.319648 70.3218335,54.2731915 L70.7658806,52.742877 L12.4326982,40.6578512 L12.4328235,42.2041186 L0,42.2041186 L0,29.3821788 L12.4328235,29.3821788 L12.4326982,31.5696256 L72.1237184,48.1695819 L77.8215875,29.3521639 C80.2486056,21.3834503 83.239034,11.5993957 86.7928727,0 Z" id="path-3"></path>
    </defs>
    <g id="页面-1" stroke="none" stroke-width="1" fill="none" fill-rule="evenodd">
        <g id="作业船" transform="translate(2.000000, 0.000000)">
            <path d="M22.9503575,78.6747503 L37.1693667,65.1883305 L41.0113054,65.1883305 L49.8369988,55.4489958 L54.77517,55.4489958 L53.3277338,48.1131233 L57.7788344,43.6220237 L63.7368163,43.6220237 L63.7368163,40.461865 L61.4759973,40.461865 L61.4759973,33.682261 L69.6767083,33.682261 L69.6767083,30.7845433 L104.859264,30.7845433 L104.859264,33.682261 L114.600709,33.682261 L114.600709,40.461865 L112.551417,40.461865 L112.551417,43.6220237 L118.057562,43.6220237 L121.303512,49.4504673 L119.382135,56.1614793 L122.531603,56.1614793 L122.531603,64.2800197 L126.521459,64.2800197 L126.521459,71.8178721 L132.664921,77.655606 L140.00969,77.655606 L140.00969,87.9730386 L162.85877,87.9730386 L162.85877,106.897744 L182.979883,106.897744 L184.841294,103.122624 L198.089994,103.122624 L198.089994,107.379822 L204.889092,112.182951 L362.288313,112.182951 L364.197975,112.182951 L363.110237,113.752548 C358.72203,120.084693 356.544034,124.834384 356.544034,127.890616 C356.544034,131.577514 355.681794,133.885934 353.731973,134.645999 L353.556795,134.714286 L4.42312233,134.714286 L4.42312233,130.684353 L4.42819987,130.583709 C4.72084139,127.690797 6.23878756,125.989693 8.9041173,125.783337 C12.9646685,125.783337 15.1977316,125.120016 16.1663547,123.951592 C16.8609197,123.113757 16.9772117,122.178953 16.8576621,119.727406 C16.8463294,119.494901 16.8413716,119.390567 16.835592,119.259042 C16.817382,118.844641 16.8082346,118.515457 16.8082346,118.195371 C16.8082346,115.835287 10.8434905,107.279584 -0.76943112,93.2903453 L-1,93.0125958 L-1,92.6516155 C-1,91.0503228 -0.842767618,89.1627268 -0.529672125,86.9851483 C-0.122091908,84.1504286 7.34881317,81.685791 22.9503575,78.6747503 Z" id="路径-86" stroke="#333333" stroke-width="2"></path>
            <g id="编组-56-+-编组-56备份-蒙版" transform="translate(0.000000, 31.784543)">
                <path d="M0,60.8670721 C11.8721564,75.1685916 17.8082346,83.6831769 17.8082346,86.4108281 C17.8082346,90.5023049 19.4801662,94.998794 8.9041173,94.998794 C6.83004702,95.161772 5.66971536,96.4621107 5.42312233,98.89981 L5.42312233,101.929742 L353.368779,102.128947 C354.818949,101.563652 355.544034,99.6224286 355.544034,96.3052767 C355.544034,92.9881247 357.711409,88.0191683 362.046159,81.3984073 L204.571501,81.3984073 L197.089994,76.1132006 L197.089994,72.338081 L185.463174,72.338081 L183.601763,76.1132006 L161.85877,76.1132006 L161.85877,57.1884953 L139.00969,57.1884953 L139.00969,46.8710627 L132.265574,46.8710627 L125.521459,40.462567 L125.521459,33.4954763 L121.531603,33.4954763 L121.531603,25.376936 L118.055656,25.376936 L120.227873,17.7897859 L117.469858,12.8374804 L111.551417,12.8374804 L111.551417,7.67732168 L113.600709,7.67732168 L113.600709,2.8977177 L103.859264,2.8977177 L103.859264,0 L70.6767083,0 L70.6767083,2.8977177 L62.4759973,2.8977177 L62.4759973,7.67732168 L64.7368163,7.67732168 L64.7368163,12.8374804 L58.1956706,12.8374804 L54.4115406,16.6556158 L55.991759,24.6644525 L50.2803197,24.6644525 L41.4546263,34.4037871 L37.5681779,34.4037871 L23.4264718,47.8168866 C8.42235578,50.7006878 0.766914784,53.2093665 0.46014887,55.3429229 C0.153382957,57.4764792 0,59.3178623 0,60.8670721 Z" id="蒙版" fill="#FFFFFF"></path>
                <g id="编组-56-+-编组-56备份-2-+-编组-56备份-3-蒙版" transform="translate(0.000000, 60.215457)">
                    <mask id="mask-2" fill="white">
                        <use xlink:href="#path-1"></use>
                    </mask>
                    <use id="蒙版" fill="#FFFFFF" xlink:href="#path-1"></use>
                    <g id="编组-56" mask="url(#mask-2)" fill="#ACAEAC" fill-rule="nonzero">
                        <g transform="translate(-16.000000, -98.000000)">
                            <polygon id="路径" points="16.2343954 46.677918 49.6623219 207.111709 49.1796283 207.278036 15.7517018 46.844245"></polygon>
                            <polygon id="路径备份-30" points="7.42600257 14.3802747 40.8539291 174.814066 40.3712355 174.980393 6.94330896 14.5466018"></polygon>
                            <polygon id="路径备份-31" points="6.04995946 17.3416557 39.477886 177.775447 38.9951924 177.941774 5.56726586 17.5079828"></polygon>
                            <polygon id="路径备份-32" points="4.62749895 23.2904908 38.0554255 183.724282 37.5727319 183.890609 4.14480534 23.4568179"></polygon>
                            <polygon id="路径备份-33" points="3.89305999 27.7586354 37.3209866 188.192426 36.8382929 188.358753 3.41036638 27.9249625"></polygon>
                            <polygon id="路径备份-34" points="3.07739057 37.4548247 36.5053171 197.888616 36.0226235 198.054943 2.59469696 37.6211517"></polygon>
                            <polygon id="路径备份-35" points="10.90619 88.6581237 36.3776693 206.104114 35.8949757 206.270441 10.4234963 88.8244507"></polygon>
                            <polygon id="路径备份-36" points="8.32630554 87.1375689 41.7542321 247.57136 41.2715385 247.737687 7.84361193 87.303896"></polygon>
                            <polygon id="路径备份-37" points="5.71176823 87.1375689 39.1396948 247.57136 38.6570012 247.737687 5.22907462 87.303896"></polygon>
                            <polygon id="路径备份-38" points="3.09332996 86.1584951 38.5198998 260.037469 38.0411072 260.204204 2.61453731 86.3252308"></polygon>
                            <polygon id="路径备份-39" points="0.475983852 86.1584951 37.9001049 269.748086 37.424121 269.914909 2.84217094e-14 86.3253178"></polygon>
                            <polygon id="路径" points="20.7861756 57.1998727 51.5637231 208.668943 51.090307 208.836263 20.3127595 57.3671932"></polygon>
                            <polygon id="路径" points="23.445573 58.7394552 53.5581111 207.220606 53.0845995 207.387936 22.9720615 58.9067857"></polygon>
                            <polygon id="路径" points="26.1026302 59.5320604 55.552499 206.518459 55.0812324 206.686587 25.6313635 59.7001882"></polygon>
                            <polygon id="路径" points="28.0892741 61.8119882 57.5353332 205.811233 57.0602569 205.978606 27.6141977 61.9793606"></polygon>
                            <polygon id="路径" points="31.4177424 62.6176869 60.2003361 204.376395 59.7267086 204.543372 30.9441148 62.7846641"></polygon>
                            <polygon id="路径" points="33.4059758 64.8976146 62.1831703 203.669349 61.7041435 203.835391 32.926949 65.0636569"></polygon>
                            <polygon id="路径" points="35.3864992 66.4240468 63.5011411 203.700838 63.0244757 203.867869 34.9098338 66.5910772"></polygon>
                            <polygon id="路径" points="37.3934502 67.2101906 65.5013818 202.246612 65.0180061 202.413081 36.9100746 67.3766597"></polygon>
                            <polygon id="路径" points="40.7085391 68.7627528 68.1547804 201.558122 67.6746286 201.724711 40.2283873 68.9293419"></polygon>
                            <polygon id="路径" points="42.6916135 71.0426237 70.1318124 201.596995 69.6456182 201.76365 42.2054193 71.2092787"></polygon>
                            <polygon id="路径" points="45.3502884 71.8352289 72.1262003 200.894757 71.6406333 201.062301 44.8647214 72.0027727"></polygon>
                            <polygon id="路径" points="48.0080759 73.3748114 74.1205882 199.447538 73.6365357 199.613974 47.5240234 73.5412472"></polygon>
                            <polygon id="路径" points="50.0065128 74.1608984 76.1150268 198.739154 75.626976 198.906106 49.518462 74.3278503"></polygon>
                            <polygon id="路径" points="51.8882812 70.4933142 76.6859704 193.57693 76.216923 193.744567 51.4192338 70.660952"></polygon>
                            <polygon id="路径" points="53.6361402 70.4933142 78.4289953 189.843002 77.9551137 190.009681 53.1622587 70.6599935"></polygon>
                            <polygon id="路径" points="56.2508599 68.5351666 80.3786185 186.391183 79.9045545 186.557579 55.776796 68.7015628"></polygon>
                            <polygon id="路径" points="57.9857218 68.5351666 82.1216433 187.886113 81.6557424 188.051533 57.5198209 68.7005866"></polygon>
                            <polygon id="路径" points="59.7301275 67.5560928 84.5295823 190.639655 84.0623005 190.807346 59.2628457 67.7237842"></polygon>
                            <polygon id="路径" points="60.6154969 64.6188713 86.730923 189.944023 86.2497843 190.111056 60.1343582 64.7859053"></polygon>
                            <polygon id="路径" points="64.0521385 66.9722646 90.8279928 195.285009 90.3423681 195.452359 63.5665138 67.1396149"></polygon>
                            <polygon id="路径" points="65.4256 62.5169859 92.2098381 193.070872 91.7325972 193.238012 64.9483591 62.6841255"></polygon>
                            <polygon id="路径" points="66.786344 59.5619525 94.2333382 192.357126 93.7539392 192.523911 66.3069451 59.7287375"></polygon>
                            <polygon id="路径" points="68.8103593 56.6199557 96.9216511 191.656536 96.4416356 191.822846 68.3303439 56.7862652"></polygon>
                            <polygon id="路径" points="70.1509122 54.4052676 98.2686833 191.682653 97.7951472 191.849089 69.6773761 54.5717037"></polygon>
                            <polygon id="路径" points="70.8803067 48.4560912 100.321245 190.21495 99.8410476 190.381777 70.4001094 48.6229179"></polygon>
                            <polygon id="路径" points="72.890586 46.2544396 102.33309 190.253103 101.854458 190.421057 72.4119545 46.4223938"></polygon>
                            <polygon id="路径" points="74.254249 43.2994631 104.362392 188.793043 103.884486 188.960035 73.7763426 43.4664556"></polygon>
                            <polygon id="路径" points="75.6130064 39.5974525 106.385892 188.825549 105.907814 188.992911 75.1349286 39.7648142"></polygon>
                            <polygon id="路径" points="77.6317925 36.6489374 108.409342 188.117495 107.935927 188.285328 77.158378 36.81677"></polygon>
                            <polygon id="路径" points="79.6468753 34.4473427 110.426989 187.411152 109.956139 187.577688 79.1760253 34.613878"></polygon>
                            <polygon id="路径" points="79.074934 25.4974481 112.502861 185.931239 112.020167 186.097566 78.5922403 25.6637751"></polygon>
                            <polygon id="路径" points="81.0925812 24.0428307 114.520508 184.476622 114.037814 184.642949 80.6098876 24.2091577"></polygon>
                            <polygon id="路径" points="83.0986241 23.3350768 116.526551 183.768868 116.043857 183.935195 82.6159305 23.5014039"></polygon>
                            <polygon id="路径" points="85.7578755 23.387223 119.185802 183.821014 118.703108 183.987341 85.2751819 23.5535501"></polygon>
                            <polygon id="路径" points="87.0991056 22.6664326 120.527032 183.100223 120.044339 183.26655 86.616412 22.8327597"></polygon>
                            <polygon id="路径" points="89.1051485 21.9586787 122.533075 182.39247 122.050381 182.558797 88.6224549 22.1250058"></polygon>
                            <polygon id="路径" points="91.1111914 21.2509249 124.539118 181.684716 124.056424 181.851043 90.6284978 21.4172519"></polygon>
                            <polygon id="路径" points="93.7704428 21.3030711 127.198369 181.736862 126.715676 181.903189 93.2877492 21.4693981"></polygon>
                            <polygon id="路径" points="95.1232772 19.8354171 128.551204 180.269208 128.06851 180.435535 94.6405836 20.0017442"></polygon>
                            <polygon id="路径" points="97.1293201 19.1276633 130.557247 179.561454 130.074553 179.727781 96.6466265 19.2939903"></polygon>
                            <polygon id="路径" points="99.8001759 18.4329459 133.228102 178.866737 132.745409 179.033064 99.3174823 18.599273"></polygon>
                            <polygon id="路径" points="101.806219 17.7251921 135.234145 178.158983 134.751452 178.32531 101.323525 17.8915191"></polygon>
                            <polygon id="路径" points="103.800657 17.7643017 137.228584 178.198093 136.74589 178.36442 103.317964 17.9306288"></polygon>
                            <polygon id="路径" points="105.141887 17.0435113 138.569814 177.477302 138.08712 177.643629 104.659194 17.2098383"></polygon>
                            <polygon id="路径" points="107.812743 16.348794 141.24067 176.782585 140.757976 176.948912 107.33005 16.515121"></polygon>
                            <polygon id="路径" points="109.83039 14.8941766 143.258317 175.327967 142.775623 175.494294 109.347697 15.0605036"></polygon>
                            <polygon id="路径" points="111.836433 14.1864227 145.26436 174.620214 144.781666 174.786541 111.35374 14.3527498"></polygon>
                            <polygon id="路径" points="113.166059 14.2124958 146.593986 174.646287 146.111292 174.812614 112.683365 14.3788229"></polygon>
                            <polygon id="路径" points="115.836915 13.5177785 149.264841 173.951569 148.782148 174.117896 115.354221 13.6841055"></polygon>
                            <polygon id="路径" points="117.854562 12.0631611 151.282489 172.496952 150.799795 172.663279 117.371868 12.2294882"></polygon>
                            <polygon id="路径" points="119.860605 11.3554072 153.288531 171.789198 152.805838 171.955525 119.377911 11.5217343"></polygon>
                            <polygon id="路径" points="121.190231 11.3814803 154.618157 171.815271 154.135464 171.981598 120.707537 11.5478074"></polygon>
                            <polygon id="路径" points="123.872691 9.9398995 157.300617 170.37369 156.817924 170.540017 123.389997 10.1062265"></polygon>
                            <polygon id="路径" points="125.878734 9.23214563 159.30666 169.665936 158.823967 169.832263 125.39604 9.39847267"></polygon>
                            <polygon id="路径" points="127.884777 8.52439176 161.312703 168.958183 160.830009 169.12451 127.402083 8.6907188"></polygon>
                            <polygon id="路径" points="129.902424 7.06977437 163.33035 167.503565 162.847657 167.669892 129.41973 7.23610141"></polygon>
                            <polygon id="路径" points="131.896862 7.10888402 165.324789 167.542675 164.842095 167.709002 131.414169 7.27521106"></polygon>
                            <polygon id="路径" points="133.902905 6.40113015 167.330832 166.834921 166.848138 167.001248 133.420212 6.56745719"></polygon>
                            <polygon id="路径" points="135.920553 4.94651276 169.348479 165.380304 168.865785 165.546631 135.437859 5.11283979"></polygon>
                            <polygon id="路径" points="137.926595 4.23875888 171.354522 164.67255 170.871828 164.838877 137.443902 4.40508592"></polygon>
                            <polygon id="路径" points="139.932638 3.53100501 173.360565 163.964796 172.877871 164.131123 139.449945 3.69733205"></polygon>
                            <polygon id="路径" points="141.927077 3.57011467 175.355003 164.003905 174.87231 164.170233 141.444383 3.73644171"></polygon>
                            <polygon id="路径" points="144.597933 2.87539735 178.025859 163.309188 177.543166 163.475515 144.115239 3.04172439"></polygon>
                            <polygon id="路径" points="145.939163 2.15460693 179.367089 162.588398 178.884396 162.754725 145.456469 2.32093397"></polygon>
                            <polygon id="路径" points="147.95681 0.699989534 181.384737 161.13378 180.902043 161.300107 147.474116 0.866316573"></polygon>
                            <polygon id="路径" points="149.951249 0.739099188 183.379175 161.17289 182.896481 161.339217 149.468555 0.905426227"></polygon>
                            <polygon id="路径" points="152.622104 0.0443818686 186.050031 160.478173 185.567337 160.6445 152.139411 0.210708908"></polygon>
                        </g>
                    </g>
                    <g id="编组-56备份-2" mask="url(#mask-2)" fill="#ACAEAC" fill-rule="nonzero">
                        <g transform="translate(159.000000, -85.000000)">
                            <polygon id="路径" points="16.2343954 46.677918 49.6623219 207.111709 49.1796283 207.278036 15.7517018 46.844245"></polygon>
                            <polygon id="路径备份-30" points="7.42600257 14.3802747 40.8539291 174.814066 40.3712355 174.980393 6.94330896 14.5466018"></polygon>
                            <polygon id="路径备份-31" points="6.04995946 17.3416557 39.477886 177.775447 38.9951924 177.941774 5.56726586 17.5079828"></polygon>
                            <polygon id="路径备份-32" points="4.62749895 23.2904908 38.0554255 183.724282 37.5727319 183.890609 4.14480534 23.4568179"></polygon>
                            <polygon id="路径备份-33" points="3.89305999 27.7586354 37.3209866 188.192426 36.8382929 188.358753 3.41036638 27.9249625"></polygon>
                            <polygon id="路径备份-34" points="3.07739057 37.4548247 36.5053171 197.888616 36.0226235 198.054943 2.59469696 37.6211517"></polygon>
                            <polygon id="路径备份-35" points="10.90619 88.6581237 36.3776693 206.104114 35.8949757 206.270441 10.4234963 88.8244507"></polygon>
                            <polygon id="路径备份-36" points="8.32630554 87.1375689 41.7542321 247.57136 41.2715385 247.737687 7.84361193 87.303896"></polygon>
                            <polygon id="路径备份-37" points="5.71176823 87.1375689 39.1396948 247.57136 38.6570012 247.737687 5.22907462 87.303896"></polygon>
                            <polygon id="路径备份-38" points="3.09332996 86.1584951 38.5198998 260.037469 38.0411072 260.204204 2.61453731 86.3252308"></polygon>
                            <polygon id="路径备份-39" points="0.475983852 86.1584951 37.9001049 269.748086 37.424121 269.914909 2.84217094e-14 86.3253178"></polygon>
                            <polygon id="路径" points="20.7861756 57.1998727 51.5637231 208.668943 51.090307 208.836263 20.3127595 57.3671932"></polygon>
                            <polygon id="路径" points="23.445573 58.7394552 53.5581111 207.220606 53.0845995 207.387936 22.9720615 58.9067857"></polygon>
                            <polygon id="路径" points="26.1026302 59.5320604 55.552499 206.518459 55.0812324 206.686587 25.6313635 59.7001882"></polygon>
                            <polygon id="路径" points="28.0892741 61.8119882 57.5353332 205.811233 57.0602569 205.978606 27.6141977 61.9793606"></polygon>
                            <polygon id="路径" points="31.4177424 62.6176869 60.2003361 204.376395 59.7267086 204.543372 30.9441148 62.7846641"></polygon>
                            <polygon id="路径" points="33.4059758 64.8976146 62.1831703 203.669349 61.7041435 203.835391 32.926949 65.0636569"></polygon>
                            <polygon id="路径" points="35.3864992 66.4240468 63.5011411 203.700838 63.0244757 203.867869 34.9098338 66.5910772"></polygon>
                            <polygon id="路径" points="37.3934502 67.2101906 65.5013818 202.246612 65.0180061 202.413081 36.9100746 67.3766597"></polygon>
                            <polygon id="路径" points="40.7085391 68.7627528 68.1547804 201.558122 67.6746286 201.724711 40.2283873 68.9293419"></polygon>
                            <polygon id="路径" points="42.6916135 71.0426237 70.1318124 201.596995 69.6456182 201.76365 42.2054193 71.2092787"></polygon>
                            <polygon id="路径" points="45.3502884 71.8352289 72.1262003 200.894757 71.6406333 201.062301 44.8647214 72.0027727"></polygon>
                            <polygon id="路径" points="48.0080759 73.3748114 74.1205882 199.447538 73.6365357 199.613974 47.5240234 73.5412472"></polygon>
                            <polygon id="路径" points="50.0065128 74.1608984 76.1150268 198.739154 75.626976 198.906106 49.518462 74.3278503"></polygon>
                            <polygon id="路径" points="51.8882812 70.4933142 76.6859704 193.57693 76.216923 193.744567 51.4192338 70.660952"></polygon>
                            <polygon id="路径" points="53.6361402 70.4933142 78.4289953 189.843002 77.9551137 190.009681 53.1622587 70.6599935"></polygon>
                            <polygon id="路径" points="56.2508599 68.5351666 80.3786185 186.391183 79.9045545 186.557579 55.776796 68.7015628"></polygon>
                            <polygon id="路径" points="57.9857218 68.5351666 82.1216433 187.886113 81.6557424 188.051533 57.5198209 68.7005866"></polygon>
                            <polygon id="路径" points="59.7301275 67.5560928 84.5295823 190.639655 84.0623005 190.807346 59.2628457 67.7237842"></polygon>
                            <polygon id="路径" points="60.6154969 64.6188713 86.730923 189.944023 86.2497843 190.111056 60.1343582 64.7859053"></polygon>
                            <polygon id="路径" points="64.0521385 66.9722646 90.8279928 195.285009 90.3423681 195.452359 63.5665138 67.1396149"></polygon>
                            <polygon id="路径" points="65.4256 62.5169859 92.2098381 193.070872 91.7325972 193.238012 64.9483591 62.6841255"></polygon>
                            <polygon id="路径" points="66.786344 59.5619525 94.2333382 192.357126 93.7539392 192.523911 66.3069451 59.7287375"></polygon>
                            <polygon id="路径" points="68.8103593 56.6199557 96.9216511 191.656536 96.4416356 191.822846 68.3303439 56.7862652"></polygon>
                            <polygon id="路径" points="70.1509122 54.4052676 98.2686833 191.682653 97.7951472 191.849089 69.6773761 54.5717037"></polygon>
                            <polygon id="路径" points="70.8803067 48.4560912 100.321245 190.21495 99.8410476 190.381777 70.4001094 48.6229179"></polygon>
                            <polygon id="路径" points="72.890586 46.2544396 102.33309 190.253103 101.854458 190.421057 72.4119545 46.4223938"></polygon>
                            <polygon id="路径" points="74.254249 43.2994631 104.362392 188.793043 103.884486 188.960035 73.7763426 43.4664556"></polygon>
                            <polygon id="路径" points="75.6130064 39.5974525 106.385892 188.825549 105.907814 188.992911 75.1349286 39.7648142"></polygon>
                            <polygon id="路径" points="77.6317925 36.6489374 108.409342 188.117495 107.935927 188.285328 77.158378 36.81677"></polygon>
                            <polygon id="路径" points="79.6468753 34.4473427 110.426989 187.411152 109.956139 187.577688 79.1760253 34.613878"></polygon>
                            <polygon id="路径" points="79.074934 25.4974481 112.502861 185.931239 112.020167 186.097566 78.5922403 25.6637751"></polygon>
                            <polygon id="路径" points="81.0925812 24.0428307 114.520508 184.476622 114.037814 184.642949 80.6098876 24.2091577"></polygon>
                            <polygon id="路径" points="83.0986241 23.3350768 116.526551 183.768868 116.043857 183.935195 82.6159305 23.5014039"></polygon>
                            <polygon id="路径" points="85.7578755 23.387223 119.185802 183.821014 118.703108 183.987341 85.2751819 23.5535501"></polygon>
                            <polygon id="路径" points="87.0991056 22.6664326 120.527032 183.100223 120.044339 183.26655 86.616412 22.8327597"></polygon>
                            <polygon id="路径" points="89.1051485 21.9586787 122.533075 182.39247 122.050381 182.558797 88.6224549 22.1250058"></polygon>
                            <polygon id="路径" points="91.1111914 21.2509249 124.539118 181.684716 124.056424 181.851043 90.6284978 21.4172519"></polygon>
                            <polygon id="路径" points="93.7704428 21.3030711 127.198369 181.736862 126.715676 181.903189 93.2877492 21.4693981"></polygon>
                            <polygon id="路径" points="95.1232772 19.8354171 128.551204 180.269208 128.06851 180.435535 94.6405836 20.0017442"></polygon>
                            <polygon id="路径" points="97.1293201 19.1276633 130.557247 179.561454 130.074553 179.727781 96.6466265 19.2939903"></polygon>
                            <polygon id="路径" points="99.8001759 18.4329459 133.228102 178.866737 132.745409 179.033064 99.3174823 18.599273"></polygon>
                            <polygon id="路径" points="101.806219 17.7251921 135.234145 178.158983 134.751452 178.32531 101.323525 17.8915191"></polygon>
                            <polygon id="路径" points="103.800657 17.7643017 137.228584 178.198093 136.74589 178.36442 103.317964 17.9306288"></polygon>
                            <polygon id="路径" points="105.141887 17.0435113 138.569814 177.477302 138.08712 177.643629 104.659194 17.2098383"></polygon>
                            <polygon id="路径" points="107.812743 16.348794 141.24067 176.782585 140.757976 176.948912 107.33005 16.515121"></polygon>
                            <polygon id="路径" points="109.83039 14.8941766 143.258317 175.327967 142.775623 175.494294 109.347697 15.0605036"></polygon>
                            <polygon id="路径" points="111.836433 14.1864227 145.26436 174.620214 144.781666 174.786541 111.35374 14.3527498"></polygon>
                            <polygon id="路径" points="113.166059 14.2124958 146.593986 174.646287 146.111292 174.812614 112.683365 14.3788229"></polygon>
                            <polygon id="路径" points="115.836915 13.5177785 149.264841 173.951569 148.782148 174.117896 115.354221 13.6841055"></polygon>
                            <polygon id="路径" points="117.854562 12.0631611 151.282489 172.496952 150.799795 172.663279 117.371868 12.2294882"></polygon>
                            <polygon id="路径" points="119.860605 11.3554072 153.288531 171.789198 152.805838 171.955525 119.377911 11.5217343"></polygon>
                            <polygon id="路径" points="121.190231 11.3814803 154.618157 171.815271 154.135464 171.981598 120.707537 11.5478074"></polygon>
                            <polygon id="路径" points="123.872691 9.9398995 157.300617 170.37369 156.817924 170.540017 123.389997 10.1062265"></polygon>
                            <polygon id="路径" points="125.878734 9.23214563 159.30666 169.665936 158.823967 169.832263 125.39604 9.39847267"></polygon>
                            <polygon id="路径" points="127.884777 8.52439176 161.312703 168.958183 160.830009 169.12451 127.402083 8.6907188"></polygon>
                            <polygon id="路径" points="129.902424 7.06977437 163.33035 167.503565 162.847657 167.669892 129.41973 7.23610141"></polygon>
                            <polygon id="路径" points="131.896862 7.10888402 165.324789 167.542675 164.842095 167.709002 131.414169 7.27521106"></polygon>
                            <polygon id="路径" points="133.902905 6.40113015 167.330832 166.834921 166.848138 167.001248 133.420212 6.56745719"></polygon>
                            <polygon id="路径" points="135.920553 4.94651276 169.348479 165.380304 168.865785 165.546631 135.437859 5.11283979"></polygon>
                            <polygon id="路径" points="137.926595 4.23875888 171.354522 164.67255 170.871828 164.838877 137.443902 4.40508592"></polygon>
                            <polygon id="路径" points="139.932638 3.53100501 173.360565 163.964796 172.877871 164.131123 139.449945 3.69733205"></polygon>
                            <polygon id="路径" points="141.927077 3.57011467 175.355003 164.003905 174.87231 164.170233 141.444383 3.73644171"></polygon>
                            <polygon id="路径" points="144.597933 2.87539735 178.025859 163.309188 177.543166 163.475515 144.115239 3.04172439"></polygon>
                            <polygon id="路径" points="145.939163 2.15460693 179.367089 162.588398 178.884396 162.754725 145.456469 2.32093397"></polygon>
                            <polygon id="路径" points="147.95681 0.699989534 181.384737 161.13378 180.902043 161.300107 147.474116 0.866316573"></polygon>
                            <polygon id="路径" points="149.951249 0.739099188 183.379175 161.17289 182.896481 161.339217 149.468555 0.905426227"></polygon>
                            <polygon id="路径" points="152.622104 0.0443818686 186.050031 160.478173 185.567337 160.6445 152.139411 0.210708908"></polygon>
                        </g>
                    </g>
                    <g id="编组-56备份-3" mask="url(#mask-2)" fill="#ACAEAC" fill-rule="nonzero">
                        <g transform="translate(329.000000, -87.000000)">
                            <polygon id="路径" points="16.2343954 46.677918 49.6623219 207.111709 49.1796283 207.278036 15.7517018 46.844245"></polygon>
                            <polygon id="路径备份-30" points="7.42600257 14.3802747 40.8539291 174.814066 40.3712355 174.980393 6.94330896 14.5466018"></polygon>
                            <polygon id="路径备份-31" points="6.04995946 17.3416557 39.477886 177.775447 38.9951924 177.941774 5.56726586 17.5079828"></polygon>
                            <polygon id="路径备份-32" points="4.62749895 23.2904908 38.0554255 183.724282 37.5727319 183.890609 4.14480534 23.4568179"></polygon>
                            <polygon id="路径备份-33" points="3.89305999 27.7586354 37.3209866 188.192426 36.8382929 188.358753 3.41036638 27.9249625"></polygon>
                            <polygon id="路径备份-34" points="3.07739057 37.4548247 36.5053171 197.888616 36.0226235 198.054943 2.59469696 37.6211517"></polygon>
                            <polygon id="路径备份-35" points="10.90619 88.6581237 36.3776693 206.104114 35.8949757 206.270441 10.4234963 88.8244507"></polygon>
                            <polygon id="路径备份-36" points="8.32630554 87.1375689 41.7542321 247.57136 41.2715385 247.737687 7.84361193 87.303896"></polygon>
                            <polygon id="路径备份-37" points="5.71176823 87.1375689 39.1396948 247.57136 38.6570012 247.737687 5.22907462 87.303896"></polygon>
                            <polygon id="路径备份-38" points="3.09332996 86.1584951 38.5198998 260.037469 38.0411072 260.204204 2.61453731 86.3252308"></polygon>
                            <polygon id="路径备份-39" points="0.475983852 86.1584951 37.9001049 269.748086 37.424121 269.914909 2.84217094e-14 86.3253178"></polygon>
                            <polygon id="路径" points="20.7861756 57.1998727 51.5637231 208.668943 51.090307 208.836263 20.3127595 57.3671932"></polygon>
                            <polygon id="路径" points="23.445573 58.7394552 53.5581111 207.220606 53.0845995 207.387936 22.9720615 58.9067857"></polygon>
                            <polygon id="路径" points="26.1026302 59.5320604 55.552499 206.518459 55.0812324 206.686587 25.6313635 59.7001882"></polygon>
                            <polygon id="路径" points="28.0892741 61.8119882 57.5353332 205.811233 57.0602569 205.978606 27.6141977 61.9793606"></polygon>
                            <polygon id="路径" points="31.4177424 62.6176869 60.2003361 204.376395 59.7267086 204.543372 30.9441148 62.7846641"></polygon>
                            <polygon id="路径" points="33.4059758 64.8976146 62.1831703 203.669349 61.7041435 203.835391 32.926949 65.0636569"></polygon>
                            <polygon id="路径" points="35.3864992 66.4240468 63.5011411 203.700838 63.0244757 203.867869 34.9098338 66.5910772"></polygon>
                            <polygon id="路径" points="37.3934502 67.2101906 65.5013818 202.246612 65.0180061 202.413081 36.9100746 67.3766597"></polygon>
                        </g>
                    </g>
                </g>
                <line x1="15.2218854" y1="93.3426037" x2="356.777173" y2="94.2589424" id="路径-87" stroke="#333333"></line>
                <polyline id="路径-102" stroke="#333333" points="0 61.1649165 33.7597944 61.0078543 72.195122 60.8290398"></polyline>
            </g>
            <rect id="矩形" fill="#333333" x="65.3658537" y="71.2412178" width="35.1219512" height="17.5362998" rx="2"></rect>
            <rect id="矩形" fill="#FFFFFF" x="70.2439024" y="75.6252927" width="25.3658537" height="8.76814988" rx="3.5"></rect>
            <rect id="矩形" fill="#333333" x="101.463415" y="71.2412178" width="4.87804878" height="7.67213115"></rect>
            <rect id="矩形备份-84" fill="#333333" x="101.463415" y="80.0093677" width="4.87804878" height="7.67213115"></rect>
            <rect id="矩形备份-86" fill="#333333" x="81.9512195" y="100.833724" width="1.95121951" height="3.28805621"></rect>
            <rect id="矩形备份-87" fill="#333333" x="84.8780488" y="100.833724" width="1.95121951" height="3.28805621"></rect>
            <rect id="矩形备份-88" fill="#333333" x="76.097561" y="100.833724" width="1.95121951" height="3.28805621"></rect>
            <rect id="矩形备份-89" fill="#333333" x="72.195122" y="100.833724" width="1.95121951" height="3.28805621"></rect>
            <rect id="矩形备份-143" fill="#333333" x="64.3902439" y="100.833724" width="1.95121951" height="3.28805621"></rect>
            <rect id="矩形备份-141" fill="#333333" x="56.5853659" y="100.833724" width="1.95121951" height="3.28805621"></rect>
            <rect id="矩形备份-142" fill="#333333" x="43.902439" y="100.833724" width="1.95121951" height="3.28805621"></rect>
            <rect id="矩形备份-144" fill="#333333" x="36.097561" y="100.833724" width="1.95121951" height="3.28805621"></rect>
            <rect id="矩形备份-90" fill="#333333" x="74.1463415" y="90.969555" width="1.95121951" height="3.28805621"></rect>
            <rect id="矩形备份-94" fill="#333333" x="67.3170732" y="90.969555" width="1.95121951" height="3.28805621"></rect>
            <rect id="矩形备份-95" fill="#333333" x="62.4390244" y="90.969555" width="1.95121951" height="3.28805621"></rect>
            <rect id="矩形备份-111" fill="#333333" x="60.4878049" y="81.1053864" width="1.95121951" height="3.28805621"></rect>
            <rect id="矩形备份-116" fill="#333333" x="61.4634146" y="71.2412178" width="1.95121951" height="3.28805621"></rect>
            <rect id="矩形备份-153" fill="#333333" x="55.6097561" y="71.2412178" width="1.95121951" height="3.28805621"></rect>
            <rect id="矩形备份-154" fill="#333333" x="48.7804878" y="71.2412178" width="1.95121951" height="3.28805621"></rect>
            <rect id="矩形备份-155" fill="#333333" x="40.9756098" y="71.2412178" width="1.95121951" height="3.28805621"></rect>
            <rect id="矩形备份-117" fill="#333333" x="61.4634146" y="65.7611241" width="1.95121951" height="3.28805621"></rect>
            <rect id="矩形备份-151" fill="#333333" x="55.6097561" y="65.7611241" width="1.95121951" height="3.28805621"></rect>
            <rect id="矩形备份-152" fill="#333333" x="48.7804878" y="65.7611241" width="1.95121951" height="3.28805621"></rect>
            <rect id="矩形备份-118" fill="#333333" x="67.3170732" y="62.4730679" width="1.95121951" height="3.28805621"></rect>
            <rect id="矩形备份-119" fill="#333333" x="71.2195122" y="62.4730679" width="1.95121951" height="3.28805621"></rect>
            <rect id="矩形备份-120" fill="#333333" x="79.0243902" y="62.4730679" width="1.95121951" height="3.28805621"></rect>
            <rect id="矩形备份-121" fill="#333333" x="84.8780488" y="62.4730679" width="1.95121951" height="3.28805621"></rect>
            <rect id="矩形备份-122" fill="#333333" x="91.7073171" y="62.4730679" width="1.95121951" height="3.28805621"></rect>
            <rect id="矩形备份-123" fill="#333333" x="96.5853659" y="62.4730679" width="1.95121951" height="3.28805621"></rect>
            <rect id="矩形备份-124" fill="#333333" x="100.487805" y="62.4730679" width="1.95121951" height="3.28805621"></rect>
            <rect id="矩形备份-125" fill="#333333" x="105.365854" y="62.4730679" width="1.95121951" height="3.28805621"></rect>
            <rect id="矩形备份-126" fill="#333333" x="109.268293" y="62.4730679" width="1.95121951" height="3.28805621"></rect>
            <rect id="矩形备份-156" fill="#333333" x="116.097561" y="62.4730679" width="1.95121951" height="3.28805621"></rect>
            <rect id="矩形备份-112" fill="#333333" x="52.6829268" y="81.1053864" width="1.95121951" height="3.28805621"></rect>
            <rect id="矩形备份-113" fill="#333333" x="45.8536585" y="81.1053864" width="1.95121951" height="3.28805621"></rect>
            <rect id="矩形备份-114" fill="#333333" x="39.0243902" y="81.1053864" width="1.95121951" height="3.28805621"></rect>
            <rect id="矩形备份-115" fill="#333333" x="32.195122" y="81.1053864" width="1.95121951" height="3.28805621"></rect>
            <rect id="矩形备份-140" fill="#333333" x="21.4634146" y="81.1053864" width="1.95121951" height="3.28805621"></rect>
            <rect id="矩形备份-96" fill="#333333" x="54.6341463" y="90.969555" width="1.95121951" height="3.28805621"></rect>
            <rect id="矩形备份-97" fill="#333333" x="48.7804878" y="90.969555" width="1.95121951" height="3.28805621"></rect>
            <rect id="矩形备份-98" fill="#333333" x="41.9512195" y="90.969555" width="1.95121951" height="3.28805621"></rect>
            <rect id="矩形备份-136" fill="#333333" x="35.1219512" y="90.969555" width="1.95121951" height="3.28805621"></rect>
            <rect id="矩形备份-137" fill="#333333" x="27.3170732" y="90.969555" width="1.95121951" height="3.28805621"></rect>
            <rect id="矩形备份-138" fill="#333333" x="18.5365854" y="90.969555" width="1.95121951" height="3.28805621"></rect>
            <rect id="矩形备份-139" fill="#333333" x="8.7804878" y="90.969555" width="1.95121951" height="3.28805621"></rect>
            <rect id="矩形备份-91" fill="#333333" x="80" y="90.969555" width="1.95121951" height="3.28805621"></rect>
            <rect id="矩形备份-92" fill="#333333" x="85.8536585" y="90.969555" width="1.95121951" height="3.28805621"></rect>
            <rect id="矩形备份-93" fill="#333333" x="92.6829268" y="90.969555" width="1.95121951" height="3.28805621"></rect>
            <rect id="矩形备份-99" fill="#333333" x="114.146341" y="90.969555" width="1.95121951" height="3.28805621"></rect>
            <rect id="矩形备份-107" fill="#333333" x="116.097561" y="100.833724" width="1.95121951" height="3.28805621"></rect>
            <rect id="矩形备份-108" fill="#333333" x="120" y="100.833724" width="1.95121951" height="3.28805621"></rect>
            <rect id="矩形备份-109" fill="#333333" x="126.829268" y="100.833724" width="1.95121951" height="3.28805621"></rect>
            <rect id="矩形备份-110" fill="#333333" x="131.707317" y="100.833724" width="1.95121951" height="3.28805621"></rect>
            <rect id="矩形备份-145" fill="#333333" x="138.536585" y="100.833724" width="1.95121951" height="3.28805621"></rect>
            <rect id="矩形备份-146" fill="#333333" x="147.317073" y="100.833724" width="1.95121951" height="3.28805621"></rect>
            <rect id="矩形备份-150" fill="#333333" x="155.121951" y="100.833724" width="1.95121951" height="3.28805621"></rect>
            <rect id="矩形备份-127" fill="#333333" x="122.926829" y="117.274005" width="1.95121951" height="3.28805621"></rect>
            <rect id="矩形备份-128" fill="#333333" x="132.682927" y="113.985948" width="4.87804878" height="3.28805621"></rect>
            <rect id="矩形备份-132" fill="#333333" x="140.487805" y="115.274005" width="1.95121951" height="9.86416862"></rect>
            <rect id="矩形备份-133" fill="#333333" x="106.341463" y="115.274005" width="1.95121951" height="9.86416862"></rect>
            <rect id="矩形备份-129" fill="#333333" x="160.97561" y="113.985948" width="4.87804878" height="3.28805621"></rect>
            <rect id="矩形备份-130" fill="#333333" x="173.658537" y="113.985948" width="4.87804878" height="3.28805621"></rect>
            <rect id="矩形备份-131" fill="#333333" x="182.439024" y="113.985948" width="4.87804878" height="3.28805621"></rect>
            <rect id="矩形备份-134" fill="#333333" x="332.682927" y="117.274005" width="4.87804878" height="3.28805621"></rect>
            <rect id="矩形备份-100" fill="#333333" x="120" y="90.969555" width="1.95121951" height="3.28805621"></rect>
            <rect id="矩形备份-101" fill="#333333" x="125.853659" y="90.969555" width="1.95121951" height="3.28805621"></rect>
            <rect id="矩形备份-102" fill="#333333" x="130.731707" y="90.969555" width="1.95121951" height="3.28805621"></rect>
            <rect id="矩形备份-147" fill="#333333" x="139.512195" y="90.969555" width="1.95121951" height="3.28805621"></rect>
            <rect id="矩形备份-148" fill="#333333" x="147.317073" y="90.969555" width="1.95121951" height="3.28805621"></rect>
            <rect id="矩形备份-149" fill="#333333" x="156.097561" y="90.969555" width="1.95121951" height="3.28805621"></rect>
            <rect id="矩形备份-103" fill="#333333" x="130.731707" y="81.1053864" width="1.95121951" height="3.28805621"></rect>
            <rect id="矩形备份-104" fill="#333333" x="125.853659" y="81.1053864" width="1.95121951" height="3.28805621"></rect>
            <rect id="矩形备份-105" fill="#333333" x="120" y="81.1053864" width="1.95121951" height="3.28805621"></rect>
            <rect id="矩形备份-106" fill="#333333" x="114.146341" y="81.1053864" width="1.95121951" height="3.28805621"></rect>
            <rect id="矩形" fill="#333333" x="96.5853659" y="99.7377049" width="16.5853659" height="7.67213115"></rect>
            <rect id="矩形备份-83" fill="#333333" x="107.317073" y="71.2412178" width="4.87804878" height="7.67213115"></rect>
            <rect id="矩形备份-85" fill="#333333" x="107.317073" y="80.0093677" width="4.87804878" height="7.67213115"></rect>
            <path d="M1.97560976,34.9765808 L1.97560976,46.1288056 L56.0173374,46.1288056 L57.7448252,44.0307545 L62.3509879,44.0307545 L62.4146341,43.9667265 L62.4146341,34.9765808 L1.97560976,34.9765808 Z M62.4146341,44.0307545 L62.7669543,44.0307545 L62.7669543,44.3791893 L62.4146341,44.3791893 L62.4146341,44.0307545 Z" id="矩形" stroke="#333333" stroke-width="2" fill="#FFFFFF"></path>
            <ellipse id="椭圆形" fill="#333333" cx="216.097561" cy="24.6604215" rx="2.43902439" ry="2.74004684"></ellipse>
            <g id="编组-56备份" transform="translate(198.048780, 6.576112)">
                <mask id="mask-4" fill="white">
                    <use xlink:href="#path-3"></use>
                </mask>
                <path stroke="#333333" stroke-width="2" d="M87.3986918,1.4364017 C83.9983812,12.5362023 81.1248947,21.9385422 78.7786737,29.6419673 L72.7975281,49.3949162 L11.4326547,32.3294646 L11.4327662,30.3821788 L1,30.3821788 L1,41.2041186 L11.4327425,41.2041186 L11.4325987,39.4294234 L72.0276089,51.9830375 L71.2305524,54.7299244 L71.1184869,54.8776279 C69.6542068,56.8075641 68.8154008,59.3894573 68.8154008,62.1493582 C68.8154008,64.2179275 69.7274641,66.9144357 71.5783778,70.2073256 L71.7800776,70.566162 L65.4246308,93.6271525 L65.4246308,105.313817 L88.2902778,105.313817 L88.2902778,93.6306824 L81.72565,70.4393149 L82.0943839,70.0291291 C83.8586629,68.0665153 84.8995077,65.2216559 84.8995077,62.1493582 C84.8995077,59.9098591 84.3483051,57.7820553 83.3447012,56.0153506 L83.1816076,55.7282471 L89.6548103,2.59741739 L87.3986918,1.4364017 Z"></path>
            </g>
            <ellipse id="椭圆形" stroke="#333333" stroke-width="2" fill="#FFFFFF" cx="287.317073" cy="5.48009368" rx="3.3902439" ry="4.48009368"></ellipse>
            <ellipse id="椭圆形备份-51" stroke="#333333" stroke-width="2" fill="#FFFFFF" cx="271.707317" cy="37.264637" rx="3.3902439" ry="4.48009368"></ellipse>
            <ellipse id="椭圆形备份-50" stroke="#333333" stroke-width="2" fill="#FFFFFF" cx="288.780488" cy="67.4051522" rx="4.85365854" ry="6.12412178"></ellipse>
            <polyline id="路径-88" stroke="#333333" stroke-width="2" points="276.585366 36.1686183 271.219512 17.5362998 281.95122 18.5852804"></polyline>
            <polygon id="路径-88备份" stroke="#333333" stroke-width="2" points="202.102518 36.1686183 199.02439 18.6323185 214.634146 23.0159938 205.310289 36.1686183"></polygon>
            <polyline id="路径-89" stroke="#333333" points="209.756098 37.7028286 283.902439 3.28805621 213.135322 38.3606557"></polyline>
            <path d="M209.756098,38.1229518 C238.704014,38.9752409 258.568764,37.5356134 269.350348,33.8040694 C280.131931,30.0725254 260.267181,31.5121528 209.756098,38.1229518 Z" id="路径-90" stroke="#333333"></path>
            <path d="M218.536585,23.0163934 C231.526033,24.6668865 241.302009,25.7508153 247.864512,26.2681796 C254.427015,26.785544 263.187625,27.1629736 274.146341,27.4004684" id="路径-91" stroke="#333333"></path>
            <path d="M217.560976,26.3044496 C230.628166,27.5824891 240.462652,28.4218163 247.064432,28.8224312 C253.666212,29.2230461 263.018718,29.4797376 275.121951,29.5925059" id="路径-91备份" stroke="#333333"></path>
            <path d="M217.372439,22.2976066 C230.397799,23.404545 240.203917,24.0965911 246.790795,24.3737448 C253.377673,24.6508986 261.9875,24.7468484 272.620278,24.6615942" id="路径-91备份-2" stroke="#333333" transform="translate(244.996359, 23.494642) rotate(-6.000000) translate(-244.996359, -23.494642) "></path>
            <polyline id="路径-92" stroke="#333333" stroke-width="2" points="193.081661 64.6651054 184.390244 34.2261423 198.04878 17.5362998"></polyline>
            <rect id="矩形" fill="#333333" x="182.439024" y="29.5925059" width="6.82926829" height="5.48009368"></rect>
            <line x1="199.02439" y1="38.3606557" x2="188.292683" y2="33.9765808" id="路径-93" stroke="#333333" stroke-width="2"></line>
            <path d="M207.574191,48.1288056 L206.887601,48.1288056 L209.616686,111.88993 L216.412793,111.88993 L207.574191,48.1288056 Z M201.470232,48.1288056 L200.767913,48.1288056 L194.219043,101.70346 L199.247844,107.221059 L202.303262,109.631502 L200.693867,105.081831 L201.470232,48.1288056 Z" id="形状结合" stroke="#333333" stroke-width="2" fill="#FFFFFF"></path>
            <ellipse id="椭圆形" stroke="#333333" stroke-width="2" fill="#FFFFFF" cx="204.390244" cy="61.9250585" rx="6.31707317" ry="8.31615925"></ellipse>
            <path d="M188.412107,82.3149093 L185.390244,93.0870666 L185.390244,107.505855 L198.02439,107.505855 L198.02439,93.0870666 L195.002528,82.3149126 L194.647242,82.313701 L194.647277,65.6651054 L188.767348,65.6651054 L188.767237,82.3136966 L188.412107,82.3149093 Z" id="形状结合" stroke="#333333" stroke-width="2" fill="#FFFFFF"></path>
            <polygon id="路径-94" fill="#333333" points="208.474896 73.4332553 200 109.601874 202.569881 109.601874 209.756098 77.184387"></polygon>
            <path d="M188.292683,64.927129 L131.511987,54.8294317 C129.883917,54.6117118 129.069882,54.819114 129.069882,55.4516384 C129.069882,56.0841628 128.68501,55.8767606 127.915267,54.8294317 C126.413079,51.6741115 125.07547,51.8815137 123.902439,55.4516384 C123.902439,55.4516384 124.309573,55.6671153 125.123841,56.0980693 L128.611813,61.4049939 L129.069882,65.6361784 C130.572303,67.543783 132.794814,69.1366081 135.737415,70.4146534 C138.680016,71.6926988 144.143281,74.1031701 152.12721,77.6460671 C151.766349,81.5572511 151.766349,83.5128431 152.12721,83.5128431 C152.668501,83.5128431 153.148949,84.3934426 153.785002,84.3934426 C154.421054,84.3934426 156.698113,80.9753937 156.698113,80.9753937 C156.698113,80.9753937 164.78741,82.6322435 164.78741,83.5128431 C164.78741,84.0999094 165.296648,84.0999094 166.315124,83.5128431 L158.280726,78.6088993 L158.280726,76.2975789 L153.785002,74.0859865 L152.724099,74.8311093 L133.537982,63.6880494 L130.957058,57.8745208 L150.118698,65.6361784 L168.512459,68.501171 L170.84162,70.4146534 L188.023466,82.2760053 L188.023466,80.6512309 L172.337514,69.4504975 L188.292683,68.0098854 L188.292683,64.927129 Z" id="路径-95" stroke="#333333" stroke-width="2" fill="#FFFFFF"></path>
            <path d="M180.987805,84.8934426 L180.987805,107.917827 L184.504786,107.344991 L187.716078,84.8934426 L180.987805,84.8934426 Z" id="矩形" stroke="#333333"></path>
            <path d="M162.45122,104.62178 L162.45122,108.005855 L183.890244,108.005855 L183.890244,104.62178 L162.45122,104.62178 Z" id="矩形备份-69" stroke="#333333"></path>
            <path d="M162.45122,93.6615925 L162.45122,108.005855 L182.914634,108.005855 L182.914634,93.6615925 L162.45122,93.6615925 Z" id="矩形备份-69" stroke="#333333"></path>
            <path d="M162.45122,90.3735363 L162.45122,108.005855 L173.158537,108.005855 L173.158537,90.3735363 L162.45122,90.3735363 Z" id="矩形备份-69" stroke="#333333"></path>
            <path d="M168.304878,95.85363 L168.304878,108.005855 L179.012195,108.005855 L179.012195,95.85363 L168.304878,95.85363 Z" id="矩形备份-135" stroke="#333333"></path>
            <rect id="矩形备份-70" stroke="#333333" x="162.45122" y="99.1416862" width="3.87804878" height="8.86416862"></rect>
            <line x1="16.097561" y1="47.1288056" x2="16.097561" y2="80.0093677" id="路径-96" stroke="#333333" stroke-width="2"></line>
            <line x1="21.4634146" y1="46.0327869" x2="19.5121951" y2="78.9133489" id="路径-97" stroke="#333333" stroke-width="2"></line>
            <line x1="16.5853659" y1="70.6932084" x2="31.5240234" y2="70.6932084" id="路径-98" stroke="#333333" stroke-width="2"></line>
            <line x1="63.902439" y1="40.0046838" x2="112.195122" y2="40.0046838" id="路径-99" stroke="#333333"></line>
            <line x1="53.6585366" y1="48.7152702" x2="120.97561" y2="48.8303973" id="路径-100" stroke="#333333"></line>
            <line x1="49.7560976" y1="56.4449649" x2="118.04878" y2="56.4449649" id="路径-101" stroke="#333333"></line>
            <polygon id="矩形" fill="#333333" points="115.429816 50.4168618 119.02439 50.4168618 117.740915 54.8009368 114.146341 54.8009368"></polygon>
            <polygon id="矩形备份-78" fill="#333333" transform="translate(78.536585, 52.608899) scale(-1, 1) translate(-78.536585, -52.608899) " points="77.381036 50.4168618 80.9756098 50.4168618 79.6921348 54.8009368 76.097561 54.8009368"></polygon>
            <polygon id="矩形备份-71" fill="#333333" points="110.551768 50.4168618 114.146341 50.4168618 112.862866 54.8009368 109.268293 54.8009368"></polygon>
            <polygon id="矩形备份-79" fill="#333333" transform="translate(73.658537, 52.608899) scale(-1, 1) translate(-73.658537, -52.608899) " points="72.5029872 50.4168618 76.097561 50.4168618 74.814086 54.8009368 71.2195122 54.8009368"></polygon>
            <polygon id="矩形备份-72" fill="#333333" points="104.698109 50.4168618 108.292683 50.4168618 107.009208 54.8009368 103.414634 54.8009368"></polygon>
            <polygon id="矩形备份-80" fill="#333333" transform="translate(68.780488, 52.608899) scale(-1, 1) translate(-68.780488, -52.608899) " points="67.6249384 50.4168618 71.2195122 50.4168618 69.9360372 54.8009368 66.3414634 54.8009368"></polygon>
            <polygon id="矩形备份-73" fill="#333333" points="100.79567 50.4168618 104.390244 50.4168618 103.106769 54.8009368 99.5121951 54.8009368"></polygon>
            <polygon id="矩形备份-81" fill="#333333" transform="translate(63.902439, 52.608899) scale(-1, 1) translate(-63.902439, -52.608899) " points="62.7468896 50.4168618 66.3414634 50.4168618 65.0579884 54.8009368 61.4634146 54.8009368"></polygon>
            <polygon id="矩形备份-74" fill="#333333" points="95.9176213 50.4168618 99.5121951 50.4168618 98.2287201 54.8009368 94.6341463 54.8009368"></polygon>
            <polygon id="矩形备份-82" fill="#333333" transform="translate(59.024390, 52.608899) scale(-1, 1) translate(-59.024390, -52.608899) " points="57.8688408 50.4168618 61.4634146 50.4168618 60.1799396 54.8009368 56.5853659 54.8009368"></polygon>
            <polygon id="矩形备份-75" fill="#333333" points="91.010132 50.4168618 94.6341463 50.4168618 93.7180354 54.8009368 90.7317073 54.8009368"></polygon>
            <polygon id="矩形备份-77" fill="#333333" transform="translate(82.926829, 52.608899) scale(-1, 1) translate(-82.926829, -52.608899) " points="81.2540345 50.4168618 84.8780488 50.4168618 83.9619378 54.8009368 80.9756098 54.8009368"></polygon>
            <polygon id="矩形备份-76" fill="#333333" points="85.8536585 50.4168618 89.7560976 50.4168618 89.7560976 54.8009368 85.8536585 54.8009368"></polygon>
        </g>
    </g>
</svg>