<?xml version="1.0" encoding="UTF-8"?>
<svg width="294px" height="126px" viewBox="0 0 294 126" version="1.1" xmlns="http://www.w3.org/2000/svg" xmlns:xlink="http://www.w3.org/1999/xlink">
    <!-- Generator: Sketch 60 (88103) - https://sketch.com -->
    <title>未知</title>
    <desc>Created with Sketch.</desc>
    <defs>
        <path d="M0.982963533,39.9628064 C3.12602911,37.083111 11.5163139,35.9765967 26.1538179,36.6432633 C40.7913219,37.30993 57.7845999,38.4164444 77.1336521,39.9628064 L92.1509599,34.4628064 L96.1829842,26.9628064 C133.259332,7.14051896 162.122709,-1.5261477 182.773116,0.962806425 C200.209029,3.06432383 226.537791,32.2725825 262.236749,67.8964256 C266.6244,72.2748445 274.362818,74.3438953 285.452003,74.1035781 C287.917974,98.0943074 288.817627,110.661811 288.15096,111.80609 C287.15096,113.522508 193.391002,125.463393 98.270981,119.330474 C92.9682191,117.72992 61.2615454,92.3126366 3.15095992,43.0786236 L0.982963533,39.9628064 Z" id="path-1"></path>
    </defs>
    <g id="页面-1" stroke="none" stroke-width="1" fill="none" fill-rule="evenodd">
        <g id="未知" transform="translate(2.000000, 2.000000)">
            <mask id="mask-2" fill="white">
                <use xlink:href="#path-1"></use>
            </mask>
            <path stroke="#333333" stroke-width="2.4" d="M76.9674835,38.7457156 L91.3099886,33.4928581 L95.2976324,26.0754105 L95.6172067,25.9045551 C132.891406,5.97648906 161.966289,-2.75368543 182.91671,-0.228571192 C191.352252,0.788148523 201.763997,7.61222159 216.463346,20.9706778 C222.428046,26.3912701 228.982043,32.7546172 238.061592,41.8573177 C240.254964,44.0562833 257.586589,61.560778 263.084383,67.0470043 C267.195505,71.1494765 274.631928,73.1377816 285.426003,72.9038598 L286.532543,72.8798796 L286.645713,73.9808784 C289.228898,99.1119399 290.072196,110.892218 289.187821,112.410175 C288.591084,113.434426 283.050903,114.366729 271.581254,115.759579 C259.755583,117.195663 244.795543,118.596707 228.588137,119.708968 C185.491222,122.666566 140.326057,123.244492 98.1937706,120.527988 L98.0562033,120.519118 L97.924231,120.479284 C92.3617103,118.800326 60.9066937,93.5847805 2.37524619,43.9941935 L2.25554759,43.8927792 L-0.495335366,39.9392448 L0.0202895039,39.2463857 C2.5192742,35.8884321 11.1023144,34.7564971 26.2084154,35.444506 C40.7946052,36.1088356 57.7140263,37.2092537 76.9674835,38.7457156 Z"></path>
            <path d="M-34.6024326,20.6967837 L67.9464015,155.155506 L67.1512666,155.761939 L-35.3975674,21.3032163 L-34.6024326,20.6967837 Z M-39.6024326,20.6967837 L62.9464015,155.155506 L62.1512666,155.761939 L-40.3975674,21.3032163 L-39.6024326,20.6967837 Z M-45.6024326,20.6967837 L56.9464015,155.155506 L56.1512666,155.761939 L-46.3975674,21.3032163 L-45.6024326,20.6967837 Z M-50.6024326,20.6967837 L51.9464015,155.155506 L51.1512666,155.761939 L-51.3975674,21.3032163 L-50.6024326,20.6967837 Z M-56.6024326,20.6967837 L45.9464015,155.155506 L45.1512666,155.761939 L-57.3975674,21.3032163 L-56.6024326,20.6967837 Z M-6.60243256,18.6967837 L95.9464015,153.155506 L95.1512666,153.761939 L-7.39756744,19.3032163 L-6.60243256,18.6967837 Z M-12.6024326,18.6967837 L89.9464015,153.155506 L89.1512666,153.761939 L-13.3975674,19.3032163 L-12.6024326,18.6967837 Z M-17.6024326,18.6967837 L84.9464015,153.155506 L84.1512666,153.761939 L-18.3975674,19.3032163 L-17.6024326,18.6967837 Z M-23.6024326,18.6967837 L78.9464015,153.155506 L78.1512666,153.761939 L-24.3975674,19.3032163 L-23.6024326,18.6967837 Z M-28.6024326,18.6967837 L73.9464015,153.155506 L73.1512666,153.761939 L-29.3975674,19.3032163 L-28.6024326,18.6967837 Z M-1.60243256,16.6967837 L100.946401,151.155506 L100.151267,151.761939 L-2.39756744,17.3032163 L-1.60243256,16.6967837 Z M4.39756744,13.6967837 L106.946401,148.155506 L106.151267,148.761939 L3.60243256,14.3032163 L4.39756744,13.6967837 Z M15.3975674,11.6967837 L117.946401,146.155506 L117.151267,146.761939 L14.6024326,12.3032163 L15.3975674,11.6967837 Z M9.39756744,11.6967837 L111.946401,146.155506 L111.151267,146.761939 L8.60243256,12.3032163 L9.39756744,11.6967837 Z M20.3975674,9.69678369 L122.946401,144.155506 L122.151267,144.761939 L19.6024326,10.3032163 L20.3975674,9.69678369 Z M48.3975674,9.69678369 L150.946401,144.155506 L150.151267,144.761939 L47.6024326,10.3032163 L48.3975674,9.69678369 Z M42.3975674,9.69678369 L144.946401,144.155506 L144.151267,144.761939 L41.6024326,10.3032163 L42.3975674,9.69678369 Z M37.3975674,9.69678369 L139.946401,144.155506 L139.151267,144.761939 L36.6024326,10.3032163 L37.3975674,9.69678369 Z M75.3975674,6.69678369 L177.946401,141.155506 L177.151267,141.761939 L74.6024326,7.30321631 L75.3975674,6.69678369 Z M70.3975674,6.69678369 L172.946401,141.155506 L172.151267,141.761939 L69.6024326,7.30321631 L70.3975674,6.69678369 Z M64.3975674,6.69678369 L166.946401,141.155506 L166.151267,141.761939 L63.6024326,7.30321631 L64.3975674,6.69678369 Z M59.3975674,6.69678369 L161.946401,141.155506 L161.151267,141.761939 L58.6024326,7.30321631 L59.3975674,6.69678369 Z M53.3975674,6.69678369 L155.946401,141.155506 L155.151267,141.761939 L52.6024326,7.30321631 L53.3975674,6.69678369 Z M22.3975674,4.69678369 L124.946401,139.155506 L124.151267,139.761939 L21.6024326,5.30321631 L22.3975674,4.69678369 Z M103.397567,4.69678369 L205.946401,139.155506 L205.151267,139.761939 L102.602433,5.30321631 L103.397567,4.69678369 Z M97.3975674,4.69678369 L199.946401,139.155506 L199.151267,139.761939 L96.6024326,5.30321631 L97.3975674,4.69678369 Z M86.3975674,4.69678369 L188.946401,139.155506 L188.151267,139.761939 L85.6024326,5.30321631 L86.3975674,4.69678369 Z M80.3975674,4.69678369 L182.946401,139.155506 L182.151267,139.761939 L79.6024326,5.30321631 L80.3975674,4.69678369 Z M92.3975674,4.69678369 L194.946401,139.155506 L194.151267,139.761939 L91.6024326,5.30321631 L92.3975674,4.69678369 Z M27.3975674,4.69678369 L129.946401,139.155506 L129.151267,139.761939 L26.6024326,5.30321631 L27.3975674,4.69678369 Z M108.397567,2.69678369 L210.946401,137.155506 L210.151267,137.761939 L107.602433,3.30321631 L108.397567,2.69678369 Z M113.397567,0.696783692 L215.946401,135.155506 L215.151267,135.761939 L112.602433,1.30321631 L113.397567,0.696783692 Z M145.397567,0.696783692 L247.946401,135.155506 L247.151267,135.761939 L144.602433,1.30321631 L145.397567,0.696783692 Z M118.397567,-2.30321631 L220.946401,132.155506 L220.151267,132.761939 L117.602433,-1.69678369 L118.397567,-2.30321631 Z M125.397567,-2.30321631 L227.946401,132.155506 L227.151267,132.761939 L124.602433,-1.69678369 L125.397567,-2.30321631 Z M170.397567,-2.30321631 L272.946401,132.155506 L272.151267,132.761939 L169.602433,-1.69678369 L170.397567,-2.30321631 Z M164.397567,-3.30321631 L266.946401,131.155506 L266.151267,131.761939 L163.602433,-2.69678369 L164.397567,-3.30321631 Z M153.397567,-3.30321631 L255.946401,131.155506 L255.151267,131.761939 L152.602433,-2.69678369 L153.397567,-3.30321631 Z M159.397567,-3.30321631 L261.946401,131.155506 L261.151267,131.761939 L158.602433,-2.69678369 L159.397567,-3.30321631 Z M185.397567,-4.30321631 L287.946401,130.155506 L287.151267,130.761939 L184.602433,-3.69678369 L185.397567,-4.30321631 Z M180.397567,-4.30321631 L282.946401,130.155506 L282.151267,130.761939 L179.602433,-3.69678369 L180.397567,-4.30321631 Z M174.397567,-4.30321631 L276.946401,130.155506 L276.151267,130.761939 L173.602433,-3.69678369 L174.397567,-4.30321631 Z M130.397567,-4.30321631 L232.946401,130.155506 L232.151267,130.761939 L129.602433,-3.69678369 L130.397567,-4.30321631 Z M197.397567,-4.30321631 L299.946401,130.155506 L299.151267,130.761939 L196.602433,-3.69678369 L197.397567,-4.30321631 Z M191.397567,-4.30321631 L293.946401,130.155506 L293.151267,130.761939 L190.602433,-3.69678369 L191.397567,-4.30321631 Z M134.397567,-6.30321631 L236.946401,128.155506 L236.151267,128.761939 L133.602433,-5.69678369 L134.397567,-6.30321631 Z M202.397567,-6.30321631 L304.946401,128.155506 L304.151267,128.761939 L201.602433,-5.69678369 L202.397567,-6.30321631 Z M207.397567,-9.30321631 L309.946401,125.155506 L309.151267,125.761939 L206.602433,-8.69678369 L207.397567,-9.30321631 Z M143.397567,-10.3032163 L245.946401,124.155506 L245.151267,124.761939 L142.602433,-9.69678369 L143.397567,-10.3032163 Z M218.397567,-11.3032163 L320.946401,123.155506 L320.151267,123.761939 L217.602433,-10.6967837 L218.397567,-11.3032163 Z M212.397567,-11.3032163 L314.946401,123.155506 L314.151267,123.761939 L211.602433,-10.6967837 L212.397567,-11.3032163 Z M224.397567,-13.3032163 L326.946401,121.155506 L326.151267,121.761939 L223.602433,-12.6967837 L224.397567,-13.3032163 Z M235.397567,-18.3032163 L337.946401,116.155506 L337.151267,116.761939 L234.602433,-17.6967837 L235.397567,-18.3032163 Z M229.397567,-18.3032163 L331.946401,116.155506 L331.151267,116.761939 L228.602433,-17.6967837 L229.397567,-18.3032163 Z" id="形状" fill="#BEBEBE" fill-rule="nonzero" mask="url(#mask-2)"></path>
        </g>
    </g>
</svg>