<?xml version="1.0" encoding="UTF-8"?>
<svg width="110px" height="192px" viewBox="0 0 110 192" version="1.1" xmlns="http://www.w3.org/2000/svg" xmlns:xlink="http://www.w3.org/1999/xlink">
    <!-- Generator: Sketch 60 (88103) - https://sketch.com -->
    <title>助航目标</title>
    <desc>Created with Sketch.</desc>
    <defs>
        <path d="M88.6368875,0 C76.8793698,0 67.354618,9.68 67.354618,21.6122695 C67.354618,33.5453191 76.8793698,43.224539 88.6368875,43.224539 C100.378802,43.224539 109.902774,33.5453191 109.902774,21.6122695 C109.902774,9.68 100.370221,0 88.6368875,0 Z M92.9479513,55.1240426 L81.7068875,128.538511 C75.934618,161.382482 91.9376676,161.440213 91.9376676,161.440213 L102.152065,161.440213 L102.152065,171.136596 L72.1821357,171.136596 C72.1821357,182.610142 63.0271712,191.914894 51.7369584,191.914894 C40.4475258,191.914894 31.2925612,182.610142 31.2925612,171.136596 L0.945043516,171.136596 L0.945043516,161.440213 L10.831001,161.440213 C10.831001,161.440213 22.6049017,160.347234 36.3915683,127.854326 L67.4037669,48.5404255 L92.9479513,55.1240426 Z M51.7369584,160.172482 C45.7758946,160.172482 40.9483768,165.078794 40.9483768,171.136596 C40.9483768,177.195177 45.7758946,182.101489 51.7369584,182.101489 C57.6988024,182.101489 62.5263201,177.202979 62.5263201,171.145177 C62.5263201,165.087376 57.6988024,160.172482 51.7369584,160.172482 Z" id="path-1"></path>
    </defs>
    <g id="页面-1" stroke="none" stroke-width="1" fill="none" fill-rule="evenodd">
        <g id="助航目标" transform="translate(-1.000000, 0.000000)">
            <g id="形状" transform="translate(0.743042, 0.000000)">
                <mask id="mask-2" fill="white">
                    <use xlink:href="#path-1"></use>
                </mask>
                <use id="蒙版" fill="#333333" xlink:href="#path-1"></use>
            </g>
        </g>
    </g>
</svg>