<?xml version="1.0" encoding="UTF-8"?>
<svg width="243px" height="149px" viewBox="0 0 243 149" version="1.1" xmlns="http://www.w3.org/2000/svg" xmlns:xlink="http://www.w3.org/1999/xlink">
    <!-- Generator: Sketch 60 (88103) - https://sketch.com -->
    <title>渔船</title>
    <desc>Created with Sketch.</desc>
    <defs>
        <path d="M0,0 L69.5782931,15.6354118 L234.626866,15.6354118 L232.321858,38.5448269 C229.697606,40.672793 225.314119,42.4817221 219.171397,43.9716142 C219.042471,44.0270597 219.042471,46.9817953 219.171397,52.8358209 L36.8641465,52.8358209 C36.5103038,52.835803 36.1627954,52.7419268 35.8570843,52.5637544 C25.339388,46.4339041 17.0133491,38.9078939 10.8789677,29.9857238 C4.65352256,20.9311057 1.02719999,10.9358644 0,0 Z" id="path-1"></path>
        <path d="M9.09494702e-13,2.23880597 C20.4447194,14.6917957 46.2012151,20.9182905 77.269487,20.9182905 C77.0989722,20.6849298 161.226427,21.3961742 186.830367,18.0477193 C186.874371,17.7324091 218.41735,17.9058025 224.621103,0.895522388 C224.724447,-0.298507463 224.363694,4.17910448 223.538844,14.3283582 C220.227416,16.8626524 215.793917,18.5044434 210.238346,19.2537313 C210.180634,19.4644944 210.180634,22.3003153 210.238346,27.761194 L26.8656716,27.761194 C20.9459652,24.2265754 15.8370059,20.3459784 11.5387936,16.119403 C7.24058128,11.8928276 3.39431675,7.26596188 9.09494702e-13,2.23880597 Z" id="path-3"></path>
        <path d="M0,0 L69.3246966,15.8526879 L234.626866,16.053774 L234.626866,23.9534896 L69.3246966,25.0746269 C35.5295658,21.1176255 12.8546877,15.9538347 1.30006243,9.58325436 C1.20604498,9.4406418 0.772690842,6.24622368 0,0 Z" id="path-5"></path>
    </defs>
    <g id="页面-1" stroke="none" stroke-width="1" fill="none" fill-rule="evenodd">
        <g id="渔船" transform="translate(0.000000, 1.000000)">
            <g id="编组-49" transform="translate(120.500000, 73.500000) scale(-1, 1) translate(-120.500000, -73.500000) translate(1.000000, 0.000000)">
                <path d="M21.4925373,30.9436078 C21.7538243,29.6433126 22.249483,28.2840005 22.9795136,26.8656716 C23.7095442,25.4473428 24.782661,24.2205614 26.1988641,23.1853277 L82.3332172,27.8542253 C83.4307546,28.3146033 84.3445578,29.3443974 85.0746269,30.9436078 C85.8046959,32.5428182 86.1032034,34.1685808 85.9701493,35.8208955 L53.7313433,34.9253731 L21.4925373,30.9436078 Z" id="路径-18" stroke="#333333"></path>
                <polygon id="路径-19" stroke="#333333" points="37.6119403 33.1343284 37.6119403 59.0760542 85.0746269 62.6865672 85.0746269 35.8208955 53.7313433 34.9253731"></polygon>
                <path d="M37.2666944,60.8955224 L103.677802,67.2845851 C106.797784,70.6874252 108.357776,73.9146869 108.357776,76.9663699 C108.438036,77.1154608 97.6282129,76.9456101 75.9283051,76.4568179 L32.4472166,71.1938154 C32.1773732,67.8507268 33.5275371,64.636841 36.4977081,61.552158 C36.4861809,61.5039268 36.7425097,61.2850483 37.2666944,60.8955224 Z" id="路径-20" stroke="#333333"></path>
                <polygon id="路径-21" stroke="#333333" points="39.4029851 72.1430841 39.4029851 105.221765 68.954925 110.745419 107.462687 111.044776 107.462687 77.0385869 75.9283051 76.4568179"></polygon>
                <path d="M58.7089552,36.8876722 L58.7089552,57.3799001 L73.8283582,57.7560274 L73.8283582,37.2637995 L58.7089552,36.8876722 Z" id="矩形备份-32" stroke="#333333"></path>
                <path d="M53.3358209,77.6287956 L53.3358209,98.1151476 L68.4552239,99.7993824 L68.4552239,79.3130305 L53.3358209,77.6287956 Z" id="矩形备份-33" stroke="#333333"></path>
                <path d="M81.0970149,79.3104443 L81.0970149,99.8029419 L96.2164179,99.9376339 L96.2164179,79.4451363 L81.0970149,79.3104443 Z" id="矩形备份-39" stroke="#333333"></path>
                <path d="M39.9029851,76.0289747 L39.9029851,96.5160878 L50.5447761,97.6259979 L50.5447761,77.1388848 L39.9029851,76.0289747 Z" id="矩形备份-35" stroke="#333333"></path>
                <path d="M38.1119403,35.8175557 L38.1119403,56.3037912 L47.858209,57.3996863 L47.858209,36.9134508 L38.1119403,35.8175557 Z" id="矩形备份-36" stroke="#333333"></path>
                <polygon id="矩形备份-32" fill="#333333" points="60 38.2106797 72.5373134 38.5225721 72.5373134 56.4330198 60 56.1211275"></polygon>
                <polygon id="矩形备份-34" fill="#333333" points="54.6268657 79.0605644 67.1641791 80.4571659 67.1641791 98.3676136 54.6268657 96.9710122"></polygon>
                <polygon id="矩形备份-40" fill="#333333" points="82.3880597 80.6129705 94.9253731 80.7246599 94.9253731 98.6351076 82.3880597 98.5234183"></polygon>
                <polygon id="矩形备份-38" fill="#333333" points="41.1940299 77.4111399 49.2537313 78.333385 49.2537313 96.2438328 41.1940299 95.3215876"></polygon>
                <polygon id="矩形备份-37" fill="#333333" points="39.4029851 37.2233488 46.5671642 38.0834454 46.5671642 55.9938932 39.4029851 55.1337965"></polygon>
                <polyline id="路径-22" stroke="#333333" stroke-width="2" points="85.9701493 64.1637475 177.313433 0.895522388 103.237693 68.9552239"></polyline>
                <line x1="119.109701" y1="42.0895522" x2="119.109701" y2="110.149254" id="路径-23" stroke="#333333" stroke-width="2"></line>
                <path d="M176.526328,0.241857523 C184.403275,9.67884656 193.362678,17.6579289 203.404538,24.1791045 C213.446397,30.7002801 225.047869,36.0734144 238.208955,40.2985075 C223.668924,50.7839284 207.528695,56.4416861 189.788268,57.2717806 C158.809441,57.9590584 154.152949,23.8809548 149.096276,25.7330992 C143.130906,31.5869828 131.342595,35.417066 113.731343,37.2233488 L87.761194,36.4286076 C107.462687,36.3929218 137.051065,24.3306718 176.526328,0.241857523 C176.537021,0.179823138 177.941832,1.52640883 179.265989,4.46808416 C188.203845,24.3239341 222.735553,103.114494 234.626866,107.94379" id="路径-24" stroke="#333333"></path>
                <g id="编组-50" transform="translate(0.000000, 93.134328)">
                    <g id="编组-52">
                        <mask id="mask-2" fill="white">
                            <use xlink:href="#path-1"></use>
                        </mask>
                        <path stroke="#333333" stroke-width="2" d="M69.6892678,14.6354118 L235.732529,14.6354118 L233.275146,39.0592724 L232.951694,39.3215545 C230.291292,41.4788342 226.010173,43.2844442 220.091527,44.7743261 C220.080386,45.126815 220.074702,45.6128169 220.074702,46.22925 C220.074702,47.69777 220.106839,49.8935131 220.171154,52.8138027 L220.193663,53.8358209 L36.8640959,53.8358209 C36.3333435,53.8357941 35.8120984,53.6949776 35.3535488,53.4277289 C24.7120191,47.225707 16.2755839,39.5999081 10.0549426,30.552277 C3.7329247,21.3571984 0.0475263722,11.1991265 -0.995617604,0.0935178374 L-1.12440702,-1.27761103 L69.6892678,14.6354118 Z"></path>
                        <g mask="url(#mask-2)" fill="#ACAEAC" fill-rule="nonzero" id="路径">
                            <g transform="translate(62.574627, 21.380597) scale(-1, 1) translate(-62.574627, -21.380597) translate(-19.925373, -16.119403)">
                                <polygon points="50.5545907 47.4626866 50.1492537 47.7973602 75.4126616 73.4328358 76.119403 73.4038483"></polygon>
                                <polygon points="96.4421425 16.119403 95.8208955 16.2496125 144.899403 65.3731343 145.074627 64.7964923"></polygon>
                                <polygon points="22.0068023 64.4776119 21.4925373 64.7136392 30.6053133 74.3283582 31.3432836 74.3283582"></polygon>
                                <polygon points="5.10249734 70.7462687 4.47761194 70.9328358 7.19424988 73.4008529 8.05970149 73.4328358"></polygon>
                                <polygon points="67.4437303 26.8656716 67.1641791 27.3298362 111.253401 70.7462687 111.940299 70.6807087"></polygon>
                                <polygon points="128.660137 9.85074627 128.059701 9.98928858 153.857552 35.8208955 154.029851 35.2536562"></polygon>
                                <polygon points="59.4597767 37.6119403 59.1044776 37.9977249 93.327207 71.641791 94.0298507 71.5948713"></polygon>
                                <polygon points="112.553939 12.5373134 111.940299 12.672351 149.377669 50.1492537 149.552239 49.574682"></polygon>
                                <polygon points="38.9637146 55.5223881 38.5074627 55.8152239 56.5844786 74.3283582 57.3134328 74.3283582"></polygon>
                                <polygon points="80.3219419 19.7014925 79.7014925 19.8232439 128.300741 68.9552239 128.955224 68.8678805"></polygon>
                                <polygon points="143.886377 5.37313433 143.283582 5.51946663 158.332201 20.5970149 158.507463 20.0196675"></polygon>
                                <polygon points="55.0097069 42.0895522 54.6268657 42.4580657 84.3670306 72.5373134 85.0746269 72.4972576"></polygon>
                                <polygon points="104.492083 15.2238806 103.880597 15.3552691 146.692461 58.2089552 146.865672 57.638729"></polygon>
                                <polygon points="32.7131751 59.1044776 32.238806 59.3721267 46.7316914 74.3283582 47.4626866 74.3283582"></polygon>
                                <polygon points="19.3263202 65.3731343 18.8059701 65.6077811 27.01189 74.3145555 27.761194 74.3283582"></polygon>
                                <polygon points="72.2711134 21.4925373 71.641791 21.6106891 120.223893 69.8507463 120.895522 69.774604"></polygon>
                                <polygon points="135.823258 8.05970149 135.223881 8.20191333 155.647392 28.6567164 155.820896 28.0852355"></polygon>
                                <polygon points="7.75968164 69.8507463 7.1641791 70.0417562 10.8080875 73.4040535 11.641791 73.4328358"></polygon>
                                <polygon points="63.8988975 32.238806 63.5820896 32.671981 102.296017 71.641791 102.985075 71.5859832"></polygon>
                                <polygon points="120.61664 10.7462687 120 10.8852405 152.062623 42.9850746 152.238806 42.4051342"></polygon>
                                <polygon points="44.3155201 51.0447761 43.880597 51.3570932 65.5481516 73.4328358 66.2686567 73.4114808"></polygon>
                                <polygon points="88.3827697 17.9104478 87.761194 18.0338315 137.262422 67.1641791 137.910448 67.0644221"></polygon>
                                <polygon points="51.4468056 45.6716418 51.0447761 46.0227779 78.0918388 73.4328358 78.8059701 73.4006707"></polygon>
                                <polygon points="99.1188135 16.119403 98.5074627 16.2475287 144.902195 62.6865672 145.074627 62.1191532"></polygon>
                                <polygon points="25.5920484 61.7910448 25.0746269 62.032543 36.8398715 73.4328358 37.6119403 73.4328358"></polygon>
                                <polygon points="10.4265381 68.9552239 9.85074627 69.149004 14.4127892 73.4069985 15.2238806 73.4328358"></polygon>
                                <polygon points="69.2165332 25.0746269 68.9552239 25.5522594 113.955301 70.7462687 114.626866 70.6780354"></polygon>
                                <polygon points="131.345448 8.95522388 130.746269 9.09669876 154.752684 33.1343284 154.925373 32.5658089"></polygon>
                                <polygon points="61.2317587 35.8208955 60.8955224 36.2255326 96.0283064 71.641791 96.7164179 71.5918683"></polygon>
                                <polygon points="115.239619 12.5373134 114.626866 12.6727472 150.272689 48.358209 150.447761 47.7819517"></polygon>
                                <polygon points="40.7430964 53.7313433 40.2985075 54.0246461 59.2840051 73.4328358 60 73.4169816"></polygon>
                                <polygon points="83.0154238 18.8059701 82.3880597 18.9300017 131.878049 68.0597015 132.537313 67.9673376"></polygon>
                                <polygon points="146.57564 5.37313433 145.970149 5.52280381 159.226939 18.8059701 159.402985 18.2260009"></polygon>
                                <polygon points="56.7972848 41.1940299 56.4179104 41.5641331 87.9433857 72.5373134 88.6567164 72.4953159"></polygon>
                                <polygon points="107.180155 14.3283582 106.567164 14.4600358 147.587557 55.5223881 147.761194 54.9509071"></polygon>
                                <polygon points="34.5163003 57.3134328 34.0298507 57.576994 50.2880768 73.4328358 51.0447761 73.4328358"></polygon>
                                <polygon points="23.7767868 62.6865672 23.2835821 62.9238917 33.3027552 73.4328358 34.0298507 73.4328358"></polygon>
                                <polygon points="74.9554251 20.5970149 74.3283582 20.7147321 122.915502 68.9552239 123.58209 68.8767458"></polygon>
                                <polygon points="138.511648 7.1641791 137.910448 7.30942954 156.542386 25.9701493 156.716418 25.3970703"></polygon>
                                <polygon points="12.2012985 68.0597015 11.641791 68.2559687 17.1200755 73.4124444 17.9104478 73.4328358"></polygon>
                                <polygon points="65.6806514 30.4477612 65.3731343 30.8931741 105.877902 71.641791 106.567164 71.5804467"></polygon>
                                <polygon points="123.28458 10.7462687 122.686567 10.8816383 152.067202 40.2985075 152.238806 39.7335994"></polygon>
                                <polygon points="46.108436 50.1492537 45.6716418 50.4643936 69.1165033 73.4328358 69.8507463 73.4092003"></polygon>
                                <polygon points="91.0683876 17.9104478 90.4477612 18.0362354 139.957902 67.1641791 140.597015 67.0567355"></polygon>
                                <polygon points="53.2236718 43.880597 52.8358209 44.2311298 80.7923232 72.5373134 81.4925373 72.5030508"></polygon>
                                <polygon points="101.804066 15.2238806 101.19403 15.3522991 145.797349 60 145.970149 59.4312896"></polygon>
                                <polygon points="30.9369452 60 30.4477612 60.2720919 44.0344533 74.3283582 44.7761194 74.3283582"></polygon>
                                <polygon points="14.8629984 67.1641791 14.3283582 67.3666387 20.717309 73.4151206 21.4925373 73.4328358"></polygon>
                                <path d="M70.0964908,22.3880597 C70.0154474,22.5533618 69.934404,22.7212877 69.8507463,22.8839659 L116.646785,69.8507463 L117.313433,69.7772787 L70.0964908,22.3880597 Z"></path>
                                <polygon points="134.033453 8.05970149 133.432836 8.20153106 155.647792 30.4477612 155.820896 29.8778165"></polygon>
                                <polygon points="63.0173485 34.0298507 62.6865672 34.4450578 99.6106923 71.641791 100.298507 71.5888984"></polygon>
                                <polygon points="117.928045 11.641791 117.313433 11.7803079 151.16768 45.6716418 151.343284 45.0936005"></polygon>
                                <polygon points="42.5366481 52.8358209 42.0895522 53.1325179 62.8475749 73.4328358 63.5820896 73.4146176"></polygon>
                                <polygon points="85.7003988 18.8059701 85.0746269 18.9296703 134.571593 68.0597015 135.223881 67.9649524"></polygon>
                                <polygon points="58.568854 39.4029851 58.2089552 39.7902109 90.6445021 72.5373134 91.3432836 72.4922255"></polygon>
                                <polygon points="109.865694 13.4328358 109.253731 13.5674972 148.482624 52.8358209 148.656716 52.2628498"></polygon>
                                <polygon points="36.2946042 56.4179104 35.8208955 56.6904192 52.9888448 73.4328358 53.7313433 73.4328358"></polygon>
                                <polygon points="28.2628573 60.8955224 27.761194 61.1413013 40.4388665 73.4328358 41.1940299 73.4328358"></polygon>
                                <polygon points="77.6374593 19.7014925 77.0149254 19.8236575 125.609349 68.9552239 126.268657 68.8702395"></polygon>
                                <polygon points="141.200156 6.26865672 140.597015 6.41440051 157.437347 23.2835821 157.61194 22.7085566"></polygon>
                                <polygon points="17.5420478 66.2686567 17.0149254 66.4742789 24.312935 73.4177903 25.0746269 73.4328358"></polygon>
                                <polygon points="66.5637488 28.6567164 66.2686567 29.1068721 108.565183 70.7462687 109.253731 70.6834562"></polygon>
                                <polygon points="125.972334 9.85074627 125.373134 9.98899143 152.962384 37.6119403 153.134328 37.0459176"></polygon>
                                <polygon points="47.8822683 48.358209 47.4626866 48.6906428 71.8168995 73.4328358 72.5373134 73.4060266"></polygon>
                                <polygon points="93.7541387 17.0149254 93.1343284 17.1405259 142.653222 66.2686567 143.283582 66.1535229"></polygon>
                            </g>
                        </g>
                    </g>
                    <g id="编组-51" transform="translate(8.955224, 24.179104)">
                        <mask id="mask-4" fill="white">
                            <use xlink:href="#path-3"></use>
                        </mask>
                        <path stroke="#333333" d="M77.2071194,20.4182822 C77.2170337,20.4165516 77.2252606,20.4155809 77.2399484,20.4138477 C77.301616,20.4078093 77.301616,20.4078093 77.3706711,20.403943 C77.4640837,20.3991427 77.6006789,20.3949418 77.7830989,20.3911467 C78.1292099,20.3839462 78.6456532,20.3781166 79.3503367,20.3732642 C80.5623669,20.3649183 82.1947738,20.3597314 85.2219116,20.3534573 C108.368809,20.3054826 119.890764,20.2379991 135.693501,19.9633873 C159.582475,19.5482571 177.248315,18.7829981 186.641837,17.5680281 C186.655942,17.5646695 186.671477,17.5630646 186.690215,17.5611289 C186.764339,17.5396798 186.764339,17.5396798 186.819759,17.5296418 C186.827397,17.5283189 191.035226,17.2320917 193.411074,16.964624 C197.840327,16.4659887 202.107328,15.6759813 206.109194,14.4865943 C215.333067,11.7451845 221.721437,7.30475862 224.128772,0.785777624 C224.132265,0.745830548 224.133376,0.733645951 224.137211,0.691582332 C224.139253,0.669796379 224.139253,0.669796379 224.141794,0.647224866 C224.14269,0.638757353 224.14269,0.638757353 224.151662,0.59210717 C224.154546,0.580181071 224.154546,0.580181071 224.233794,0.413116345 L225.111885,0.546582822 L225.135556,0.654370261 C225.136988,0.66953351 225.136988,0.66953351 225.137976,0.687753583 C225.138004,0.734341686 225.138004,0.734341686 225.137303,0.741893295 C225.135403,0.775443421 225.126667,0.890716204 225.110064,1.10250933 C225.077851,1.51342589 225.016648,2.27861215 224.926432,3.39836294 C224.746043,5.63731389 224.449635,9.29412591 224.037201,14.3688607 L224.019199,14.590359 L223.842722,14.7254199 C220.536678,17.2555941 216.155489,18.9090592 210.705253,19.6934837 C210.685119,20.5995943 210.692723,23.4416092 210.738318,27.7559102 L210.743658,28.261194 L26.7277555,28.261194 L26.6093418,28.19049 C20.6565106,24.6360928 15.5158609,20.7314248 11.1882236,16.4759148 C6.86619654,12.2259215 2.99856157,7.57334829 -0.414386625,2.51859826 L-1.69617319,0.620207104 L0.260101141,1.81178443 C20.6068056,14.2050727 46.2531686,20.4099597 77.2071194,20.4182822 Z"></path>
                        <g id="编组-52" mask="url(#mask-4)" fill="#ACAEAC" fill-rule="nonzero">
                            <g transform="translate(53.619403, -2.798507) scale(-1, 1) translate(-53.619403, 2.798507) translate(-28.880597, -40.298507)" id="路径">
                                <polygon points="50.5545907 47.4626866 50.1492537 47.7973602 75.4126616 73.4328358 76.119403 73.4038483"></polygon>
                                <polygon points="96.4421425 16.119403 95.8208955 16.2496125 144.899403 65.3731343 145.074627 64.7964923"></polygon>
                                <polygon points="22.0068023 64.4776119 21.4925373 64.7136392 30.6053133 74.3283582 31.3432836 74.3283582"></polygon>
                                <polygon points="5.10249734 70.7462687 4.47761194 70.9328358 7.19424988 73.4008529 8.05970149 73.4328358"></polygon>
                                <polygon points="67.4437303 26.8656716 67.1641791 27.3298362 111.253401 70.7462687 111.940299 70.6807087"></polygon>
                                <polygon points="128.660137 9.85074627 128.059701 9.98928858 153.857552 35.8208955 154.029851 35.2536562"></polygon>
                                <polygon points="59.4597767 37.6119403 59.1044776 37.9977249 93.327207 71.641791 94.0298507 71.5948713"></polygon>
                                <polygon points="112.553939 12.5373134 111.940299 12.672351 149.377669 50.1492537 149.552239 49.574682"></polygon>
                                <polygon points="38.9637146 55.5223881 38.5074627 55.8152239 56.5844786 74.3283582 57.3134328 74.3283582"></polygon>
                                <polygon points="80.3219419 19.7014925 79.7014925 19.8232439 128.300741 68.9552239 128.955224 68.8678805"></polygon>
                                <polygon points="143.886377 5.37313433 143.283582 5.51946663 158.332201 20.5970149 158.507463 20.0196675"></polygon>
                                <polygon points="55.0097069 42.0895522 54.6268657 42.4580657 84.3670306 72.5373134 85.0746269 72.4972576"></polygon>
                                <polygon points="104.492083 15.2238806 103.880597 15.3552691 146.692461 58.2089552 146.865672 57.638729"></polygon>
                                <polygon points="32.7131751 59.1044776 32.238806 59.3721267 46.7316914 74.3283582 47.4626866 74.3283582"></polygon>
                                <polygon points="19.3263202 65.3731343 18.8059701 65.6077811 27.01189 74.3145555 27.761194 74.3283582"></polygon>
                                <polygon points="72.2711134 21.4925373 71.641791 21.6106891 120.223893 69.8507463 120.895522 69.774604"></polygon>
                                <polygon points="135.823258 8.05970149 135.223881 8.20191333 155.647392 28.6567164 155.820896 28.0852355"></polygon>
                                <polygon points="7.75968164 69.8507463 7.1641791 70.0417562 10.8080875 73.4040535 11.641791 73.4328358"></polygon>
                                <polygon points="63.8988975 32.238806 63.5820896 32.671981 102.296017 71.641791 102.985075 71.5859832"></polygon>
                                <polygon points="120.61664 10.7462687 120 10.8852405 152.062623 42.9850746 152.238806 42.4051342"></polygon>
                                <polygon points="44.3155201 51.0447761 43.880597 51.3570932 65.5481516 73.4328358 66.2686567 73.4114808"></polygon>
                                <polygon points="88.3827697 17.9104478 87.761194 18.0338315 137.262422 67.1641791 137.910448 67.0644221"></polygon>
                                <polygon points="51.4468056 45.6716418 51.0447761 46.0227779 78.0918388 73.4328358 78.8059701 73.4006707"></polygon>
                                <polygon points="99.1188135 16.119403 98.5074627 16.2475287 144.902195 62.6865672 145.074627 62.1191532"></polygon>
                                <polygon points="25.5920484 61.7910448 25.0746269 62.032543 36.8398715 73.4328358 37.6119403 73.4328358"></polygon>
                                <polygon points="10.4265381 68.9552239 9.85074627 69.149004 14.4127892 73.4069985 15.2238806 73.4328358"></polygon>
                                <polygon points="69.2165332 25.0746269 68.9552239 25.5522594 113.955301 70.7462687 114.626866 70.6780354"></polygon>
                                <polygon points="131.345448 8.95522388 130.746269 9.09669876 154.752684 33.1343284 154.925373 32.5658089"></polygon>
                                <polygon points="61.2317587 35.8208955 60.8955224 36.2255326 96.0283064 71.641791 96.7164179 71.5918683"></polygon>
                                <polygon points="115.239619 12.5373134 114.626866 12.6727472 150.272689 48.358209 150.447761 47.7819517"></polygon>
                                <polygon points="40.7430964 53.7313433 40.2985075 54.0246461 59.2840051 73.4328358 60 73.4169816"></polygon>
                                <polygon points="83.0154238 18.8059701 82.3880597 18.9300017 131.878049 68.0597015 132.537313 67.9673376"></polygon>
                                <polygon points="146.57564 5.37313433 145.970149 5.52280381 159.226939 18.8059701 159.402985 18.2260009"></polygon>
                                <polygon points="56.7972848 41.1940299 56.4179104 41.5641331 87.9433857 72.5373134 88.6567164 72.4953159"></polygon>
                                <polygon points="107.180155 14.3283582 106.567164 14.4600358 147.587557 55.5223881 147.761194 54.9509071"></polygon>
                                <polygon points="34.5163003 57.3134328 34.0298507 57.576994 50.2880768 73.4328358 51.0447761 73.4328358"></polygon>
                                <polygon points="23.7767868 62.6865672 23.2835821 62.9238917 33.3027552 73.4328358 34.0298507 73.4328358"></polygon>
                                <polygon points="74.9554251 20.5970149 74.3283582 20.7147321 122.915502 68.9552239 123.58209 68.8767458"></polygon>
                                <polygon points="138.511648 7.1641791 137.910448 7.30942954 156.542386 25.9701493 156.716418 25.3970703"></polygon>
                                <polygon points="12.2012985 68.0597015 11.641791 68.2559687 17.1200755 73.4124444 17.9104478 73.4328358"></polygon>
                                <polygon points="65.6806514 30.4477612 65.3731343 30.8931741 105.877902 71.641791 106.567164 71.5804467"></polygon>
                                <polygon points="123.28458 10.7462687 122.686567 10.8816383 152.067202 40.2985075 152.238806 39.7335994"></polygon>
                                <polygon points="46.108436 50.1492537 45.6716418 50.4643936 69.1165033 73.4328358 69.8507463 73.4092003"></polygon>
                                <polygon points="91.0683876 17.9104478 90.4477612 18.0362354 139.957902 67.1641791 140.597015 67.0567355"></polygon>
                                <polygon points="53.2236718 43.880597 52.8358209 44.2311298 80.7923232 72.5373134 81.4925373 72.5030508"></polygon>
                                <polygon points="101.804066 15.2238806 101.19403 15.3522991 145.797349 60 145.970149 59.4312896"></polygon>
                                <polygon points="30.9369452 60 30.4477612 60.2720919 44.0344533 74.3283582 44.7761194 74.3283582"></polygon>
                                <polygon points="14.8629984 67.1641791 14.3283582 67.3666387 20.717309 73.4151206 21.4925373 73.4328358"></polygon>
                                <path d="M70.0964908,22.3880597 C70.0154474,22.5533618 69.934404,22.7212877 69.8507463,22.8839659 L116.646785,69.8507463 L117.313433,69.7772787 L70.0964908,22.3880597 Z"></path>
                                <polygon points="134.033453 8.05970149 133.432836 8.20153106 155.647792 30.4477612 155.820896 29.8778165"></polygon>
                                <polygon points="63.0173485 34.0298507 62.6865672 34.4450578 99.6106923 71.641791 100.298507 71.5888984"></polygon>
                                <polygon points="117.928045 11.641791 117.313433 11.7803079 151.16768 45.6716418 151.343284 45.0936005"></polygon>
                                <polygon points="42.5366481 52.8358209 42.0895522 53.1325179 62.8475749 73.4328358 63.5820896 73.4146176"></polygon>
                                <polygon points="85.7003988 18.8059701 85.0746269 18.9296703 134.571593 68.0597015 135.223881 67.9649524"></polygon>
                                <polygon points="58.568854 39.4029851 58.2089552 39.7902109 90.6445021 72.5373134 91.3432836 72.4922255"></polygon>
                                <polygon points="109.865694 13.4328358 109.253731 13.5674972 148.482624 52.8358209 148.656716 52.2628498"></polygon>
                                <polygon points="36.2946042 56.4179104 35.8208955 56.6904192 52.9888448 73.4328358 53.7313433 73.4328358"></polygon>
                                <polygon points="28.2628573 60.8955224 27.761194 61.1413013 40.4388665 73.4328358 41.1940299 73.4328358"></polygon>
                                <polygon points="77.6374593 19.7014925 77.0149254 19.8236575 125.609349 68.9552239 126.268657 68.8702395"></polygon>
                                <polygon points="141.200156 6.26865672 140.597015 6.41440051 157.437347 23.2835821 157.61194 22.7085566"></polygon>
                                <polygon points="17.5420478 66.2686567 17.0149254 66.4742789 24.312935 73.4177903 25.0746269 73.4328358"></polygon>
                                <polygon points="66.5637488 28.6567164 66.2686567 29.1068721 108.565183 70.7462687 109.253731 70.6834562"></polygon>
                                <polygon points="125.972334 9.85074627 125.373134 9.98899143 152.962384 37.6119403 153.134328 37.0459176"></polygon>
                                <polygon points="47.8822683 48.358209 47.4626866 48.6906428 71.8168995 73.4328358 72.5373134 73.4060266"></polygon>
                                <polygon points="93.7541387 17.0149254 93.1343284 17.1405259 142.653222 66.2686567 143.283582 66.1535229"></polygon>
                            </g>
                        </g>
                    </g>
                    <g id="编组-52">
                        <mask id="mask-6" fill="white">
                            <use xlink:href="#path-5"></use>
                        </mask>
                        <path stroke="#333333" d="M69.3814367,15.3527566 L69.4361561,15.3652694 L69.3253049,15.3526883 L69.3814367,15.3527566 Z M69.3814367,15.3527566 L235.126866,15.5543819 L235.126866,24.4501099 L234.630257,24.4534781 L69.2665499,25.5712343 C35.4102149,21.6070667 12.6867749,16.4322168 1.05865117,10.0211135 L0.950554759,9.9615151 L0.882614002,9.85845758 C0.715439526,9.60487507 0.362778152,7.00527402 -0.496217608,0.0613847375 L-0.583774278,-0.646399695 L69.3814367,15.3527566 Z"></path>
                    </g>
                </g>
            </g>
            <g id="编组-53" transform="translate(0.000000, 23.283582)" fill="#ACAEAC" fill-rule="nonzero">
                <path d="M18.5872961,64.1773486 C18.77383,64.4885376 18.9593161,64.7958609 19.1437542,65.0993185 L38.8272799,83.2531397 L39.2988546,83.2835821 L18.5872961,64.1773486 Z" id="路径"></path>
                <polygon id="路径" points="57.7125548 32.8235294 57.355085 32.9017851 76.3495866 50.4600527 76.4734467 50.1702166"></polygon>
                <polygon id="路径" points="83.5450962 14.2071993 83.3772995 14.4724678 87.0123858 18.1264267 87.0947588 17.7768242"></polygon>
                <polygon id="路径" points="27.7849125 30.1180779 27.0843457 29.8841089 67.828744 67.1167691 67.9763971 66.8454798"></polygon>
                <path d="M0,17.1466198 C0.034433706,17.3133513 0.068867412,17.48152 0.103301118,17.6482515 L63.0402898,75.4451273 L63.1968067,75.1864061 L0,17.1466198 Z" id="路径"></path>
                <polygon id="路径" points="72.4668277 25.4749781 72.2249219 25.6602356 81.679537 34.2932397 81.7841027 33.9854271"></polygon>
                <polygon id="路径" points="90.8411558 0 90.7207119 0.360428948 90.8364632 0.489903424 90.9037241 0.0734855136"></polygon>
                <path d="M3.18639361,28.4143986 C3.24180057,28.6015808 3.29720753,28.7882831 3.35261449,28.9745055 L59.8316472,80.834065 L60.0104131,80.5907281 L3.18639361,28.4143986 Z" id="路径"></path>
                <path d="M10.0902464,47.0307287 C10.1940007,47.2631233 10.297755,47.4940834 10.4015093,47.723609 L48.4487247,82.7936787 L48.8580354,82.764988 L10.0902464,47.0307287 Z" id="路径"></path>
                <polygon id="路径" points="65.614146 29.8841089 65.3210691 30.0290012 79.0153256 42.6215979 79.1287747 42.315875"></polygon>
                <polygon id="路径" points="87.233539 7.34855136 87.0947588 7.63847097 88.6213411 9.30816506 88.6879556 8.95145768"></polygon>
                <polygon id="路径" points="47.1823783 33.8119723 46.733773 33.8033363 72.6240448 57.808604 72.7559875 57.5207366"></polygon>
                <polygon id="路径" points="78.2706983 20.0860404 78.0666435 20.3026218 84.3452516 25.9648815 84.4394308 25.6492105"></polygon>
                <path d="M9.02811524,44.0913082 C9.12293048,44.3150435 9.21774573,44.5382987 9.31256097,44.7610738 L50.5821983,82.7936787 L50.9822978,82.754789 L9.02811524,44.0913082 Z" id="路径"></path>
                <path d="M21.2426241,68.0965759 C21.4607848,68.4367534 21.6768679,68.7721396 21.8908732,69.1027346 L36.6852888,82.7491202 L37.1745922,82.7936787 L21.2426241,68.0965759 Z" id="路径"></path>
                <polygon id="路径" points="61.9309636 31.3538191 61.6036099 31.4666846 77.9474613 46.5408253 78.0666435 46.2374076"></polygon>
                <polygon id="路径" points="85.6528627 10.7778753 85.501562 11.0635439 88.0736746 13.7172959 88.15689 13.3598199"></polygon>
                <polygon id="路径" points="40.8791236 32.8946198 40.3609858 32.8235294 71.0250381 61.237928 71.1627907 60.9550172"></polygon>
                <polygon id="路径" points="25.1775199 29.1923759 24.4290177 28.904302 67.2974984 68.5864794 67.4453315 68.3156899"></polygon>
                <polygon id="路径" points="75.6361108 23.0254609 75.4113155 23.2282292 83.2775664 30.3740123 83.3772995 30.0576363"></polygon>
                <path d="M2.89628554,17.4419605 C2.14694727,16.9344892 1.53085954,16.5032104 1.0621312,16.166813 L64.1021725,73.975417 L64.2589379,73.7152122 L2.89628554,17.4419605 Z" id="路径"></path>
                <path d="M3.71745922,30.8639157 C3.77773271,31.0571495 3.83800621,31.2503833 3.89827971,31.4436171 L58.0742808,81.8138718 L58.4172162,81.7225688 L3.71745922,30.8639157 Z" id="路径"></path>
                <polygon id="路径" points="69.3083904 27.9244952 69.0385283 28.0889873 80.6124393 38.7023705 80.7219715 38.3923101"></polygon>
                <polygon id="路径" points="88.8359141 3.42932397 88.6879556 3.6878482 89.6708233 4.40913082 89.7500868 4.10148698"></polygon>
                <polygon id="路径" points="52.4436751 33.3134328 52.044429 33.3524243 74.2213008 53.8893766 74.3491843 53.6005509"></polygon>
                <polygon id="路径" points="80.8995461 17.1466198 80.7219715 17.3879443 85.4165052 22.0456541 85.501562 21.711057"></polygon>
                <path d="M14.8698369,56.8287972 C15.0124491,57.0977198 15.1550612,57.3652018 15.2976734,57.6312432 L43.1008054,83.2835821 L43.5473794,83.2835821 L14.8698369,56.8287972 Z" id="路径"></path>
                <path d="M28.1464769,77.8946444 C28.5674826,78.4436911 28.9548293,78.9404946 29.3085168,79.3850548 L32.3779051,82.2165389 L32.9260673,82.3037752 L28.1464769,77.8946444 Z" id="路径"></path>
                <polygon id="路径" points="58.7611147 32.333626 58.4172162 32.4231472 76.3530823 48.9903424 76.4734467 48.6943449"></polygon>
                <polygon id="路径" points="84.0618216 12.737489 83.9083652 12.9971969 87.0180305 16.166813 87.0947588 15.8274221"></polygon>
                <polygon id="路径" points="33.5330779 31.9979581 32.9260673 31.8437226 68.8968925 65.1571554 69.0385283 64.8803963"></polygon>
                <path d="M8.69201619,21.3190358 C8.26041262,21.0674982 7.84138004,20.8198009 7.43491843,20.5759438 L64.6328663,72.9956102 L64.7900035,72.7320718 L8.69201619,21.3190358 Z" id="路径"></path>
                <polygon id="路径" points="73.5227741 24.4951712 73.2870531 24.6843218 82.2130226 32.8235294 82.3151683 32.5111443"></polygon>
                <path d="M1.59319681,23.5153644 C1.6390805,23.6960301 1.6854856,23.8757298 1.73241211,24.0544633 L60.9036088,78.8744513 L61.0725443,78.6222921 L1.59319681,23.5153644 Z" id="路径"></path>
                <path d="M7.96598403,41.1518876 C8.05207174,41.3694822 8.13815945,41.5865931 8.22424716,41.8032206 L52.1865441,82.7936787 L52.5754946,82.7487091 L7.96598403,41.1518876 Z" id="路径"></path>
                <polygon id="路径" points="67.1931861 29.3942054 66.9142659 29.5358643 79.5504296 41.1518876 79.6598403 40.8529875"></polygon>
                <polygon id="路径" points="87.7686971 5.87884109 87.6258244 6.13554162 89.1409396 7.34855136 89.2190212 7.03465849"></polygon>
                <polygon id="路径" points="48.7619184 33.3134328 48.3269698 33.3221651 73.1551553 56.3388938 73.2870531 56.0478191"></polygon>
                <polygon id="路径" points="79.3242746 19.1062335 79.1287747 19.3309471 84.8789528 24.4951712 84.9704964 24.1825263"></polygon>
                <path d="M6.37278723,38.7023705 C6.45243397,38.9128325 6.53208071,39.1228118 6.61172745,39.3323084 L53.7914174,82.7936787 L54.1686914,82.7328571 L6.37278723,38.7023705 Z" id="路径"></path>
                <path d="M16.4630337,60.2581212 C16.6254421,60.5481874 16.7873267,60.8343862 16.9486873,61.1167173 L40.9516086,83.2661781 L41.423117,83.2835821 L16.4630337,60.2581212 Z" id="路径"></path>
                <polygon id="路径" points="62.9798849 30.8639157 62.6657411 30.9855552 77.9504103 45.071115 78.0666435 44.7684645"></polygon>
                <polygon id="路径" points="86.2046048 9.79806848 86.0326276 10.069265 88.601967 12.2475856 88.6879556 11.909319"></polygon>
                <polygon id="路径" points="42.9802297 33.361341 42.4852482 33.3134328 71.5575797 60.2581212 71.6938563 59.9677689"></polygon>
                <polygon id="路径" points="30.9168666 31.0513466 30.2707393 30.8639157 68.3642248 66.1369622 68.5074627 65.8630248"></polygon>
                <polygon id="路径" points="76.6919345 22.0456541 76.4734467 22.2537528 83.810204 28.904302 83.9083652 28.5871308"></polygon>
                <path d="M13.7805926,24.0648504 C13.4303907,23.8812077 13.0853846,23.6980456 12.7455745,23.5153644 L65.1651928,72.0158033 L65.3210691,71.7504347 L13.7805926,24.0648504 Z" id="路径"></path>
                <path d="M2.65532801,25.9648815 C2.70518152,26.1477466 2.75711225,26.3306116 2.81112021,26.5134767 L60.3685493,79.8542581 L60.5414787,79.6059466 L2.65532801,25.9648815 Z" id="路径"></path>
                <polygon id="路径" points="70.8830808 26.9446883 70.6317251 27.1171371 81.1503491 37.2326602 81.2530371 36.9113453"></polygon>
                <polygon id="路径" points="89.8504264 2.44951712 89.7500868 2.78109304 90.2285353 3.42932397 90.2811524 3.03309074"></polygon>
                <polygon id="路径" points="54.022944 33.3134328 53.6376258 33.3670653 74.7549432 52.9095698 74.8802499 52.6196647"></polygon>
                <polygon id="路径" points="81.4431807 16.166813 81.2530371 16.4054963 85.9416187 20.5759438 86.0326276 20.2475735"></polygon>
                <path d="M11.6834432,50.4600527 C11.797576,50.7020845 11.9122275,50.9412463 12.0273978,51.1775382 L46.8430663,83.2835821 L47.2648386,83.2663624 L11.6834432,50.4600527 Z" id="路径"></path>
                <path d="M24.4290177,72.9956102 C24.6964719,73.3832406 24.9593148,73.7614167 25.2175464,74.1301383 L34.5430891,82.7341159 L35.0503297,82.7936787 L24.4290177,72.9956102 Z" id="路径"></path>
                <polygon id="路径" points="60.341104 31.8437226 60.0104131 31.9440685 76.8865193 47.5206321 77.0045123 47.2238947"></polygon>
                <polygon id="路径" points="84.6008489 11.7576822 84.4394308 12.0093928 87.5418869 14.6971027 87.6258244 14.3740741"></polygon>
                <polygon id="路径" points="38.7809544 32.9188858 38.2367234 32.8235294 70.4929384 62.7076383 70.6317251 62.4273483"></polygon>
                <path d="M17.9102255,26.3964869 C17.6022311,26.2526184 17.2968557,26.1087499 16.9940993,25.9648815 L66.2260603,71.0359965 L66.3832003,70.7698398 L17.9102255,26.3964869 Z" id="路径"></path>
                <polygon id="路径" points="74.5797305 24.0052678 74.3491843 24.2021633 82.7451726 31.8437226 82.8462339 31.5304143"></polygon>
                <path d="M0.531065602,19.1062335 C0.568693525,19.2780375 0.607366668,19.4493616 0.647085031,19.6202058 L62.5089581,76.4249342 L62.6657411,76.1686679 L0.531065602,19.1062335 Z" id="路径"></path>
                <path d="M5.84172162,35.76295 C5.91337215,35.966911 5.98554188,36.1703888 6.05823082,36.3733832 L55.3974051,82.3037752 L55.7618882,82.2327272 L5.84172162,35.76295 Z" id="路径"></path>
                <polygon id="路径" points="68.2501598 28.4143986 67.9763971 28.5680828 80.0814009 39.6821773 80.1909059 39.3762453"></polygon>
                <polygon id="路径" points="88.8067286 4.89903424 88.6879556 5.21442271 89.6872872 6.36874451 89.7500868 5.99500918"></polygon>
                <polygon id="路径" points="50.8633521 33.8033363 50.4512322 33.8277385 73.6910742 55.3590869 73.8181187 55.0720023"></polygon>
                <polygon id="路径" points="80.3787181 18.1264267 80.1909059 18.3672731 85.4130001 23.5153644 85.501562 23.1781794"></polygon>
                <path d="M4.77959042,33.3134328 C4.84529219,33.5103197 4.9115154,33.7072066 4.97826006,33.9040934 L57.0015469,81.8138718 L57.355085,81.7317556 L4.77959042,33.3134328 Z" id="路径"></path>
                <path d="M12.7455745,53.3994732 C12.872933,53.6546337 13.0008135,53.9083499 13.129216,54.1606218 L44.7036946,83.2835821 L45.1405762,83.2835821 L12.7455745,53.3994732 Z" id="路径"></path>
                <polygon id="路径" points="64.5573723 30.3740123 64.2589379 30.5021571 78.4848298 43.6014047 78.5977091 43.303824"></polygon>
                <polygon id="路径" points="86.7124865 8.32835821 86.5636932 8.57711403 88.6103931 10.2879719 88.6879556 9.97835029"></polygon>
                <polygon id="路径" points="45.078257 33.3409467 44.6095106 33.3134328 72.0905479 58.7884109 72.2249219 58.4987909"></polygon>
                <polygon id="路径" points="36.1602556 32.455575 35.5813953 32.333626 69.9590904 63.6874451 70.1006595 63.410549"></polygon>
                <polygon id="路径" points="77.7471298 21.0658472 77.5355779 21.278567 84.3431273 27.4345917 84.4394308 27.1190812"></polygon>
                <path d="M21.5358218,27.7822414 C21.2594974,27.6673159 20.9847429,27.5514327 20.7115585,27.4345917 L66.7572633,69.5662862 L66.9142659,69.2976478 L21.5358218,27.7822414 Z" id="路径"></path>
                <path d="M1.59319681,21.5557507 C1.63475252,21.730906 1.67630823,21.9055801 1.71786394,22.079773 L61.9694915,77.8946444 L62.1346755,77.640573 L1.59319681,21.5557507 Z" id="路径"></path>
                <polygon id="路径" points="71.9415077 26.4547849 71.6938563 26.6289148 81.6803987 35.76295 81.7841027 35.4571608"></polygon>
                <polygon id="路径" points="90.4348307 0.979806848 90.2811524 1.20766891 90.7285703 1.46971027 90.812218 1.1962758"></polygon>
                <polygon id="路径" points="56.1338283 32.8235294 55.7618882 32.8902962 75.8184011 51.4398595 75.9423811 51.149569"></polygon>
                <polygon id="路径" points="82.4941036 15.1870061 82.3151683 15.4249592 86.4766008 19.1062335 86.5636932 18.7870965"></polygon>
            </g>
        </g>
    </g>
</svg>